<?xml version="1.0" encoding="UTF-8" standalone="no"?>
<svg
   xmlns:dc="http://purl.org/dc/elements/1.1/"
   xmlns:cc="http://creativecommons.org/ns#"
   xmlns:rdf="http://www.w3.org/1999/02/22-rdf-syntax-ns#"
   xmlns:svg="http://www.w3.org/2000/svg"
   xmlns="http://www.w3.org/2000/svg"
   width="31.653553mm"
   height="33.925148mm"
   viewBox="0 0 31.653553 33.925148"
   version="1.1"
   id="svg5299">
  <defs
     id="defs5293">
    <clipPath
       clipPathUnits="userSpaceOnUse"
       id="clipPath981">
      <path
         d="M 42.396,382.682 H 418.09 V 164.033 H 42.396"
         id="path979" />
    </clipPath>
  </defs>
  <metadata
     id="metadata5296">
    <rdf:RDF>
      <cc:Work
         rdf:about="">
        <dc:format>image/svg+xml</dc:format>
        <dc:type
           rdf:resource="http://purl.org/dc/dcmitype/StillImage" />
        <dc:title></dc:title>
      </cc:Work>
    </rdf:RDF>
  </metadata>
  <g
     id="g9802"
     transform="translate(-99.180589,-98.843277)">
    <g
       id="g2123"
       transform="matrix(0.32949796,0,0,-0.33513888,125.51868,114.08309)">
      <path
         d="m 0,0 c -0.159,0.064 -0.384,0.105 -0.672,0.105 h -0.575 v -1.919 h 0.536 c 0.487,0 0.759,0.079 0.951,0.264 0.167,0.159 0.272,0.423 0.272,0.743 C 0.512,-0.423 0.304,-0.12 0,0 Z m 0.656,-4.773 c -0.16,0.312 -0.232,0.44 -0.456,0.815 -0.424,0.705 -0.56,0.936 -0.951,1.376 -0.145,0.16 -0.265,0.24 -0.496,0.247 v -2.438 h -0.768 v 5.509 h 1.543 c 0.656,0 1.04,-0.153 1.304,-0.4 0.247,-0.231 0.487,-0.599 0.487,-1.135 0,-0.856 -0.552,-1.543 -1.471,-1.511 0.255,-0.208 0.384,-0.384 0.48,-0.512 0.112,-0.152 0.279,-0.392 0.463,-0.68 0.241,-0.376 0.688,-1.095 0.8,-1.271"
         style="fill:#231f20;fill-opacity:1;fill-rule:nonzero;stroke:none"
         id="path2125" />
    </g>
    <g
       id="g2127"
       transform="matrix(0.32949796,0,0,-0.33513888,126.35198,115.68271)">
      <path
         d="M 0,0 V 3.981 L 0.76,4.102 V 0 Z m 0.376,4.709 c -0.288,0 -0.512,0.24 -0.512,0.528 0,0.296 0.232,0.536 0.52,0.536 0.287,0 0.527,-0.232 0.527,-0.536 0,-0.288 -0.24,-0.528 -0.535,-0.528"
         style="fill:#231f20;fill-opacity:1;fill-rule:nonzero;stroke:none"
         id="path2129" />
    </g>
    <g
       id="g2131"
       transform="matrix(0.32949796,0,0,-0.33513888,127.46931,114.49564)">
      <path
         d="m 0,0 c -0.471,0 -0.727,-0.256 -0.727,-0.768 0,-0.496 0.264,-0.743 0.735,-0.743 0.48,0 0.728,0.264 0.728,0.759 C 0.736,-0.239 0.504,0 0,0 Z m 1.607,-0.105 c -0.12,0 -0.152,0.009 -0.344,0.065 0.208,-0.264 0.289,-0.48 0.289,-0.735 0,-0.576 -0.393,-1.24 -1.44,-1.24 -0.247,-0.08 -0.632,-0.263 -0.632,-0.44 0,-0.12 0.096,-0.199 0.288,-0.199 h 0.616 c 1.024,0 1.448,-0.481 1.448,-1.104 0,-0.864 -0.712,-1.296 -1.688,-1.296 -1.12,0 -1.759,0.393 -1.759,1.056 0,0.168 0.032,0.288 0.073,0.408 l 0.719,0.04 c -0.032,-0.064 -0.073,-0.191 -0.073,-0.305 0,-0.415 0.345,-0.639 0.968,-0.639 0.656,0 0.983,0.264 0.983,0.688 0,0.384 -0.311,0.608 -1.102,0.608 -0.28,0 -0.6,0.023 -0.752,0.04 -0.352,0.04 -0.56,0.239 -0.56,0.535 0,0.376 0.328,0.536 0.784,0.704 -0.617,0.184 -0.944,0.6 -0.944,1.151 0,0.808 0.616,1.343 1.535,1.343 C 0.232,0.575 0.4,0.56 0.64,0.487 0.848,0.424 1.063,0.36 1.24,0.36 c 0.239,0 0.439,0.079 0.655,0.232 L 2.271,0.136 C 2.047,-0.04 1.855,-0.105 1.607,-0.105"
         style="fill:#231f20;fill-opacity:1;fill-rule:nonzero;stroke:none"
         id="path2133" />
    </g>
    <g
       id="g2135"
       transform="matrix(0.32949796,0,0,-0.33513888,129.19851,115.68271)">
      <path
         d="M 0,0 V 2.75 C 0,3.03 -0.057,3.223 -0.136,3.311 -0.208,3.39 -0.384,3.462 -0.576,3.462 -0.92,3.462 -1.327,3.238 -1.64,2.878 V 0 h -0.743 v 4.869 c 0,0.344 -0.032,0.609 -0.088,0.84 L -1.728,5.86 C -1.672,5.621 -1.64,5.325 -1.64,4.933 V 4.037 c 0,-0.142 -0.008,-0.327 -0.023,-0.535 0.176,0.16 0.263,0.225 0.424,0.328 0.294,0.191 0.575,0.272 0.871,0.272 0.471,0 0.887,-0.241 1.007,-0.6 0.064,-0.184 0.08,-0.287 0.08,-0.648 V 0"
         style="fill:#231f20;fill-opacity:1;fill-rule:nonzero;stroke:none"
         id="path2137" />
    </g>
    <g
       id="g2139"
       transform="matrix(0.32949796,0,0,-0.33513888,130.35571,114.51441)">
      <path
         d="m 0,0 h -0.791 v -2.415 c 0,-0.495 0.12,-0.647 0.519,-0.647 0.137,0 0.248,0.024 0.376,0.08 l 0.088,-0.447 c -0.224,-0.113 -0.464,-0.168 -0.728,-0.168 -0.263,0 -0.551,0.079 -0.679,0.199 -0.168,0.152 -0.296,0.231 -0.296,0.815 V 0 h -0.48 v 0.52 h 0.48 c 0,0.311 0.008,0.72 0.048,1.023 l 0.759,0.176 C -0.736,1.432 -0.776,0.928 -0.776,0.52 H 0.2"
         style="fill:#231f20;fill-opacity:1;fill-rule:nonzero;stroke:none"
         id="path2141" />
    </g>
    <g
       id="g2143"
       transform="matrix(0.32949796,0,0,-0.33513888,125.28474,117.00248)">
      <path
         d="m 0,0 c -0.267,-0.406 -0.47,-1.001 -0.645,-1.779 -0.112,-0.505 -0.189,-1.043 -0.189,-1.464 0,-0.735 0.189,-1.225 0.722,-1.575 l -0.239,-0.358 c -0.679,0.323 -1.12,1.002 -1.12,1.962 0,0.448 0.07,0.966 0.161,1.4 0.244,1.17 0.623,1.898 1.198,2.438 C 0.23,0.946 0.65,1.211 1.036,1.352 L 1.148,0.966 C 0.567,0.651 0.252,0.393 0,0"
         style="fill:#231f20;fill-opacity:1;fill-rule:nonzero;stroke:none"
         id="path2145" />
    </g>
    <g
       id="g2147"
       transform="matrix(0.32949796,0,0,-0.33513888,126.51179,117.06348)">
      <path
         d="m 0,0 c -0.203,0.322 -0.469,0.392 -0.931,0.392 h -0.547 l -0.784,-3.711 h 0.505 c 0.588,0 1.008,0.168 1.26,0.497 0.469,0.609 0.672,1.505 0.672,1.967 C 0.175,-0.469 0.126,-0.203 0,0 Z M -0.07,-3.264 C -0.54,-3.704 -1.023,-3.88 -1.835,-3.88 h -1.232 l 1.023,4.818 h 1.057 c 0.735,0 1.1,-0.084 1.443,-0.399 0.3,-0.273 0.448,-0.7 0.448,-1.345 0,-0.818 -0.42,-1.932 -0.974,-2.458"
         style="fill:#231f20;fill-opacity:1;fill-rule:nonzero;stroke:none"
         id="path2149" />
    </g>
    <g
       id="g2151"
       transform="matrix(0.32949796,0,0,-0.33513888,127.67887,117.39225)">
      <path
         d="m 0,0 c -0.07,0.029 -0.133,0.042 -0.238,0.042 -0.287,0 -0.61,-0.238 -0.931,-0.713 l -0.47,-2.228 h -0.638 l 0.504,2.367 c 0.106,0.504 0.112,0.743 0.036,0.988 l 0.602,0.266 c 0.077,-0.189 0.105,-0.448 0.042,-0.77 0.33,0.461 0.763,0.749 1.093,0.749 0.133,0 0.196,-0.014 0.28,-0.042"
         style="fill:#231f20;fill-opacity:1;fill-rule:nonzero;stroke:none"
         id="path2153" />
    </g>
    <g
       id="g2155"
       transform="matrix(0.32949796,0,0,-0.33513888,128.30821,117.32623)">
      <path
         d="m 0,0 c -0.743,0 -1.162,-0.989 -1.162,-1.968 0,-0.497 0.231,-0.7 0.624,-0.7 0.755,0 1.155,0.994 1.155,1.974 C 0.617,-0.182 0.343,0 0,0 Z m -0.658,-3.18 c -0.771,0 -1.205,0.462 -1.205,1.261 0,1.372 0.833,2.429 1.975,2.429 0.806,0 1.212,-0.49 1.212,-1.252 0,-1.332 -0.771,-2.438 -1.982,-2.438"
         style="fill:#231f20;fill-opacity:1;fill-rule:nonzero;stroke:none"
         id="path2157" />
    </g>
    <g
       id="g2159"
       transform="matrix(0.32949796,0,0,-0.33513888,129.35305,116.98841)">
      <path
         d="m 0,0 c -0.259,0 -0.469,0.203 -0.469,0.462 0,0.26 0.21,0.47 0.469,0.47 0.259,0 0.462,-0.21 0.462,-0.47 C 0.462,0.203 0.259,0 0,0 Z m -0.645,-4.104 h -0.672 l 0.742,3.488 0.695,0.105"
         style="fill:#231f20;fill-opacity:1;fill-rule:nonzero;stroke:none"
         id="path2161" />
    </g>
    <g
       id="g2163"
       transform="matrix(0.32949796,0,0,-0.33513888,130.18108,117.34499)">
      <path
         d="m 0,0 h -0.721 l -0.42,-1.982 C -1.17,-2.129 -1.19,-2.249 -1.19,-2.347 c 0,-0.238 0.105,-0.322 0.343,-0.322 0.14,0 0.252,0.028 0.364,0.07 V -2.998 C -0.7,-3.096 -0.924,-3.145 -1.17,-3.145 c -0.44,0 -0.672,0.217 -0.672,0.582 0,0.168 0.014,0.307 0.049,0.497 L -1.358,0 h -0.427 l 0.09,0.476 h 0.435 c 0.07,0.295 0.154,0.602 0.238,0.869 l 0.7,0.154 C -0.42,1.225 -0.547,0.791 -0.609,0.476 h 0.854"
         style="fill:#231f20;fill-opacity:1;fill-rule:nonzero;stroke:none"
         id="path2165" />
    </g>
    <g
       id="g2167"
       transform="matrix(0.32949796,0,0,-0.33513888,130.78307,117.67142)">
      <path
         d="m 0,0 c -0.245,-1.163 -0.63,-1.89 -1.198,-2.437 -0.343,-0.329 -0.764,-0.589 -1.155,-0.729 l -0.105,0.407 c 0.575,0.314 0.889,0.574 1.149,0.966 0.265,0.406 0.482,1.002 0.643,1.78 0.106,0.504 0.19,1.043 0.19,1.47 0,0.714 -0.182,1.218 -0.722,1.569 L -0.96,3.362 C -0.28,3.04 0.155,2.368 0.155,1.401 0.155,0.953 0.084,0.413 0,0"
         style="fill:#231f20;fill-opacity:1;fill-rule:nonzero;stroke:none"
         id="path2169" />
    </g>
    <g
       id="g2171"
       transform="matrix(0.32949796,0,0,-0.33513888,104.85751,115.67499)">
      <path
         d="m 0,0 h -2.75 v 5.509 h 0.783 V 0.64 h 2.096"
         style="fill:#231f20;fill-opacity:1;fill-rule:nonzero;stroke:none"
         id="path2173" />
    </g>
    <g
       id="g2175"
       transform="matrix(0.32949796,0,0,-0.33513888,105.72771,114.57105)">
      <path
         d="m 0,0 c -0.128,0.161 -0.32,0.281 -0.575,0.281 -0.56,0 -0.84,-0.456 -0.84,-1.184 H 0.248 C 0.248,-0.519 0.161,-0.2 0,0 Z m -1.422,-1.446 v -0.097 c 0,-0.343 0.047,-0.607 0.167,-0.798 0.208,-0.321 0.536,-0.473 0.919,-0.473 0.376,0 0.696,0.128 0.984,0.384 l 0.28,-0.44 c -0.391,-0.343 -0.864,-0.511 -1.384,-0.511 -1.11,0 -1.79,0.807 -1.79,2.119 0,0.695 0.135,1.142 0.48,1.55 0.319,0.376 0.712,0.552 1.207,0.552 0.447,0 0.807,-0.143 1.088,-0.431 0.351,-0.361 0.479,-0.808 0.487,-1.728 0,-0.023 0,-0.08 0,-0.127"
         style="fill:#231f20;fill-opacity:1;fill-rule:nonzero;stroke:none"
         id="path2177" />
    </g>
    <g
       id="g2179"
       transform="matrix(0.32949796,0,0,-0.33513888,107.02758,113.95205)">
      <path
         d="m 0,0 c -0.177,0.088 -0.336,0.152 -0.52,0.152 -0.336,0 -0.536,-0.232 -0.536,-0.639 v -0.648 h 1.064 l -0.192,-0.519 h -0.864 v -3.487 h -0.743 v 3.487 h -0.384 v 0.519 h 0.392 c -0.016,0.08 -0.016,0.576 -0.016,0.64 0,0.544 0.231,0.848 0.447,0.999 0.192,0.137 0.432,0.192 0.728,0.192 0.328,0 0.624,-0.063 0.871,-0.215"
         style="fill:#231f20;fill-opacity:1;fill-rule:nonzero;stroke:none"
         id="path2181" />
    </g>
    <g
       id="g2183"
       transform="matrix(0.32949796,0,0,-0.33513888,107.7103,114.50637)">
      <path
         d="m 0,0 h -0.792 v -2.415 c 0,-0.495 0.12,-0.648 0.52,-0.648 0.135,0 0.248,0.025 0.375,0.08 L 0.191,-3.43 c -0.223,-0.112 -0.463,-0.168 -0.727,-0.168 -0.264,0 -0.552,0.079 -0.68,0.199 -0.168,0.153 -0.296,0.232 -0.296,0.816 V 0 h -0.479 v 0.519 h 0.479 c 0,0.312 0.008,0.72 0.049,1.024 l 0.759,0.176 C -0.736,1.431 -0.775,0.927 -0.775,0.519 H 0.2"
         style="fill:#231f20;fill-opacity:1;fill-rule:nonzero;stroke:none"
         id="path2185" />
    </g>
    <g
       id="g2187"
       transform="matrix(0.32949796,0,0,-0.33513888,99.66528,116.99477)">
      <path
         d="m 0,0 c -0.267,-0.405 -0.469,-1.001 -0.644,-1.778 -0.112,-0.505 -0.189,-1.043 -0.189,-1.464 0,-0.736 0.189,-1.226 0.721,-1.575 l -0.239,-0.359 c -0.678,0.323 -1.12,1.002 -1.12,1.962 0,0.448 0.071,0.967 0.161,1.4 0.246,1.17 0.624,1.899 1.198,2.438 0.343,0.322 0.763,0.588 1.149,0.728 L 1.149,0.967 C 0.567,0.651 0.253,0.394 0,0"
         style="fill:#231f20;fill-opacity:1;fill-rule:nonzero;stroke:none"
         id="path2189" />
    </g>
    <g
       id="g2191"
       transform="matrix(0.32949796,0,0,-0.33513888,101.09794,117.02293)">
      <path
         d="m 0,0 c -0.308,0.26 -0.616,0.351 -0.987,0.351 -0.414,0 -0.792,-0.168 -1.079,-0.484 -0.476,-0.517 -0.75,-1.547 -0.75,-2.234 0,-0.756 0.443,-1.149 1.101,-1.149 0.279,0 0.524,0.057 0.741,0.169 l 0.295,1.372 h -0.903 v 0.561 h 1.68 l -0.483,-2.27 c -0.428,-0.245 -0.987,-0.378 -1.498,-0.378 -1.066,0 -1.675,0.729 -1.675,1.709 0,0.981 0.393,1.982 1.03,2.591 0.491,0.47 0.994,0.658 1.646,0.658 0.517,0 0.938,-0.161 1.254,-0.482"
         style="fill:#231f20;fill-opacity:1;fill-rule:nonzero;stroke:none"
         id="path2193" />
    </g>
    <g
       id="g2195"
       transform="matrix(0.32949796,0,0,-0.33513888,102.00175,117.32086)">
      <path
         d="m 0,0 c -0.379,0 -0.638,-0.119 -0.925,-0.456 -0.337,-0.398 -0.476,-1.078 -0.476,-1.582 0,-0.428 0.154,-0.589 0.448,-0.589 0.35,0 0.743,0.336 0.953,0.771 l 0.378,1.771 C 0.287,-0.035 0.146,0 0,0 Z M 0.91,-0.532 0.608,-1.947 C 0.497,-2.466 0.559,-2.633 0.734,-2.815 l -0.524,-0.4 c -0.197,0.189 -0.274,0.386 -0.26,0.679 -0.245,-0.385 -0.645,-0.623 -1.148,-0.623 -0.483,0 -0.869,0.351 -0.869,1.114 0,0.728 0.273,1.52 0.736,1.982 0.371,0.371 0.847,0.581 1.4,0.581 0.386,0 0.757,-0.091 1.037,-0.279 C 1.05,0.056 0.959,-0.287 0.91,-0.532"
         style="fill:#231f20;fill-opacity:1;fill-rule:nonzero;stroke:none"
         id="path2197" />
    </g>
    <g
       id="g2199"
       transform="matrix(0.32949796,0,0,-0.33513888,103.42716,118.00857)">
      <path
         d="m 0,0 c -0.084,-0.406 -0.07,-0.617 0.084,-0.833 l -0.525,-0.343 c -0.168,0.175 -0.26,0.378 -0.239,0.692 -0.392,-0.447 -0.826,-0.665 -1.254,-0.665 -0.483,0 -0.77,0.225 -0.77,0.707 0,0.162 0.021,0.358 0.056,0.526 l 0.504,2.353 0.66,0.119 -0.492,-2.332 c -0.042,-0.188 -0.062,-0.349 -0.062,-0.463 0,-0.272 0.098,-0.378 0.314,-0.378 0.33,0 0.806,0.287 1.128,0.799 l 0.477,2.241 0.658,0.12"
         style="fill:#231f20;fill-opacity:1;fill-rule:nonzero;stroke:none"
         id="path2201" />
    </g>
    <g
       id="g2203"
       transform="matrix(0.32949796,0,0,-0.33513888,104.57118,117.4147)">
      <path
         d="m 0,0 c -0.203,0.182 -0.435,0.252 -0.666,0.252 -0.245,0 -0.504,-0.126 -0.665,-0.344 -0.246,-0.321 -0.491,-1.05 -0.491,-1.596 0,-0.462 0.203,-0.701 0.603,-0.701 0.273,0 0.56,0.141 0.819,0.371 l 0.245,-0.405 c -0.392,-0.323 -0.742,-0.47 -1.197,-0.47 -0.784,0 -1.17,0.428 -1.17,1.198 0,0.819 0.434,1.688 0.903,2.088 0.323,0.272 0.673,0.405 1.08,0.405 0.342,0 0.636,-0.105 0.868,-0.329"
         style="fill:#231f20;fill-opacity:1;fill-rule:nonzero;stroke:none"
         id="path2205" />
    </g>
    <g
       id="g2207"
       transform="matrix(0.32949796,0,0,-0.33513888,105.79131,117.51826)">
      <path
         d="m 0,0 -0.532,-2.5 h -0.631 l 0.498,2.368 c 0.027,0.126 0.049,0.252 0.049,0.329 0,0.231 -0.14,0.343 -0.358,0.343 -0.307,0 -0.791,-0.301 -1.148,-0.742 L -2.613,-2.5 h -0.644 l 0.827,3.873 c 0.105,0.484 0.111,0.827 0.041,1.058 l 0.68,0.245 c 0.077,-0.26 0.042,-0.742 -0.063,-1.24 L -1.864,1.009 c -0.028,-0.126 -0.112,-0.44 -0.16,-0.595 0.377,0.469 0.903,0.679 1.324,0.679 0.483,0 0.762,-0.28 0.762,-0.665 C 0.062,0.324 0.035,0.176 0,0"
         style="fill:#231f20;fill-opacity:1;fill-rule:nonzero;stroke:none"
         id="path2209" />
    </g>
    <g
       id="g2211"
       transform="matrix(0.32949796,0,0,-0.33513888,106.61209,117.31349)">
      <path
         d="m 0,0 c -0.42,0 -0.826,-0.394 -1.001,-1.087 0.076,-0.006 0.224,-0.013 0.336,-0.013 0.539,0 0.819,0.076 0.994,0.251 0.106,0.106 0.168,0.232 0.168,0.393 C 0.497,-0.204 0.364,0 0,0 Z m 0.827,-1.163 c -0.295,-0.281 -0.757,-0.42 -1.5,-0.42 -0.161,0 -0.322,0.02 -0.433,0.02 -0.028,-0.119 -0.049,-0.287 -0.049,-0.406 0,-0.469 0.294,-0.708 0.672,-0.708 0.406,0 0.686,0.113 1.015,0.394 l 0.232,-0.4 c -0.378,-0.35 -0.771,-0.512 -1.422,-0.512 -0.7,0 -1.198,0.462 -1.198,1.275 0,0.693 0.287,1.45 0.777,1.926 0.35,0.336 0.736,0.49 1.17,0.49 0.673,0 1.058,-0.335 1.058,-0.924 0,-0.287 -0.12,-0.547 -0.322,-0.735"
         style="fill:#231f20;fill-opacity:1;fill-rule:nonzero;stroke:none"
         id="path2213" />
    </g>
    <g
       id="g2215"
       transform="matrix(0.32949796,0,0,-0.33513888,107.65462,117.66338)">
      <path
         d="m 0,0 c -0.245,-1.163 -0.631,-1.891 -1.198,-2.438 -0.343,-0.329 -0.764,-0.589 -1.155,-0.728 l -0.106,0.406 c 0.574,0.315 0.891,0.574 1.148,0.967 0.267,0.405 0.484,1.002 0.646,1.779 0.104,0.504 0.188,1.043 0.188,1.471 0,0.714 -0.182,1.218 -0.721,1.568 L -0.96,3.361 C -0.28,3.04 0.153,2.367 0.153,1.4 0.153,0.952 0.084,0.413 0,0"
         style="fill:#231f20;fill-opacity:1;fill-rule:nonzero;stroke:none"
         id="path2217" />
    </g>
    <g
       id="g2315"
       transform="matrix(0.32949796,0,0,-0.33513888,108.25101,128.07949)">
      <path
         d="m 0,0 h -1.992 v -1.671 h 1.631 v -0.623 h -1.631 v -2.583 h -0.775 v 5.509 h 2.87"
         style="fill:#231f20;fill-opacity:1;fill-rule:nonzero;stroke:none"
         id="path2317" />
    </g>
    <g
       id="g2319"
       transform="matrix(0.32949796,0,0,-0.33513888,108.939,128.52422)">
      <path
         d="m 0,0 c -0.639,0 -0.904,-0.455 -0.904,-1.463 0,-1.224 0.313,-1.632 0.937,-1.632 0.558,0 0.902,0.432 0.902,1.479 C 0.935,-0.375 0.576,0 0,0 Z m 0.016,-3.662 c -1.071,0 -1.735,0.816 -1.735,2.119 0,1.295 0.664,2.11 1.719,2.11 1.183,0 1.759,-0.942 1.759,-2.15 0,-1.271 -0.679,-2.079 -1.743,-2.079"
         style="fill:#231f20;fill-opacity:1;fill-rule:nonzero;stroke:none"
         id="path2321" />
    </g>
    <g
       id="g2323"
       transform="matrix(0.32949796,0,0,-0.33513888,110.4626,128.58857)">
      <path
         d="m 0,0 c -0.073,0.024 -0.128,0.039 -0.208,0.039 -0.448,0 -0.832,-0.375 -0.832,-0.814 v -2.583 h -0.735 v 2.942 c 0,0.487 -0.057,0.751 -0.152,1 l 0.712,0.184 C -1.144,0.615 -1.08,0.352 -1.08,0.152 V 0.08 c 0.32,0.463 0.664,0.696 1.088,0.696 0.096,0 0.184,-0.017 0.247,-0.04"
         style="fill:#231f20;fill-opacity:1;fill-rule:nonzero;stroke:none"
         id="path2325" />
    </g>
    <g
       id="g2327"
       transform="matrix(0.32949796,0,0,-0.33513888,111.39014,128.61002)">
      <path
         d="m 0,0 c -0.127,0.16 -0.319,0.28 -0.575,0.28 -0.56,0 -0.839,-0.456 -0.839,-1.184 H 0.249 C 0.249,-0.52 0.161,-0.199 0,0 Z m -1.423,-1.448 v -0.095 c 0,-0.344 0.048,-0.608 0.168,-0.8 0.208,-0.319 0.536,-0.472 0.92,-0.472 0.375,0 0.695,0.128 0.983,0.384 l 0.28,-0.439 c -0.392,-0.344 -0.864,-0.512 -1.383,-0.512 -1.111,0 -1.791,0.808 -1.791,2.118 0,0.696 0.136,1.145 0.479,1.552 0.32,0.376 0.712,0.552 1.207,0.552 0.449,0 0.809,-0.145 1.088,-0.432 0.352,-0.359 0.48,-0.808 0.488,-1.727 0,-0.024 0,-0.08 0,-0.129"
         style="fill:#231f20;fill-opacity:1;fill-rule:nonzero;stroke:none"
         id="path2329" />
    </g>
    <g
       id="g2331"
       transform="matrix(0.32949796,0,0,-0.33513888,-6.6655907,190.79279)">
      <path
         d="m 361.988,184.048 h 1.622 v 0.727 h -1.622 z"
         style="fill:#231f20;fill-opacity:1;fill-rule:nonzero;stroke:none"
         id="path2333" />
    </g>
    <g
       id="g2335"
       transform="matrix(0.32949796,0,0,-0.33513888,114.78001,128.11435)">
      <path
         d="m 0,0 c -0.16,0.065 -0.384,0.104 -0.672,0.104 h -0.575 v -1.918 h 0.535 c 0.488,0 0.76,0.079 0.952,0.262 0.168,0.161 0.272,0.425 0.272,0.745 C 0.512,-0.424 0.304,-0.12 0,0 Z m 0.656,-4.773 c -0.16,0.311 -0.232,0.439 -0.456,0.815 -0.424,0.703 -0.559,0.936 -0.952,1.375 -0.143,0.16 -0.263,0.24 -0.495,0.248 v -2.438 h -0.768 v 5.509 h 1.543 c 0.657,0 1.04,-0.153 1.303,-0.4 0.248,-0.232 0.488,-0.599 0.488,-1.136 0,-0.855 -0.551,-1.543 -1.471,-1.51 0.256,-0.208 0.383,-0.384 0.48,-0.512 0.111,-0.152 0.28,-0.393 0.464,-0.68 0.239,-0.376 0.688,-1.095 0.799,-1.271"
         style="fill:#231f20;fill-opacity:1;fill-rule:nonzero;stroke:none"
         id="path2337" />
    </g>
    <g
       id="g2339"
       transform="matrix(0.32949796,0,0,-0.33513888,116.2219,128.61002)">
      <path
         d="m 0,0 c -0.128,0.16 -0.32,0.28 -0.576,0.28 -0.561,0 -0.84,-0.456 -0.84,-1.184 H 0.247 C 0.247,-0.52 0.159,-0.199 0,0 Z m -1.424,-1.448 v -0.095 c 0,-0.344 0.048,-0.608 0.168,-0.8 0.208,-0.319 0.536,-0.472 0.92,-0.472 0.375,0 0.695,0.128 0.983,0.384 l 0.28,-0.439 c -0.392,-0.344 -0.864,-0.512 -1.384,-0.512 -1.111,0 -1.791,0.808 -1.791,2.118 0,0.696 0.137,1.145 0.48,1.552 0.32,0.376 0.711,0.552 1.207,0.552 0.448,0 0.808,-0.145 1.087,-0.432 0.353,-0.359 0.481,-0.808 0.489,-1.727 0,-0.024 0,-0.08 0,-0.129"
         style="fill:#231f20;fill-opacity:1;fill-rule:nonzero;stroke:none"
         id="path2341" />
    </g>
    <g
       id="g2343"
       transform="matrix(0.32949796,0,0,-0.33513888,117.50035,129.04938)">
      <path
         d="m 0,0 c -0.553,0 -0.888,-0.104 -1.048,-0.288 -0.151,-0.177 -0.208,-0.32 -0.208,-0.584 0,-0.439 0.224,-0.695 0.632,-0.695 0.336,0 0.655,0.208 0.84,0.527 l 0.023,1.024 C 0.128,-0.008 0.063,0 0,0 Z m 0.903,-2.151 c -0.248,0.097 -0.44,0.296 -0.536,0.575 -0.104,-0.127 -0.439,-0.527 -1.136,-0.527 -0.798,0 -1.295,0.408 -1.295,1.175 0,0.928 0.744,1.423 2.039,1.423 0.096,0 0.176,0 0.28,-0.007 v 0.263 c 0,0.472 -0.064,0.791 -0.623,0.791 -0.424,0 -0.904,-0.207 -1.232,-0.455 l -0.336,0.528 c 0.392,0.223 0.904,0.528 1.679,0.528 0.584,0 1.008,-0.217 1.16,-0.64 0.064,-0.177 0.08,-0.311 0.08,-0.704 0,-0.287 -0.032,-0.903 -0.032,-1.486 0,-0.553 0.016,-0.777 0.328,-0.969"
         style="fill:#231f20;fill-opacity:1;fill-rule:nonzero;stroke:none"
         id="path2345" />
    </g>
    <g
       id="g2347"
       transform="matrix(0.32949796,0,0,-0.33513888,118.83119,128.58857)">
      <path
         d="m 0,0 c -0.072,0.024 -0.128,0.039 -0.208,0.039 -0.447,0 -0.831,-0.375 -0.831,-0.814 v -2.583 h -0.735 v 2.942 c 0,0.487 -0.056,0.751 -0.153,1 l 0.712,0.184 C -1.143,0.615 -1.079,0.352 -1.079,0.152 V 0.08 c 0.319,0.463 0.664,0.696 1.087,0.696 0.096,0 0.184,-0.017 0.249,-0.04"
         style="fill:#231f20;fill-opacity:1;fill-rule:nonzero;stroke:none"
         id="path2349" />
    </g>
    <g
       id="g2351"
       transform="matrix(0.32949796,0,0,-0.33513888,120.32876,129.71933)">
      <path
         d="m 0,0 h -0.752 l -1.84,5.525 h 0.849 l 1.054,-3.294 c 0.065,-0.193 0.153,-0.489 0.208,-0.728 0.04,-0.176 0.073,-0.304 0.088,-0.416 h 0.048 c 0.025,0.112 0.057,0.216 0.112,0.416 0.064,0.224 0.128,0.432 0.224,0.735 L 1.07,5.525 h 0.8"
         style="fill:#231f20;fill-opacity:1;fill-rule:nonzero;stroke:none"
         id="path2353" />
    </g>
    <g
       id="g2355"
       transform="matrix(0.32949796,0,0,-0.33513888,121.14855,129.71397)">
      <path
         d="m 0,0 v 3.981 l 0.761,0.12 V 0 Z m 0.376,4.709 c -0.288,0 -0.511,0.24 -0.511,0.528 0,0.296 0.232,0.535 0.519,0.535 0.289,0 0.528,-0.231 0.528,-0.535 0,-0.288 -0.239,-0.528 -0.536,-0.528"
         style="fill:#231f20;fill-opacity:1;fill-rule:nonzero;stroke:none"
         id="path2357" />
    </g>
    <g
       id="g2359"
       transform="matrix(0.32949796,0,0,-0.33513888,122.47181,128.61002)">
      <path
         d="m 0,0 c -0.128,0.16 -0.32,0.28 -0.575,0.28 -0.561,0 -0.841,-0.456 -0.841,-1.184 H 0.247 C 0.247,-0.52 0.159,-0.199 0,0 Z m -1.424,-1.448 v -0.095 c 0,-0.344 0.049,-0.608 0.169,-0.8 0.207,-0.319 0.535,-0.472 0.919,-0.472 0.376,0 0.695,0.128 0.983,0.384 l 0.28,-0.439 c -0.391,-0.344 -0.864,-0.512 -1.383,-0.512 -1.112,0 -1.791,0.808 -1.791,2.118 0,0.696 0.136,1.145 0.48,1.552 0.32,0.376 0.711,0.552 1.207,0.552 0.447,0 0.807,-0.145 1.087,-0.432 0.352,-0.359 0.48,-0.808 0.488,-1.727 0,-0.024 0,-0.08 0,-0.129"
         style="fill:#231f20;fill-opacity:1;fill-rule:nonzero;stroke:none"
         id="path2361" />
    </g>
    <g
       id="g2363"
       transform="matrix(0.32949796,0,0,-0.33513888,124.37993,129.72469)">
      <path
         d="m 0,0 h -0.712 l -0.583,2.182 c -0.072,0.28 -0.249,0.945 -0.249,0.945 h -0.024 c 0,0 -0.16,-0.681 -0.215,-0.897 L -2.383,0 h -0.704 l -1.095,4.005 0.743,0.121 0.512,-2.248 c 0.088,-0.399 0.208,-0.983 0.208,-0.983 h 0.023 c 0,0 0.088,0.567 0.185,0.912 l 0.607,2.231 h 0.76 l 0.56,-2.167 C -0.472,1.439 -0.36,0.935 -0.36,0.895 h 0.032 c 0,0.04 0.128,0.688 0.183,0.951 l 0.496,2.192 h 0.768"
         style="fill:#231f20;fill-opacity:1;fill-rule:nonzero;stroke:none"
         id="path2365" />
    </g>
    <g
       id="g2367"
       transform="matrix(0.32949796,0,0,-0.33513888,102.30653,131.03408)">
      <path
         d="m 0,0 c -0.266,-0.406 -0.469,-1.001 -0.644,-1.778 -0.112,-0.504 -0.189,-1.044 -0.189,-1.464 0,-0.735 0.189,-1.225 0.721,-1.576 L -0.35,-5.175 c -0.68,0.323 -1.121,1.001 -1.121,1.961 0,0.449 0.071,0.966 0.162,1.401 0.244,1.17 0.623,1.898 1.197,2.437 0.344,0.323 0.763,0.589 1.149,0.729 L 1.149,0.968 C 0.567,0.652 0.253,0.394 0,0"
         style="fill:#231f20;fill-opacity:1;fill-rule:nonzero;stroke:none"
         id="path2369" />
    </g>
    <g
       id="g2371"
       transform="matrix(0.32949796,0,0,-0.33513888,103.29833,131.33905)">
      <path
         d="m 0,0 c -0.02,0.295 -0.084,1.037 -0.084,1.037 0,0 -0.196,-0.421 -0.336,-0.686 l -0.812,-1.548 h 1.351 z m 0.302,-3.151 -0.127,1.393 h -1.702 l -0.728,-1.393 h -0.728 l 2.633,4.826 h 0.827 l 0.546,-4.826"
         style="fill:#231f20;fill-opacity:1;fill-rule:nonzero;stroke:none"
         id="path2373" />
    </g>
    <g
       id="g2375"
       transform="matrix(0.32949796,0,0,-0.33513888,104.87168,131.52439)">
      <path
         d="m 0,0 -0.553,-2.598 h -0.645 l 0.498,2.353 c 0.035,0.168 0.056,0.281 0.056,0.365 0,0.216 -0.106,0.314 -0.316,0.314 -0.266,0 -0.679,-0.202 -1.107,-0.742 l -0.482,-2.29 h -0.638 l 0.532,2.471 c 0.091,0.436 0.091,0.625 0.021,0.883 l 0.603,0.267 c 0.07,-0.196 0.119,-0.413 0.048,-0.722 0.358,0.455 0.848,0.694 1.318,0.694 0.434,0 0.7,-0.274 0.7,-0.701 C 0.035,0.204 0.02,0.098 0,0"
         style="fill:#231f20;fill-opacity:1;fill-rule:nonzero;stroke:none"
         id="path2377" />
    </g>
    <g
       id="g2379"
       transform="matrix(0.32949796,0,0,-0.33513888,105.73892,131.37659)">
      <path
         d="m 0,0 h -0.722 l -0.42,-1.982 c -0.028,-0.147 -0.05,-0.265 -0.05,-0.364 0,-0.238 0.106,-0.322 0.343,-0.322 0.141,0 0.253,0.028 0.365,0.07 v -0.399 c -0.217,-0.099 -0.441,-0.147 -0.686,-0.147 -0.442,0 -0.672,0.217 -0.672,0.58 0,0.169 0.012,0.309 0.048,0.498 L -1.36,0 h -0.427 l 0.091,0.477 h 0.434 c 0.07,0.293 0.154,0.602 0.239,0.868 l 0.699,0.154 C -0.421,1.225 -0.547,0.792 -0.611,0.477 h 0.856"
         style="fill:#231f20;fill-opacity:1;fill-rule:nonzero;stroke:none"
         id="path2381" />
    </g>
    <g
       id="g2383"
       transform="matrix(0.32949796,0,0,-0.33513888,106.45821,131.35313)">
      <path
         d="m 0,0 c -0.421,0 -0.827,-0.391 -1.001,-1.085 0.076,-0.007 0.224,-0.014 0.335,-0.014 0.54,0 0.82,0.077 0.995,0.252 0.105,0.105 0.168,0.231 0.168,0.392 C 0.497,-0.202 0.364,0 0,0 Z m 0.826,-1.162 c -0.294,-0.28 -0.756,-0.421 -1.499,-0.421 -0.161,0 -0.322,0.022 -0.434,0.022 -0.028,-0.119 -0.048,-0.287 -0.048,-0.407 0,-0.469 0.293,-0.708 0.672,-0.708 0.406,0 0.686,0.114 1.015,0.393 l 0.231,-0.399 c -0.377,-0.35 -0.771,-0.511 -1.421,-0.511 -0.7,0 -1.198,0.462 -1.198,1.274 0,0.694 0.287,1.45 0.777,1.927 0.351,0.335 0.736,0.489 1.17,0.489 0.672,0 1.058,-0.335 1.058,-0.924 0,-0.287 -0.12,-0.546 -0.323,-0.735"
         style="fill:#231f20;fill-opacity:1;fill-rule:nonzero;stroke:none"
         id="path2385" />
    </g>
    <g
       id="g2387"
       transform="matrix(0.32949796,0,0,-0.33513888,107.73139,131.42351)">
      <path
         d="m 0,0 c -0.07,0.029 -0.132,0.042 -0.238,0.042 -0.287,0 -0.609,-0.237 -0.931,-0.715 l -0.47,-2.226 h -0.637 l 0.504,2.367 c 0.105,0.504 0.112,0.742 0.035,0.987 l 0.603,0.267 c 0.077,-0.19 0.104,-0.448 0.042,-0.771 0.329,0.463 0.762,0.75 1.092,0.75 0.133,0 0.196,-0.014 0.28,-0.042"
         style="fill:#231f20;fill-opacity:1;fill-rule:nonzero;stroke:none"
         id="path2389" />
    </g>
    <g
       id="g2391"
       transform="matrix(0.32949796,0,0,-0.33513888,108.17621,131.01967)">
      <path
         d="m 0,0 c -0.259,0 -0.469,0.203 -0.469,0.462 0,0.26 0.21,0.469 0.469,0.469 0.26,0 0.463,-0.209 0.463,-0.469 C 0.463,0.203 0.26,0 0,0 Z m -0.644,-4.104 h -0.672 l 0.742,3.488 0.693,0.105"
         style="fill:#231f20;fill-opacity:1;fill-rule:nonzero;stroke:none"
         id="path2393" />
    </g>
    <g
       id="g2395"
       transform="matrix(0.32949796,0,0,-0.33513888,108.97459,131.35313)">
      <path
         d="m 0,0 c -0.42,0 -0.827,-0.391 -1.001,-1.085 0.076,-0.007 0.224,-0.014 0.335,-0.014 0.54,0 0.82,0.077 0.995,0.252 0.104,0.105 0.168,0.231 0.168,0.392 C 0.497,-0.202 0.364,0 0,0 Z m 0.826,-1.162 c -0.294,-0.28 -0.757,-0.421 -1.499,-0.421 -0.16,0 -0.322,0.022 -0.434,0.022 -0.028,-0.119 -0.048,-0.287 -0.048,-0.407 0,-0.469 0.294,-0.708 0.671,-0.708 0.407,0 0.687,0.114 1.016,0.393 l 0.231,-0.399 c -0.378,-0.35 -0.77,-0.511 -1.421,-0.511 -0.701,0 -1.199,0.462 -1.199,1.274 0,0.694 0.288,1.45 0.778,1.927 0.35,0.335 0.736,0.489 1.17,0.489 0.672,0 1.057,-0.335 1.057,-0.924 0,-0.287 -0.119,-0.546 -0.322,-0.735"
         style="fill:#231f20;fill-opacity:1;fill-rule:nonzero;stroke:none"
         id="path2397" />
    </g>
    <g
       id="g2399"
       transform="matrix(0.32949796,0,0,-0.33513888,110.43492,132.04787)">
      <path
         d="m 0,0 c -0.085,-0.406 -0.071,-0.615 0.084,-0.833 l -0.526,-0.344 c -0.168,0.176 -0.26,0.379 -0.238,0.695 -0.393,-0.45 -0.826,-0.667 -1.253,-0.667 -0.484,0 -0.771,0.225 -0.771,0.708 0,0.161 0.021,0.357 0.056,0.526 l 0.504,2.352 0.658,0.12 -0.49,-2.332 c -0.042,-0.19 -0.063,-0.351 -0.063,-0.463 0,-0.273 0.098,-0.377 0.316,-0.377 0.329,0 0.805,0.287 1.127,0.798 l 0.476,2.241 0.659,0.119"
         style="fill:#231f20;fill-opacity:1;fill-rule:nonzero;stroke:none"
         id="path2401" />
    </g>
    <g
       id="g2403"
       transform="matrix(0.32949796,0,0,-0.33513888,111.48141,131.42351)">
      <path
         d="m 0,0 c -0.069,0.029 -0.133,0.042 -0.237,0.042 -0.287,0 -0.609,-0.237 -0.932,-0.715 l -0.469,-2.226 h -0.637 l 0.504,2.367 c 0.105,0.504 0.112,0.742 0.035,0.987 l 0.603,0.267 c 0.076,-0.19 0.105,-0.448 0.041,-0.771 0.33,0.463 0.763,0.75 1.092,0.75 0.134,0 0.197,-0.014 0.281,-0.042"
         style="fill:#231f20;fill-opacity:1;fill-rule:nonzero;stroke:none"
         id="path2405" />
    </g>
    <g
       id="g2407"
       transform="matrix(0.32949796,0,0,-0.33513888,112.35359,131.42787)">
      <path
         d="m 0,0 c -0.287,0.161 -0.539,0.251 -0.833,0.251 -0.421,0 -0.729,-0.167 -0.729,-0.483 0,-0.217 0.091,-0.336 0.378,-0.455 l 0.435,-0.175 c 0.49,-0.196 0.727,-0.463 0.727,-0.861 0,-0.75 -0.623,-1.268 -1.575,-1.268 -0.462,0 -0.917,0.133 -1.254,0.357 l 0.267,0.483 c 0.308,-0.21 0.679,-0.336 1.064,-0.336 0.442,0 0.778,0.225 0.778,0.553 0,0.26 -0.113,0.393 -0.449,0.532 l -0.406,0.169 c -0.455,0.189 -0.679,0.427 -0.679,0.848 0,0.63 0.553,1.141 1.485,1.141 0.385,0 0.784,-0.105 1.05,-0.28"
         style="fill:#231f20;fill-opacity:1;fill-rule:nonzero;stroke:none"
         id="path2409" />
    </g>
    <g
       id="g2411"
       transform="matrix(0.32949796,0,0,-0.33513888,-6.6655907,190.79279)">
      <path
         d="m 363.522,175.832 h 1.555 v 0.596 h -1.555 z"
         style="fill:#231f20;fill-opacity:1;fill-rule:nonzero;stroke:none"
         id="path2413" />
    </g>
    <g
       id="g2415"
       transform="matrix(0.32949796,0,0,-0.33513888,114.82351,132.39742)">
      <path
         d="m 0,0 h -0.651 l -0.595,4.825 h 0.708 l 0.335,-2.941 c 0.043,-0.371 0.056,-0.82 0.05,-1.016 0.077,0.169 0.258,0.539 0.503,0.994 l 1.604,2.963 h 0.728"
         style="fill:#231f20;fill-opacity:1;fill-rule:nonzero;stroke:none"
         id="path2417" />
    </g>
    <g
       id="g2419"
       transform="matrix(0.32949796,0,0,-0.33513888,116.40147,132.04787)">
      <path
         d="m 0,0 c -0.085,-0.406 -0.07,-0.615 0.084,-0.833 l -0.525,-0.344 c -0.168,0.176 -0.26,0.379 -0.239,0.695 -0.392,-0.45 -0.826,-0.667 -1.254,-0.667 -0.482,0 -0.769,0.225 -0.769,0.708 0,0.161 0.02,0.357 0.055,0.526 l 0.504,2.352 0.659,0.12 -0.49,-2.332 c -0.043,-0.19 -0.064,-0.351 -0.064,-0.463 0,-0.273 0.099,-0.377 0.316,-0.377 0.329,0 0.805,0.287 1.127,0.798 l 0.477,2.241 0.658,0.119"
         style="fill:#231f20;fill-opacity:1;fill-rule:nonzero;stroke:none"
         id="path2421" />
    </g>
    <g
       id="g2423"
       transform="matrix(0.32949796,0,0,-0.33513888,117.33527,131.35313)">
      <path
         d="m 0,0 c -0.42,0 -0.826,-0.391 -1.002,-1.085 0.078,-0.007 0.225,-0.014 0.337,-0.014 0.539,0 0.819,0.077 0.995,0.252 0.104,0.105 0.167,0.231 0.167,0.392 C 0.497,-0.202 0.364,0 0,0 Z m 0.826,-1.162 c -0.293,-0.28 -0.756,-0.421 -1.499,-0.421 -0.16,0 -0.321,0.022 -0.434,0.022 -0.028,-0.119 -0.048,-0.287 -0.048,-0.407 0,-0.469 0.294,-0.708 0.672,-0.708 0.406,0 0.686,0.114 1.016,0.393 l 0.231,-0.399 c -0.379,-0.35 -0.771,-0.511 -1.422,-0.511 -0.7,0 -1.198,0.462 -1.198,1.274 0,0.694 0.287,1.45 0.778,1.927 0.35,0.335 0.735,0.489 1.17,0.489 0.672,0 1.056,-0.335 1.056,-0.924 0,-0.287 -0.118,-0.546 -0.322,-0.735"
         style="fill:#231f20;fill-opacity:1;fill-rule:nonzero;stroke:none"
         id="path2425" />
    </g>
    <g
       id="g2427"
       transform="matrix(0.32949796,0,0,-0.33513888,119.11818,130.96772)">
      <path
         d="m 0,0 h -0.609 l -0.386,-1.822 h 0.723 c 0.398,0 0.601,0.084 0.783,0.252 0.26,0.245 0.386,0.568 0.386,0.869 C 0.897,-0.239 0.658,0 0,0 Z m 0.848,-2.075 c -0.287,-0.203 -0.68,-0.3 -1.204,-0.3 h -0.757 l -0.4,-1.884 h -0.672 l 1.022,4.818 h 1.262 c 0.546,0 0.902,-0.097 1.127,-0.266 0.28,-0.209 0.406,-0.511 0.406,-0.847 0,-0.63 -0.259,-1.15 -0.784,-1.521"
         style="fill:#231f20;fill-opacity:1;fill-rule:nonzero;stroke:none"
         id="path2429" />
    </g>
    <g
       id="g2431"
       transform="matrix(0.32949796,0,0,-0.33513888,120.31953,131.35749)">
      <path
         d="m 0,0 c -0.743,0 -1.163,-0.988 -1.163,-1.969 0,-0.497 0.232,-0.7 0.624,-0.7 0.756,0 1.156,0.995 1.156,1.975 C 0.617,-0.183 0.343,0 0,0 Z m -0.659,-3.18 c -0.769,0 -1.204,0.462 -1.204,1.261 0,1.373 0.833,2.429 1.975,2.429 0.806,0 1.212,-0.489 1.212,-1.253 0,-1.331 -0.771,-2.437 -1.983,-2.437"
         style="fill:#231f20;fill-opacity:1;fill-rule:nonzero;stroke:none"
         id="path2433" />
    </g>
    <g
       id="g2435"
       transform="matrix(0.32949796,0,0,-0.33513888,121.79107,131.42787)">
      <path
         d="m 0,0 c -0.287,0.161 -0.539,0.251 -0.833,0.251 -0.42,0 -0.728,-0.167 -0.728,-0.483 0,-0.217 0.091,-0.336 0.378,-0.455 l 0.434,-0.175 c 0.491,-0.196 0.728,-0.463 0.728,-0.861 0,-0.75 -0.623,-1.268 -1.575,-1.268 -0.463,0 -0.917,0.133 -1.254,0.357 l 0.266,0.483 c 0.308,-0.21 0.679,-0.336 1.065,-0.336 0.441,0 0.777,0.225 0.777,0.553 0,0.26 -0.112,0.393 -0.448,0.532 l -0.406,0.169 c -0.455,0.189 -0.68,0.427 -0.68,0.848 0,0.63 0.554,1.141 1.485,1.141 0.386,0 0.785,-0.105 1.051,-0.28"
         style="fill:#231f20;fill-opacity:1;fill-rule:nonzero;stroke:none"
         id="path2437" />
    </g>
    <g
       id="g2439"
       transform="matrix(0.32949796,0,0,-0.33513888,122.64908,131.37659)">
      <path
         d="m 0,0 h -0.722 l -0.42,-1.982 c -0.028,-0.147 -0.049,-0.265 -0.049,-0.364 0,-0.238 0.105,-0.322 0.344,-0.322 0.14,0 0.251,0.028 0.364,0.07 V -2.997 C -0.7,-3.096 -0.925,-3.144 -1.17,-3.144 c -0.44,0 -0.672,0.217 -0.672,0.58 0,0.169 0.014,0.309 0.05,0.498 L -1.359,0 h -0.426 l 0.091,0.477 h 0.434 c 0.069,0.293 0.153,0.602 0.237,0.868 l 0.702,0.154 C -0.42,1.225 -0.546,0.792 -0.609,0.477 h 0.854"
         style="fill:#231f20;fill-opacity:1;fill-rule:nonzero;stroke:none"
         id="path2441" />
    </g>
    <g
       id="g2443"
       transform="matrix(0.32949796,0,0,-0.33513888,123.36838,131.35313)">
      <path
         d="m 0,0 c -0.419,0 -0.826,-0.391 -1.001,-1.085 0.078,-0.007 0.224,-0.014 0.337,-0.014 0.538,0 0.819,0.077 0.995,0.252 0.105,0.105 0.168,0.231 0.168,0.392 C 0.499,-0.202 0.366,0 0,0 Z m 0.828,-1.162 c -0.294,-0.28 -0.757,-0.421 -1.499,-0.421 -0.162,0 -0.323,0.022 -0.434,0.022 -0.028,-0.119 -0.05,-0.287 -0.05,-0.407 0,-0.469 0.294,-0.708 0.673,-0.708 0.406,0 0.686,0.114 1.016,0.393 l 0.23,-0.399 c -0.378,-0.35 -0.769,-0.511 -1.422,-0.511 -0.7,0 -1.197,0.462 -1.197,1.274 0,0.694 0.287,1.45 0.777,1.927 0.351,0.335 0.736,0.489 1.17,0.489 0.672,0 1.058,-0.335 1.058,-0.924 0,-0.287 -0.119,-0.546 -0.322,-0.735"
         style="fill:#231f20;fill-opacity:1;fill-rule:nonzero;stroke:none"
         id="path2445" />
    </g>
    <g
       id="g2447"
       transform="matrix(0.32949796,0,0,-0.33513888,124.64221,131.42351)">
      <path
         d="m 0,0 c -0.071,0.029 -0.133,0.042 -0.239,0.042 -0.287,0 -0.609,-0.237 -0.931,-0.715 l -0.47,-2.226 h -0.638 l 0.505,2.367 c 0.105,0.504 0.113,0.742 0.035,0.987 l 0.602,0.267 c 0.078,-0.19 0.106,-0.448 0.042,-0.771 0.33,0.463 0.764,0.75 1.094,0.75 0.133,0 0.196,-0.014 0.28,-0.042"
         style="fill:#231f20;fill-opacity:1;fill-rule:nonzero;stroke:none"
         id="path2449" />
    </g>
    <g
       id="g2451"
       transform="matrix(0.32949796,0,0,-0.33513888,125.08704,131.01967)">
      <path
         d="m 0,0 c -0.259,0 -0.469,0.203 -0.469,0.462 0,0.26 0.21,0.469 0.469,0.469 0.259,0 0.462,-0.209 0.462,-0.469 C 0.462,0.203 0.259,0 0,0 Z m -0.645,-4.104 h -0.672 l 0.742,3.488 0.694,0.105"
         style="fill:#231f20;fill-opacity:1;fill-rule:nonzero;stroke:none"
         id="path2453" />
    </g>
    <g
       id="g2455"
       transform="matrix(0.32949796,0,0,-0.33513888,125.88508,131.35313)">
      <path
         d="m 0,0 c -0.421,0 -0.826,-0.391 -1.002,-1.085 0.077,-0.007 0.224,-0.014 0.337,-0.014 0.539,0 0.818,0.077 0.994,0.252 0.105,0.105 0.168,0.231 0.168,0.392 C 0.497,-0.202 0.364,0 0,0 Z m 0.826,-1.162 c -0.294,-0.28 -0.756,-0.421 -1.498,-0.421 -0.162,0 -0.323,0.022 -0.434,0.022 -0.029,-0.119 -0.049,-0.287 -0.049,-0.407 0,-0.469 0.293,-0.708 0.672,-0.708 0.406,0 0.686,0.114 1.015,0.393 l 0.231,-0.399 c -0.378,-0.35 -0.77,-0.511 -1.422,-0.511 -0.7,0 -1.197,0.462 -1.197,1.274 0,0.694 0.287,1.45 0.777,1.927 0.351,0.335 0.736,0.489 1.17,0.489 0.672,0 1.058,-0.335 1.058,-0.924 0,-0.287 -0.12,-0.546 -0.323,-0.735"
         style="fill:#231f20;fill-opacity:1;fill-rule:nonzero;stroke:none"
         id="path2457" />
    </g>
    <g
       id="g2459"
       transform="matrix(0.32949796,0,0,-0.33513888,127.34509,132.04787)">
      <path
         d="m 0,0 c -0.084,-0.406 -0.07,-0.615 0.085,-0.833 l -0.526,-0.344 c -0.168,0.176 -0.258,0.379 -0.238,0.695 -0.391,-0.45 -0.827,-0.667 -1.254,-0.667 -0.482,0 -0.77,0.225 -0.77,0.708 0,0.161 0.021,0.357 0.055,0.526 l 0.505,2.352 0.658,0.12 -0.49,-2.332 c -0.042,-0.19 -0.062,-0.351 -0.062,-0.463 0,-0.273 0.097,-0.377 0.314,-0.377 0.329,0 0.806,0.287 1.128,0.798 l 0.476,2.241 0.659,0.119"
         style="fill:#231f20;fill-opacity:1;fill-rule:nonzero;stroke:none"
         id="path2461" />
    </g>
    <g
       id="g2463"
       transform="matrix(0.32949796,0,0,-0.33513888,128.39223,131.42351)">
      <path
         d="m 0,0 c -0.071,0.029 -0.133,0.042 -0.239,0.042 -0.287,0 -0.608,-0.237 -0.931,-0.715 l -0.469,-2.226 h -0.638 l 0.505,2.367 c 0.105,0.504 0.112,0.742 0.035,0.987 l 0.602,0.267 c 0.078,-0.19 0.105,-0.448 0.042,-0.771 0.329,0.463 0.764,0.75 1.093,0.75 0.132,0 0.196,-0.014 0.281,-0.042"
         style="fill:#231f20;fill-opacity:1;fill-rule:nonzero;stroke:none"
         id="path2465" />
    </g>
    <g
       id="g2467"
       transform="matrix(0.32949796,0,0,-0.33513888,129.02421,131.35313)">
      <path
         d="m 0,0 c -0.42,0 -0.827,-0.391 -1.002,-1.085 0.078,-0.007 0.224,-0.014 0.336,-0.014 0.54,0 0.82,0.077 0.995,0.252 0.105,0.105 0.169,0.231 0.169,0.392 C 0.498,-0.202 0.364,0 0,0 Z m 0.827,-1.162 c -0.295,-0.28 -0.757,-0.421 -1.5,-0.421 -0.161,0 -0.322,0.022 -0.434,0.022 -0.028,-0.119 -0.049,-0.287 -0.049,-0.407 0,-0.469 0.294,-0.708 0.673,-0.708 0.405,0 0.686,0.114 1.015,0.393 l 0.231,-0.399 c -0.379,-0.35 -0.77,-0.511 -1.422,-0.511 -0.7,0 -1.198,0.462 -1.198,1.274 0,0.694 0.287,1.45 0.778,1.927 0.351,0.335 0.735,0.489 1.17,0.489 0.672,0 1.057,-0.335 1.057,-0.924 0,-0.287 -0.119,-0.546 -0.321,-0.735"
         style="fill:#231f20;fill-opacity:1;fill-rule:nonzero;stroke:none"
         id="path2469" />
    </g>
    <g
       id="g2471"
       transform="matrix(0.32949796,0,0,-0.33513888,130.06674,131.70301)">
      <path
         d="m 0,0 c -0.246,-1.162 -0.631,-1.889 -1.198,-2.436 -0.343,-0.329 -0.764,-0.589 -1.156,-0.729 l -0.104,0.406 c 0.573,0.315 0.888,0.575 1.147,0.966 0.267,0.407 0.484,1.003 0.645,1.78 0.105,0.503 0.189,1.044 0.189,1.47 0,0.715 -0.182,1.22 -0.721,1.57 l 0.239,0.336 C -0.281,3.04 0.154,2.368 0.154,1.402 0.154,0.953 0.084,0.414 0,0"
         style="fill:#231f20;fill-opacity:1;fill-rule:nonzero;stroke:none"
         id="path2473" />
    </g>
    <g
       id="g2691"
       transform="matrix(0.32949796,0,0,-0.33513888,109.66258,119.23417)">
      <path
         d="m 0,0 v -2.233 c 0,0 -1.809,-3.468 -1.809,-5.572 0,-2.227 2.39,-2.733 2.39,-4.536 0,-1.804 -1.713,-3.085 -1.713,-5.19 0,-2.104 4.139,-3.397 4.139,-3.397 0,0 4.248,0.441 4.548,2.847 0.3,2.405 -2.07,3.598 -2.07,6.004 0,2.404 1.85,2.159 1.85,4.564 0,2.405 -1.923,3.777 -1.923,6.182 0,0.247 0,0.706 0,1.331"
         style="fill:none;stroke:#231f20;stroke-width:1;stroke-linecap:butt;stroke-linejoin:miter;stroke-miterlimit:4;stroke-dasharray:none;stroke-opacity:1"
         id="path2693" />
    </g>
    <g
       id="g2695"
       transform="matrix(0.32949796,0,0,-0.33513888,109.2975,125.16479)">
      <path
         d="m 0,0 c -0.471,-0.413 -1.429,-1.793 -1.429,-3.505 0,0 5.464,-0.887 11.07,-0.061 0,0 -0.138,2.562 -1.2,3.566 0,0 -2.775,-1.594 -4.426,-1.594 C 2.362,-1.594 0,0 0,0"
         style="fill:#ffffff;fill-opacity:1;fill-rule:nonzero;stroke:none"
         id="path2697" />
    </g>
    <g
       id="g2699"
       transform="matrix(0.32949796,0,0,-0.33513888,109.2975,125.16479)">
      <path
         d="m 0,0 c -0.471,-0.413 -1.429,-1.793 -1.429,-3.505 0,0 5.464,-0.887 11.07,-0.061 0,0 -0.138,2.562 -1.2,3.566 0,0 -2.775,-1.594 -4.426,-1.594 C 2.362,-1.594 0,0 0,0 Z"
         style="fill:none;stroke:#231f20;stroke-width:1;stroke-linecap:butt;stroke-linejoin:miter;stroke-miterlimit:4;stroke-dasharray:none;stroke-opacity:1"
         id="path2701" />
    </g>
    <g
       id="g2703"
       transform="matrix(0.32949796,0,0,-0.33513888,120.42793,119.22211)">
      <path
         d="m 0,0 v -2.234 c 0,0 -1.81,-3.468 -1.81,-5.572 0,-2.227 2.391,-2.732 2.391,-4.535 0,-1.804 -1.713,-3.086 -1.713,-5.191 0,-2.104 4.138,-3.397 4.138,-3.397 0,0 4.249,0.442 4.548,2.846 0.301,2.405 -2.069,3.6 -2.069,6.004 0,2.405 1.85,2.16 1.85,4.566 0,2.405 -1.924,3.776 -1.924,6.181 0,0.247 0,0.707 0,1.332"
         style="fill:none;stroke:#231f20;stroke-width:1;stroke-linecap:butt;stroke-linejoin:miter;stroke-miterlimit:4;stroke-dasharray:none;stroke-opacity:1"
         id="path2705" />
    </g>
    <g
       id="g2707"
       transform="matrix(0.32949796,0,0,-0.33513888,120.06285,125.15306)">
      <path
         d="m 0,0 c -0.471,-0.413 -1.43,-1.793 -1.43,-3.505 0,0 5.464,-0.887 11.071,-0.061 0,0 -0.139,2.562 -1.201,3.566 0,0 -2.774,-1.594 -4.426,-1.594 C 2.362,-1.594 0,0 0,0"
         style="fill:#ffffff;fill-opacity:1;fill-rule:nonzero;stroke:none"
         id="path2709" />
    </g>
    <g
       id="g2711"
       transform="matrix(0.32949796,0,0,-0.33513888,120.06285,125.15306)">
      <path
         d="m 0,0 c -0.471,-0.413 -1.43,-1.793 -1.43,-3.505 0,0 5.464,-0.887 11.071,-0.061 0,0 -0.139,2.562 -1.201,3.566 0,0 -2.774,-1.594 -4.426,-1.594 C 2.362,-1.594 0,0 0,0 Z"
         style="fill:none;stroke:#231f20;stroke-width:1;stroke-linecap:butt;stroke-linejoin:miter;stroke-miterlimit:4;stroke-dasharray:none;stroke-opacity:1"
         id="path2713" />
    </g>
    <g
       id="g2715"
       transform="matrix(0.32949796,0,0,-0.33513888,111.44582,119.23417)">
      <path
         d="m 0,0 c 0,5.458 0,16.455 0,16.455 l 0.332,0.683 c 0.92,2.041 4.091,8.29 4.091,11.422 0,3.75 -2.625,9.5 -2.625,11.625 0,2.125 7.875,16.5 7.875,16.5"
         style="fill:none;stroke:#231f20;stroke-width:1;stroke-linecap:butt;stroke-linejoin:miter;stroke-miterlimit:4;stroke-dasharray:none;stroke-opacity:1"
         id="path2717" />
    </g>
    <g
       id="g2719"
       transform="matrix(0.32949796,0,0,-0.33513888,107.30173,98.896269)">
      <path
         d="m 0,0 c 2,-6 6.875,-18 6.875,-20.375 0,-2.316 -8.746,-10.603 0.095,-23.067 l 0.195,-0.683 v -16.56"
         style="fill:none;stroke:#231f20;stroke-width:1;stroke-linecap:butt;stroke-linejoin:miter;stroke-miterlimit:4;stroke-dasharray:none;stroke-opacity:1"
         id="path2721" />
    </g>
    <g
       id="g2723"
       transform="matrix(0.32949796,0,0,-0.33513888,122.20755,119.23417)">
      <path
         d="m 0,0 v 16.298 l 0.205,0.945 c 8.913,12.499 0.182,20.748 0.182,23.067 0,2.375 4.875,14.375 6.875,20.375"
         style="fill:none;stroke:#231f20;stroke-width:1;stroke-linecap:butt;stroke-linejoin:miter;stroke-miterlimit:4;stroke-dasharray:none;stroke-opacity:1"
         id="path2725" />
    </g>
    <g
       id="g2727"
       transform="matrix(0.32949796,0,0,-0.33513888,117.26904,100.23682)">
      <path
         d="m 0,0 c 0,0 7.875,-14.375 7.875,-16.5 0,-2.125 -2.625,-7.875 -2.625,-11.625 0,-3.077 3.09,-9.165 4.056,-11.317 l 0.271,-0.893 c 0,0 0,-10.892 0,-16.35"
         style="fill:none;stroke:#231f20;stroke-width:1;stroke-linecap:butt;stroke-linejoin:miter;stroke-miterlimit:4;stroke-dasharray:none;stroke-opacity:1"
         id="path2729" />
    </g>
  </g>
</svg>
