<?xml version="1.0" encoding="UTF-8" standalone="no"?>
<svg
   xmlns:dc="http://purl.org/dc/elements/1.1/"
   xmlns:cc="http://creativecommons.org/ns#"
   xmlns:rdf="http://www.w3.org/1999/02/22-rdf-syntax-ns#"
   xmlns:svg="http://www.w3.org/2000/svg"
   xmlns="http://www.w3.org/2000/svg"
   width="34.761181mm"
   height="41.335201mm"
   viewBox="0 0 34.761181 41.335201"
   version="1.1"
   id="svg5299">
  <defs
     id="defs5293">
    <clipPath
       clipPathUnits="userSpaceOnUse"
       id="clipPath981">
      <path
         d="M 42.396,382.682 H 418.09 V 164.033 H 42.396"
         id="path979" />
    </clipPath>
  </defs>
  <metadata
     id="metadata5296">
    <rdf:RDF>
      <cc:Work
         rdf:about="">
        <dc:format>image/svg+xml</dc:format>
        <dc:type
           rdf:resource="http://purl.org/dc/dcmitype/StillImage" />
        <dc:title></dc:title>
      </cc:Work>
    </rdf:RDF>
  </metadata>
  <g
     id="g9652"
     transform="translate(-16.001662,-88.446798)">
    <g
       id="g1659"
       transform="matrix(0.32949796,0,0,-0.33513888,23.341756,103.0158)">
      <path
         d="M 0,0 H 56.326"
         style="fill:none;stroke:#918f90;stroke-width:0.5;stroke-linecap:butt;stroke-linejoin:miter;stroke-miterlimit:4;stroke-dasharray:2, 2, 2, 2, 2, 2;stroke-dashoffset:0;stroke-opacity:1"
         id="path1661" />
    </g>
    <g
       id="g1663"
       transform="matrix(0.32949796,0,0,-0.33513888,23.341756,106.209)">
      <path
         d="M 0,0 H 56.326"
         style="fill:none;stroke:#918f90;stroke-width:0.5;stroke-linecap:butt;stroke-linejoin:miter;stroke-miterlimit:4;stroke-dasharray:2, 2, 2, 2, 2, 2;stroke-dashoffset:0;stroke-opacity:1"
         id="path1665" />
    </g>
    <g
       id="g9561">
      <g
         id="g1063"
         transform="matrix(0.32949796,0,0,-0.33513888,43.199215,105.22369)">
        <path
           d="m 0,0 h -2.75 v 5.509 h 0.783 V 0.64 h 2.095"
           style="fill:#231f20;fill-opacity:1;fill-rule:nonzero;stroke:none"
           id="path1065" />
      </g>
      <g
         id="g1067"
         transform="matrix(0.32949796,0,0,-0.33513888,44.069419,104.11974)">
        <path
           d="m 0,0 c -0.127,0.16 -0.319,0.28 -0.575,0.28 -0.56,0 -0.84,-0.456 -0.84,-1.183 H 0.248 C 0.248,-0.52 0.161,-0.2 0,0 Z m -1.422,-1.447 v -0.096 c 0,-0.344 0.047,-0.607 0.167,-0.8 0.208,-0.319 0.536,-0.472 0.92,-0.472 0.375,0 0.695,0.128 0.983,0.384 l 0.28,-0.439 c -0.392,-0.344 -0.864,-0.512 -1.383,-0.512 -1.111,0 -1.791,0.808 -1.791,2.118 0,0.697 0.136,1.145 0.479,1.552 0.32,0.376 0.712,0.552 1.208,0.552 0.448,0 0.807,-0.145 1.087,-0.432 0.352,-0.359 0.48,-0.807 0.488,-1.726 0,-0.025 0,-0.08 0,-0.129"
           style="fill:#231f20;fill-opacity:1;fill-rule:nonzero;stroke:none"
           id="path1069" />
      </g>
      <g
         id="g1071"
         transform="matrix(0.32949796,0,0,-0.33513888,45.369289,103.50041)">
        <path
           d="m 0,0 c -0.176,0.087 -0.336,0.151 -0.52,0.151 -0.336,0 -0.536,-0.232 -0.536,-0.64 v -0.647 h 1.064 l -0.192,-0.52 h -0.864 v -3.486 h -0.743 v 3.486 h -0.384 v 0.52 h 0.392 c -0.017,0.08 -0.017,0.575 -0.017,0.64 0,0.542 0.232,0.847 0.448,1 0.192,0.134 0.432,0.191 0.728,0.191 0.328,0 0.624,-0.065 0.871,-0.216"
           style="fill:#231f20;fill-opacity:1;fill-rule:nonzero;stroke:none"
           id="path1073" />
      </g>
      <g
         id="g1075"
         transform="matrix(0.32949796,0,0,-0.33513888,46.052009,104.0554)">
        <path
           d="m 0,0 h -0.792 v -2.415 c 0,-0.495 0.12,-0.647 0.52,-0.647 0.136,0 0.248,0.023 0.376,0.08 L 0.191,-3.43 c -0.223,-0.113 -0.463,-0.167 -0.727,-0.167 -0.264,0 -0.552,0.079 -0.68,0.199 -0.168,0.151 -0.296,0.231 -0.296,0.815 V 0 h -0.479 v 0.52 h 0.479 c 0,0.311 0.009,0.72 0.049,1.023 l 0.759,0.176 C -0.736,1.432 -0.776,0.928 -0.776,0.52 H 0.2"
           style="fill:#231f20;fill-opacity:1;fill-rule:nonzero;stroke:none"
           id="path1077" />
      </g>
      <g
         id="g1079"
         transform="matrix(0.32949796,0,0,-0.33513888,42.722761,106.54347)">
        <path
           d="m 0,0 c -0.266,-0.407 -0.469,-1.001 -0.644,-1.779 -0.112,-0.505 -0.189,-1.044 -0.189,-1.464 0,-0.735 0.189,-1.225 0.721,-1.576 L -0.35,-5.176 c -0.679,0.322 -1.121,1.002 -1.121,1.962 0,0.448 0.071,0.965 0.161,1.4 0.246,1.17 0.624,1.898 1.198,2.438 0.343,0.322 0.763,0.588 1.149,0.728 L 1.149,0.966 C 0.567,0.652 0.252,0.393 0,0"
           style="fill:#231f20;fill-opacity:1;fill-rule:nonzero;stroke:none"
           id="path1081" />
      </g>
      <g
         id="g1083"
         transform="matrix(0.32949796,0,0,-0.33513888,44.155416,106.57162)">
        <path
           d="m 0,0 c -0.308,0.259 -0.616,0.35 -0.987,0.35 -0.414,0 -0.792,-0.168 -1.079,-0.483 -0.476,-0.519 -0.749,-1.548 -0.749,-2.235 0,-0.756 0.441,-1.148 1.099,-1.148 0.281,0 0.526,0.056 0.743,0.169 l 0.294,1.372 h -0.904 v 0.56 h 1.681 l -0.483,-2.269 c -0.427,-0.245 -0.987,-0.378 -1.499,-0.378 -1.065,0 -1.674,0.729 -1.674,1.709 0,0.98 0.393,1.981 1.03,2.592 0.49,0.469 0.995,0.657 1.646,0.657 0.518,0 0.938,-0.16 1.253,-0.482"
           style="fill:#231f20;fill-opacity:1;fill-rule:nonzero;stroke:none"
           id="path1085" />
      </g>
      <g
         id="g1087"
         transform="matrix(0.32949796,0,0,-0.33513888,45.058901,106.86955)">
        <path
           d="M 0,0 C -0.378,0 -0.637,-0.119 -0.924,-0.455 -1.26,-0.855 -1.4,-1.534 -1.4,-2.038 c 0,-0.428 0.154,-0.589 0.448,-0.589 0.35,0 0.742,0.336 0.952,0.77 l 0.379,1.773 C 0.287,-0.035 0.147,0 0,0 Z M 0.911,-0.533 0.61,-1.947 C 0.498,-2.466 0.561,-2.634 0.736,-2.817 L 0.211,-3.215 c -0.196,0.189 -0.274,0.386 -0.259,0.68 -0.246,-0.386 -0.645,-0.623 -1.149,-0.623 -0.483,0 -0.869,0.349 -0.869,1.112 0,0.729 0.273,1.52 0.736,1.982 0.371,0.372 0.847,0.581 1.401,0.581 0.385,0 0.756,-0.089 1.036,-0.28 C 1.051,0.056 0.96,-0.287 0.911,-0.533"
           style="fill:#231f20;fill-opacity:1;fill-rule:nonzero;stroke:none"
           id="path1089" />
      </g>
      <g
         id="g1091"
         transform="matrix(0.32949796,0,0,-0.33513888,46.484638,107.5576)">
        <path
           d="m 0,0 c -0.084,-0.405 -0.07,-0.615 0.084,-0.833 l -0.525,-0.344 c -0.168,0.176 -0.26,0.379 -0.239,0.695 -0.392,-0.449 -0.826,-0.666 -1.253,-0.666 -0.483,0 -0.771,0.224 -0.771,0.707 0,0.162 0.021,0.357 0.057,0.525 l 0.503,2.354 0.659,0.119 -0.49,-2.332 c -0.042,-0.189 -0.063,-0.351 -0.063,-0.463 0,-0.273 0.098,-0.377 0.315,-0.377 0.329,0 0.806,0.287 1.127,0.798 l 0.477,2.241 0.658,0.119"
           style="fill:#231f20;fill-opacity:1;fill-rule:nonzero;stroke:none"
           id="path1093" />
      </g>
      <g
         id="g1095"
         transform="matrix(0.32949796,0,0,-0.33513888,47.628654,106.9634)">
        <path
           d="m 0,0 c -0.203,0.182 -0.435,0.252 -0.666,0.252 -0.245,0 -0.504,-0.126 -0.665,-0.343 -0.245,-0.322 -0.491,-1.051 -0.491,-1.598 0,-0.462 0.204,-0.699 0.603,-0.699 0.273,0 0.56,0.14 0.819,0.371 l 0.245,-0.407 c -0.392,-0.322 -0.742,-0.469 -1.197,-0.469 -0.785,0 -1.17,0.427 -1.17,1.197 0,0.82 0.434,1.689 0.904,2.088 0.322,0.273 0.672,0.405 1.078,0.405 0.343,0 0.638,-0.104 0.869,-0.329"
           style="fill:#231f20;fill-opacity:1;fill-rule:nonzero;stroke:none"
           id="path1097" />
      </g>
      <g
         id="g1099"
         transform="matrix(0.32949796,0,0,-0.33513888,48.848786,107.06662)">
        <path
           d="m 0,0 -0.532,-2.501 h -0.631 l 0.497,2.367 c 0.029,0.126 0.05,0.252 0.05,0.329 0,0.232 -0.141,0.343 -0.358,0.343 -0.308,0 -0.791,-0.301 -1.148,-0.742 l -0.49,-2.297 h -0.645 l 0.827,3.873 c 0.105,0.483 0.111,0.827 0.042,1.058 l 0.679,0.245 C -1.632,2.416 -1.667,1.933 -1.772,1.435 L -1.863,1.008 C -1.891,0.882 -1.975,0.567 -2.024,0.413 c 0.378,0.469 0.903,0.679 1.324,0.679 0.483,0 0.763,-0.28 0.763,-0.665 C 0.063,0.321 0.035,0.175 0,0"
           style="fill:#231f20;fill-opacity:1;fill-rule:nonzero;stroke:none"
           id="path1101" />
      </g>
      <g
         id="g1103"
         transform="matrix(0.32949796,0,0,-0.33513888,49.669565,106.86286)">
        <path
           d="m 0,0 c -0.42,0 -0.826,-0.391 -1.001,-1.085 0.077,-0.006 0.224,-0.014 0.336,-0.014 0.539,0 0.819,0.077 0.994,0.253 0.105,0.104 0.169,0.23 0.169,0.391 C 0.498,-0.203 0.364,0 0,0 Z m 0.827,-1.162 c -0.295,-0.28 -0.757,-0.421 -1.499,-0.421 -0.161,0 -0.323,0.022 -0.434,0.022 -0.029,-0.119 -0.05,-0.287 -0.05,-0.406 0,-0.47 0.295,-0.707 0.673,-0.707 0.406,0 0.686,0.112 1.015,0.391 l 0.232,-0.399 c -0.379,-0.35 -0.771,-0.511 -1.422,-0.511 -0.701,0 -1.198,0.462 -1.198,1.274 0,0.694 0.287,1.451 0.777,1.926 0.351,0.336 0.736,0.49 1.17,0.49 0.673,0 1.058,-0.335 1.058,-0.923 0,-0.287 -0.119,-0.547 -0.322,-0.736"
           style="fill:#231f20;fill-opacity:1;fill-rule:nonzero;stroke:none"
           id="path1105" />
      </g>
      <g
         id="g1107"
         transform="matrix(0.32949796,0,0,-0.33513888,50.712098,107.21274)">
        <path
           d="m 0,0 c -0.245,-1.162 -0.63,-1.889 -1.198,-2.436 -0.343,-0.329 -0.763,-0.589 -1.155,-0.729 l -0.105,0.407 c 0.574,0.315 0.889,0.574 1.148,0.965 0.266,0.407 0.483,1.002 0.645,1.78 0.105,0.504 0.189,1.044 0.189,1.47 0,0.715 -0.183,1.219 -0.722,1.57 L -0.96,3.363 C -0.28,3.04 0.154,2.369 0.154,1.402 0.154,0.954 0.084,0.414 0,0"
           style="fill:#231f20;fill-opacity:1;fill-rule:nonzero;stroke:none"
           id="path1109" />
      </g>
      <g
         id="g1111"
         transform="matrix(0.32949796,0,0,-0.33513888,17.203242,103.63178)">
        <path
           d="m 0,0 c -0.16,0.063 -0.384,0.104 -0.671,0.104 h -0.576 v -1.919 h 0.536 c 0.487,0 0.759,0.08 0.951,0.263 0.168,0.16 0.272,0.424 0.272,0.744 C 0.512,-0.424 0.304,-0.12 0,0 Z m 0.656,-4.773 c -0.16,0.311 -0.232,0.439 -0.456,0.815 -0.424,0.703 -0.559,0.936 -0.951,1.375 -0.145,0.16 -0.264,0.24 -0.496,0.248 v -2.438 h -0.768 v 5.508 h 1.543 c 0.656,0 1.04,-0.152 1.304,-0.399 0.248,-0.232 0.487,-0.6 0.487,-1.136 0,-0.855 -0.551,-1.543 -1.471,-1.511 0.256,-0.208 0.384,-0.383 0.48,-0.511 0.112,-0.153 0.28,-0.392 0.464,-0.68 0.24,-0.376 0.687,-1.096 0.799,-1.271"
           style="fill:#231f20;fill-opacity:1;fill-rule:nonzero;stroke:none"
           id="path1113" />
      </g>
      <g
         id="g1115"
         transform="matrix(0.32949796,0,0,-0.33513888,18.036641,105.2314)">
        <path
           d="m 0,0 v 3.981 l 0.76,0.12 V 0 Z m 0.376,4.71 c -0.288,0 -0.512,0.239 -0.512,0.527 0,0.296 0.232,0.535 0.52,0.535 0.288,0 0.528,-0.231 0.528,-0.535 0,-0.288 -0.24,-0.527 -0.536,-0.527"
           style="fill:#231f20;fill-opacity:1;fill-rule:nonzero;stroke:none"
           id="path1117" />
      </g>
      <g
         id="g1119"
         transform="matrix(0.32949796,0,0,-0.33513888,19.154035,104.04434)">
        <path
           d="m 0,0 c -0.472,0 -0.728,-0.256 -0.728,-0.768 0,-0.496 0.265,-0.744 0.736,-0.744 0.48,0 0.728,0.264 0.728,0.76 C 0.736,-0.241 0.504,0 0,0 Z m 1.607,-0.104 c -0.12,0 -0.151,0.008 -0.344,0.064 0.208,-0.264 0.288,-0.48 0.288,-0.736 0,-0.576 -0.391,-1.239 -1.439,-1.239 -0.248,-0.08 -0.632,-0.264 -0.632,-0.441 0,-0.119 0.096,-0.199 0.288,-0.199 h 0.616 c 1.023,0 1.447,-0.48 1.447,-1.103 0,-0.864 -0.711,-1.296 -1.687,-1.296 -1.119,0 -1.759,0.392 -1.759,1.056 0,0.167 0.032,0.288 0.072,0.408 l 0.72,0.04 c -0.032,-0.064 -0.073,-0.192 -0.073,-0.304 0,-0.416 0.344,-0.641 0.968,-0.641 0.656,0 0.984,0.265 0.984,0.689 0,0.384 -0.312,0.607 -1.104,0.607 -0.28,0 -0.599,0.025 -0.751,0.04 -0.352,0.04 -0.56,0.24 -0.56,0.536 0,0.376 0.328,0.536 0.783,0.704 -0.615,0.183 -0.943,0.599 -0.943,1.151 0,0.808 0.616,1.344 1.535,1.344 0.216,0 0.384,-0.017 0.624,-0.088 0.208,-0.065 0.423,-0.129 0.599,-0.129 0.24,0 0.44,0.08 0.656,0.232 L 2.271,0.135 C 2.047,-0.04 1.855,-0.104 1.607,-0.104"
           style="fill:#231f20;fill-opacity:1;fill-rule:nonzero;stroke:none"
           id="path1121" />
      </g>
      <g
         id="g1123"
         transform="matrix(0.32949796,0,0,-0.33513888,20.883075,105.2314)">
        <path
           d="m 0,0 v 2.751 c 0,0.279 -0.056,0.47 -0.136,0.558 -0.072,0.08 -0.248,0.152 -0.44,0.152 -0.343,0 -0.751,-0.223 -1.063,-0.584 V 0 h -0.744 v 4.869 c 0,0.343 -0.032,0.607 -0.088,0.84 L -1.727,5.86 C -1.671,5.621 -1.639,5.325 -1.639,4.932 V 4.038 c 0,-0.145 -0.008,-0.328 -0.024,-0.536 0.176,0.16 0.264,0.224 0.424,0.328 0.296,0.192 0.575,0.271 0.871,0.271 C 0.104,4.101 0.52,3.862 0.64,3.502 0.704,3.318 0.72,3.213 0.72,2.854 V 0"
           style="fill:#231f20;fill-opacity:1;fill-rule:nonzero;stroke:none"
           id="path1125" />
      </g>
      <g
         id="g1127"
         transform="matrix(0.32949796,0,0,-0.33513888,22.040338,104.06311)">
        <path
           d="m 0,0 h -0.792 v -2.415 c 0,-0.495 0.121,-0.648 0.52,-0.648 0.136,0 0.248,0.024 0.376,0.08 l 0.088,-0.448 c -0.224,-0.112 -0.464,-0.167 -0.728,-0.167 -0.263,0 -0.551,0.079 -0.679,0.199 -0.168,0.152 -0.296,0.232 -0.296,0.816 V 0 h -0.48 v 0.519 h 0.48 c 0,0.312 0.008,0.72 0.048,1.024 l 0.759,0.176 C -0.735,1.432 -0.775,0.928 -0.775,0.519 H 0.2"
           style="fill:#231f20;fill-opacity:1;fill-rule:nonzero;stroke:none"
           id="path1129" />
      </g>
      <g
         id="g1131"
         transform="matrix(0.32949796,0,0,-0.33513888,16.486353,106.55151)">
        <path
           d="m 0,0 c -0.266,-0.406 -0.469,-1.001 -0.645,-1.778 -0.112,-0.505 -0.188,-1.044 -0.188,-1.464 0,-0.735 0.188,-1.226 0.721,-1.576 l -0.239,-0.358 c -0.679,0.323 -1.12,1.002 -1.12,1.962 0,0.448 0.07,0.966 0.161,1.401 0.245,1.17 0.623,1.898 1.198,2.437 0.343,0.322 0.763,0.589 1.148,0.729 L 1.148,0.967 C 0.567,0.652 0.252,0.394 0,0"
           style="fill:#231f20;fill-opacity:1;fill-rule:nonzero;stroke:none"
           id="path1133" />
      </g>
      <g
         id="g1135"
         transform="matrix(0.32949796,0,0,-0.33513888,17.713601,106.61251)">
        <path
           d="m 0,0 c -0.203,0.323 -0.469,0.393 -0.932,0.393 h -0.546 l -0.784,-3.712 h 0.504 c 0.588,0 1.009,0.168 1.26,0.497 0.47,0.61 0.673,1.506 0.673,1.968 C 0.175,-0.469 0.126,-0.203 0,0 Z m -0.07,-3.263 c -0.47,-0.441 -0.953,-0.616 -1.765,-0.616 h -1.233 l 1.023,4.818 h 1.057 c 0.735,0 1.1,-0.084 1.443,-0.399 0.301,-0.273 0.448,-0.701 0.448,-1.344 0,-0.82 -0.42,-1.934 -0.973,-2.459"
           style="fill:#231f20;fill-opacity:1;fill-rule:nonzero;stroke:none"
           id="path1137" />
      </g>
      <g
         id="g1139"
         transform="matrix(0.32949796,0,0,-0.33513888,18.880518,106.94094)">
        <path
           d="m 0,0 c -0.07,0.028 -0.133,0.042 -0.238,0.042 -0.287,0 -0.61,-0.237 -0.932,-0.715 l -0.469,-2.226 h -0.637 l 0.504,2.367 c 0.105,0.505 0.112,0.742 0.035,0.988 l 0.602,0.266 c 0.077,-0.19 0.105,-0.449 0.042,-0.771 0.329,0.463 0.763,0.75 1.093,0.75 0.133,0 0.196,-0.015 0.28,-0.043"
           style="fill:#231f20;fill-opacity:1;fill-rule:nonzero;stroke:none"
           id="path1141" />
      </g>
      <g
         id="g1143"
         transform="matrix(0.32949796,0,0,-0.33513888,19.510057,106.87526)">
        <path
           d="m 0,0 c -0.743,0 -1.163,-0.987 -1.163,-1.968 0,-0.497 0.231,-0.701 0.623,-0.701 0.757,0 1.156,0.995 1.156,1.976 C 0.616,-0.181 0.343,0 0,0 Z m -0.659,-3.179 c -0.77,0 -1.204,0.461 -1.204,1.26 0,1.373 0.833,2.43 1.975,2.43 0.805,0 1.212,-0.49 1.212,-1.253 0,-1.331 -0.771,-2.437 -1.983,-2.437"
           style="fill:#231f20;fill-opacity:1;fill-rule:nonzero;stroke:none"
           id="path1145" />
      </g>
      <g
         id="g1147"
         transform="matrix(0.32949796,0,0,-0.33513888,20.554698,106.5371)">
        <path
           d="m 0,0 c -0.259,0 -0.469,0.202 -0.469,0.462 0,0.26 0.21,0.469 0.469,0.469 0.259,0 0.462,-0.209 0.462,-0.469 C 0.462,0.202 0.259,0 0,0 Z m -0.644,-4.104 h -0.672 l 0.742,3.488 0.693,0.104"
           style="fill:#231f20;fill-opacity:1;fill-rule:nonzero;stroke:none"
           id="path1149" />
      </g>
      <g
         id="g1151"
         transform="matrix(0.32949796,0,0,-0.33513888,21.382792,106.89402)">
        <path
           d="m 0,0 h -0.721 l -0.421,-1.982 c -0.027,-0.147 -0.048,-0.265 -0.048,-0.364 0,-0.238 0.105,-0.322 0.343,-0.322 0.14,0 0.252,0.028 0.364,0.07 v -0.399 c -0.217,-0.099 -0.441,-0.147 -0.686,-0.147 -0.442,0 -0.673,0.217 -0.673,0.581 0,0.168 0.014,0.308 0.049,0.497 L -1.358,0 h -0.428 l 0.091,0.477 h 0.435 c 0.07,0.293 0.154,0.602 0.237,0.868 L -0.322,1.5 C -0.42,1.225 -0.546,0.792 -0.609,0.477 h 0.854"
           style="fill:#231f20;fill-opacity:1;fill-rule:nonzero;stroke:none"
           id="path1153" />
      </g>
      <g
         id="g1155"
         transform="matrix(0.32949796,0,0,-0.33513888,21.984851,107.22045)">
        <path
           d="m 0,0 c -0.245,-1.162 -0.63,-1.89 -1.198,-2.437 -0.343,-0.329 -0.763,-0.588 -1.156,-0.728 l -0.104,0.406 c 0.574,0.316 0.889,0.574 1.148,0.966 0.266,0.406 0.483,1.002 0.644,1.779 0.105,0.504 0.189,1.044 0.189,1.471 0,0.715 -0.182,1.219 -0.721,1.569 L -0.96,3.362 C -0.28,3.04 0.154,2.368 0.154,1.401 0.154,0.953 0.084,0.414 0,0"
           style="fill:#231f20;fill-opacity:1;fill-rule:nonzero;stroke:none"
           id="path1157" />
      </g>
      <g
         id="g1591"
         transform="matrix(0.32949796,0,0,-0.33513888,24.736323,103.19912)">
        <path
           d="m 0,0 c 1.399,-0.467 4.898,-3.267 4.898,-7.698 0,0 -2.099,-1.167 -3.265,-0.934"
           style="fill:none;stroke:#231f20;stroke-width:1;stroke-linecap:butt;stroke-linejoin:miter;stroke-miterlimit:4;stroke-dasharray:none;stroke-opacity:1"
           id="path1593" />
      </g>
      <g
         id="g1595"
         transform="matrix(0.32949796,0,0,-0.33513888,28.348906,124.93421)">
        <path
           d="M 0,0 C 0,2.567 1.166,11.198 5.599,6.766"
           style="fill:none;stroke:#231f20;stroke-width:0.5;stroke-linecap:butt;stroke-linejoin:miter;stroke-miterlimit:4;stroke-dasharray:none;stroke-opacity:1"
           id="path1597" />
      </g>
      <g
         id="g1599"
         transform="matrix(0.32949796,0,0,-0.33513888,29.271433,126.10687)">
        <path
           d="m 0,0 c 1.399,0.234 2.799,2.333 1.866,4.666 0,0 0,2.566 0,4.666 0,2.099 -4.199,1.4 -4.432,-6.532"
           style="fill:none;stroke:#231f20;stroke-width:0.5;stroke-linecap:butt;stroke-linejoin:miter;stroke-miterlimit:4;stroke-dasharray:none;stroke-opacity:1"
           id="path1601" />
      </g>
      <g
         id="g1603"
         transform="matrix(0.32949796,0,0,-0.33513888,29.117625,92.488075)">
        <path
           d="M 0,0 C 0.7,-1.866 -1.167,-6.299 -2.566,-9.098"
           style="fill:none;stroke:#231f20;stroke-width:0.5;stroke-linecap:butt;stroke-linejoin:miter;stroke-miterlimit:4;stroke-dasharray:none;stroke-opacity:1"
           id="path1605" />
      </g>
      <g
         id="g1607"
         transform="matrix(0.32949796,0,0,-0.33513888,29.886342,106.71741)">
        <path
           d="M 0,0 C 1.399,-2.566 6.765,-20.296 5.132,-37.559"
           style="fill:none;stroke:#231f20;stroke-width:0.5;stroke-linecap:butt;stroke-linejoin:miter;stroke-miterlimit:4;stroke-dasharray:6, 2, 12, 6, 12, 6, 2, 12, 6, 12;stroke-dashoffset:0;stroke-opacity:1"
           id="path1609" />
      </g>
      <g
         id="g1611"
         transform="matrix(0.32949796,0,0,-0.33513888,27.652907,113.50363)">
        <path
           d="M 0,0 C 0.849,-0.707 2.969,-2.686 3.817,-3.676"
           style="fill:none;stroke:#231f20;stroke-width:0.5;stroke-linecap:butt;stroke-linejoin:miter;stroke-miterlimit:4;stroke-dasharray:6, 2, 12, 6, 12, 6, 2, 12, 6, 12;stroke-dashoffset:0;stroke-opacity:1"
           id="path1613" />
      </g>
      <g
         id="g1615"
         transform="matrix(0.32949796,0,0,-0.33513888,29.423004,117.19887)">
        <path
           d="M 0,0 C -0.424,-0.706 -1.696,-3.676 -1.838,-4.382"
           style="fill:none;stroke:#231f20;stroke-width:0.5;stroke-linecap:butt;stroke-linejoin:miter;stroke-miterlimit:4;stroke-dasharray:6, 2, 12, 6, 12, 6, 2, 12, 6, 12;stroke-dashoffset:0;stroke-opacity:1"
           id="path1617" />
      </g>
      <g
         id="g1619"
         transform="matrix(0.32949796,0,0,-0.33513888,31.751993,120.98896)">
        <path
           d="M 0,0 C -0.707,-0.424 -0.99,-2.121 -1.838,-3.252"
           style="fill:none;stroke:#231f20;stroke-width:0.5;stroke-linecap:butt;stroke-linejoin:miter;stroke-miterlimit:4;stroke-dasharray:6, 2, 12, 6, 12, 6, 2, 12, 6, 12;stroke-dashoffset:0;stroke-opacity:1"
           id="path1621" />
      </g>
      <g
         id="g1623"
         transform="matrix(0.32949796,0,0,-0.33513888,32.743387,93.81724)">
        <path
           d="m 0,0 c 1.633,0 6.065,-0.233 6.298,-4.199 2.8,8.865 6.765,9.332 10.264,19.363 0,0 3.5,-3.033 4.2,-6.299 0.7,-3.266 -0.933,-16.563 -2.799,-19.129 -1.866,-2.566 3.032,-3.966 5.365,-15.164 2.137,-10.259 -1.399,-8.865 -1.399,-12.364 0,-3.499 2.799,-13.064 -7.233,-20.996 0,0 -0.466,-9.098 -3.732,-14.696 0,0 3.266,-15.397 1.866,-19.13 -1.399,-3.733 -5.132,-5.599 -5.832,-7.932 -0.7,-2.333 -5.832,-2.566 -6.766,-2.566 h -1.205 c -0.932,0 -6.065,0.233 -6.765,2.566 -0.701,2.333 -4.432,4.199 -5.832,7.932 -1.4,3.733 1.866,19.13 1.866,19.13 -3.266,5.598 -3.733,14.696 -3.733,14.696 -10.031,7.932 -7.231,17.497 -7.231,20.996 0,3.499 -3.537,2.105 -1.399,12.364 2.332,11.198 7.231,12.598 5.365,15.164 -1.866,2.566 -3.499,15.863 -2.8,19.129 0.7,3.266 4.199,6.299 4.199,6.299 C -13.804,5.133 -9.838,4.666 -7.038,-4.199 -6.805,-0.233 -2.372,0 -0.739,0 Z"
           style="fill:none;stroke:#231f20;stroke-width:1;stroke-linecap:butt;stroke-linejoin:miter;stroke-miterlimit:4;stroke-dasharray:none;stroke-opacity:1"
           id="path1625" />
      </g>
      <g
         id="g1627"
         transform="matrix(0.32949796,0,0,-0.33513888,40.506854,103.19912)">
        <path
           d="m 0,0 c -1.399,-0.467 -4.899,-3.267 -4.899,-7.698 0,0 2.099,-1.167 3.266,-0.934"
           style="fill:none;stroke:#231f20;stroke-width:1;stroke-linecap:butt;stroke-linejoin:miter;stroke-miterlimit:4;stroke-dasharray:none;stroke-opacity:1"
           id="path1629" />
      </g>
      <g
         id="g1631"
         transform="matrix(0.32949796,0,0,-0.33513888,36.893976,124.93421)">
        <path
           d="M 0,0 C 0,2.567 -1.166,11.198 -5.599,6.766"
           style="fill:none;stroke:#231f20;stroke-width:0.5;stroke-linecap:butt;stroke-linejoin:miter;stroke-miterlimit:4;stroke-dasharray:none;stroke-opacity:1"
           id="path1633" />
      </g>
      <g
         id="g1635"
         transform="matrix(0.32949796,0,0,-0.33513888,35.971776,126.10687)">
        <path
           d="m 0,0 c -1.4,0.234 -2.8,2.333 -1.866,4.666 0,0 0,2.566 0,4.666 0,2.099 4.198,1.4 4.431,-6.532"
           style="fill:none;stroke:#231f20;stroke-width:0.5;stroke-linecap:butt;stroke-linejoin:miter;stroke-miterlimit:4;stroke-dasharray:none;stroke-opacity:1"
           id="path1637" />
      </g>
      <g
         id="g1639"
         transform="matrix(0.32949796,0,0,-0.33513888,36.125256,92.488075)">
        <path
           d="M 0,0 C -0.699,-1.866 1.167,-6.299 2.566,-9.098"
           style="fill:none;stroke:#231f20;stroke-width:0.5;stroke-linecap:butt;stroke-linejoin:miter;stroke-miterlimit:4;stroke-dasharray:none;stroke-opacity:1"
           id="path1641" />
      </g>
      <g
         id="g1643"
         transform="matrix(0.32949796,0,0,-0.33513888,35.356867,106.71741)">
        <path
           d="M 0,0 C -1.4,-2.566 -6.766,-20.296 -5.133,-37.559"
           style="fill:none;stroke:#231f20;stroke-width:0.5;stroke-linecap:butt;stroke-linejoin:miter;stroke-miterlimit:4;stroke-dasharray:6, 2, 12, 6, 12, 6, 2, 12, 6, 12;stroke-dashoffset:0;stroke-opacity:1"
           id="path1645" />
      </g>
      <g
         id="g1647"
         transform="matrix(0.32949796,0,0,-0.33513888,37.589971,113.50363)">
        <path
           d="M 0,0 C -0.848,-0.707 -2.969,-2.686 -3.816,-3.676"
           style="fill:none;stroke:#231f20;stroke-width:0.5;stroke-linecap:butt;stroke-linejoin:miter;stroke-miterlimit:4;stroke-dasharray:6, 2, 12, 6, 12, 6, 2, 12, 6, 12;stroke-dashoffset:0;stroke-opacity:1"
           id="path1649" />
      </g>
      <g
         id="g1651"
         transform="matrix(0.32949796,0,0,-0.33513888,35.820205,117.19887)">
        <path
           d="M 0,0 C 0.424,-0.706 1.695,-3.676 1.837,-4.382"
           style="fill:none;stroke:#231f20;stroke-width:0.5;stroke-linecap:butt;stroke-linejoin:miter;stroke-miterlimit:4;stroke-dasharray:6, 2, 12, 6, 12, 6, 2, 12, 6, 12;stroke-dashoffset:0;stroke-opacity:1"
           id="path1653" />
      </g>
      <g
         id="g1655"
         transform="matrix(0.32949796,0,0,-0.33513888,33.491216,120.98896)">
        <path
           d="M 0,0 C 0.707,-0.424 0.989,-2.121 1.838,-3.252"
           style="fill:none;stroke:#231f20;stroke-width:0.5;stroke-linecap:butt;stroke-linejoin:miter;stroke-miterlimit:4;stroke-dasharray:6, 2, 12, 6, 12, 6, 2, 12, 6, 12;stroke-dashoffset:0;stroke-opacity:1"
           id="path1657" />
      </g>
      <g
         id="g1667"
         transform="matrix(0.32949796,0,0,-0.33513888,32.621439,91.46423)">
        <path
           d="M 0,0 V -114.334"
           style="fill:none;stroke:#918f90;stroke-width:0.5;stroke-linecap:butt;stroke-linejoin:miter;stroke-miterlimit:4;stroke-dasharray:2, 2, 2, 2, 2, 2;stroke-dashoffset:0;stroke-opacity:1"
           id="path1669" />
      </g>
    </g>
  </g>
</svg>
