<?xml version="1.0" encoding="UTF-8" standalone="no"?>
<svg
   xmlns:dc="http://purl.org/dc/elements/1.1/"
   xmlns:cc="http://creativecommons.org/ns#"
   xmlns:rdf="http://www.w3.org/1999/02/22-rdf-syntax-ns#"
   xmlns:svg="http://www.w3.org/2000/svg"
   xmlns="http://www.w3.org/2000/svg"
   width="31.653549mm"
   height="62.371365mm"
   viewBox="0 0 31.653549 62.371365"
   version="1.1"
   id="svg5299">
  <defs
     id="defs5293">
    <clipPath
       clipPathUnits="userSpaceOnUse"
       id="clipPath981">
      <path
         d="M 42.396,382.682 H 418.09 V 164.033 H 42.396"
         id="path979" />
    </clipPath>
  </defs>
  <metadata
     id="metadata5296">
    <rdf:RDF>
      <cc:Work
         rdf:about="">
        <dc:format>image/svg+xml</dc:format>
        <dc:type
           rdf:resource="http://purl.org/dc/dcmitype/StillImage" />
        <dc:title></dc:title>
      </cc:Work>
    </rdf:RDF>
  </metadata>
  <g
     id="g9972"
     transform="translate(-66.121072,-70.424876)">
    <g
       id="g1395"
       transform="matrix(0.32949796,0,0,-0.33513888,71.763723,131.45602)">
      <path
         d="m 0,0 c -0.07,0.028 -0.133,0.042 -0.238,0.042 -0.287,0 -0.609,-0.238 -0.932,-0.715 L -1.639,-2.9 h -0.637 l 0.504,2.367 c 0.105,0.504 0.112,0.743 0.035,0.988 l 0.602,0.266 C -1.057,0.532 -1.03,0.273 -1.093,-0.049 -0.763,0.413 -0.329,0.7 0,0.7 0.133,0.7 0.197,0.686 0.281,0.659"
         style="fill:#231f20;fill-opacity:1;fill-rule:nonzero;stroke:none"
         id="path1397" />
    </g>
    <g
       id="g1399"
       transform="matrix(0.32949796,0,0,-0.33513888,72.3957,131.38563)">
      <path
         d="m 0,0 c -0.42,0 -0.826,-0.393 -1.002,-1.085 0.077,-0.008 0.224,-0.015 0.337,-0.015 0.539,0 0.819,0.077 0.994,0.253 0.105,0.104 0.168,0.23 0.168,0.391 C 0.497,-0.204 0.364,0 0,0 Z m 0.826,-1.163 c -0.294,-0.28 -0.756,-0.42 -1.499,-0.42 -0.161,0 -0.321,0.021 -0.434,0.021 -0.028,-0.119 -0.049,-0.287 -0.049,-0.406 0,-0.47 0.294,-0.708 0.673,-0.708 0.406,0 0.686,0.112 1.015,0.392 l 0.231,-0.398 c -0.378,-0.351 -0.77,-0.512 -1.421,-0.512 -0.701,0 -1.198,0.463 -1.198,1.275 0,0.693 0.287,1.45 0.777,1.925 0.351,0.337 0.735,0.492 1.17,0.492 0.672,0 1.058,-0.337 1.058,-0.925 0,-0.287 -0.119,-0.546 -0.323,-0.736"
         style="fill:#231f20;fill-opacity:1;fill-rule:nonzero;stroke:none"
         id="path1401" />
    </g>
    <g
       id="g1403"
       transform="matrix(0.32949796,0,0,-0.33513888,73.438232,131.73519)">
      <path
         d="m 0,0 c -0.245,-1.164 -0.631,-1.892 -1.198,-2.438 -0.343,-0.329 -0.764,-0.588 -1.156,-0.728 l -0.105,0.406 c 0.575,0.314 0.89,0.574 1.149,0.967 0.266,0.405 0.483,1.001 0.644,1.779 0.105,0.504 0.189,1.043 0.189,1.471 0,0.713 -0.182,1.217 -0.721,1.568 L -0.96,3.361 C -0.28,3.039 0.154,2.367 0.154,1.4 0.154,0.952 0.084,0.413 0,0"
         style="fill:#231f20;fill-opacity:1;fill-rule:nonzero;stroke:none"
         id="path1405" />
    </g>
    <g
       id="g35560">
      <g
         id="g1251"
         transform="matrix(0.32949796,0,0,-0.33513888,72.184492,88.3404)">
        <path
           d="m 0,0 c -0.245,-1.163 -0.63,-1.891 -1.198,-2.437 -0.343,-0.329 -0.763,-0.588 -1.155,-0.729 l -0.105,0.407 c 0.574,0.315 0.889,0.574 1.148,0.966 0.266,0.406 0.483,1.002 0.645,1.779 0.105,0.504 0.189,1.044 0.189,1.471 0,0.714 -0.183,1.219 -0.722,1.569 L -0.96,3.362 C -0.28,3.04 0.154,2.368 0.154,1.401 0.154,0.953 0.084,0.414 0,0"
           style="fill:#231f20;fill-opacity:1;fill-rule:nonzero;stroke:none"
           id="path1253" />
      </g>
      <g
         id="g2219"
         transform="matrix(0.32949796,0,0,-0.33513888,92.459159,101.90649)">
        <path
           d="m 0,0 c -0.16,0.065 -0.384,0.105 -0.672,0.105 h -0.575 v -1.919 h 0.535 c 0.488,0 0.76,0.08 0.952,0.264 0.167,0.16 0.272,0.423 0.272,0.743 C 0.512,-0.423 0.304,-0.12 0,0 Z m 0.656,-4.773 c -0.16,0.312 -0.232,0.44 -0.456,0.815 -0.424,0.705 -0.56,0.936 -0.952,1.376 -0.144,0.16 -0.263,0.241 -0.495,0.247 v -2.438 h -0.768 v 5.509 h 1.543 c 0.656,0 1.039,-0.152 1.304,-0.399 0.247,-0.232 0.487,-0.6 0.487,-1.136 0,-0.855 -0.552,-1.542 -1.471,-1.511 0.255,-0.208 0.383,-0.384 0.48,-0.512 0.112,-0.152 0.279,-0.391 0.463,-0.679 0.241,-0.376 0.688,-1.095 0.8,-1.272"
           style="fill:#231f20;fill-opacity:1;fill-rule:nonzero;stroke:none"
           id="path2221" />
      </g>
      <g
         id="g2223"
         transform="matrix(0.32949796,0,0,-0.33513888,93.292459,103.5061)">
        <path
           d="M 0,0 V 3.982 L 0.76,4.103 V 0 Z m 0.376,4.71 c -0.288,0 -0.512,0.239 -0.512,0.527 0,0.296 0.232,0.536 0.52,0.536 0.287,0 0.527,-0.232 0.527,-0.536 0,-0.288 -0.24,-0.527 -0.535,-0.527"
           style="fill:#231f20;fill-opacity:1;fill-rule:nonzero;stroke:none"
           id="path2225" />
      </g>
      <g
         id="g2227"
         transform="matrix(0.32949796,0,0,-0.33513888,94.409788,102.31904)">
        <path
           d="m 0,0 c -0.472,0 -0.728,-0.256 -0.728,-0.768 0,-0.495 0.265,-0.743 0.736,-0.743 0.48,0 0.728,0.264 0.728,0.76 C 0.736,-0.239 0.504,0 0,0 Z m 1.607,-0.104 c -0.12,0 -0.151,0.008 -0.344,0.065 0.208,-0.264 0.289,-0.48 0.289,-0.736 0,-0.576 -0.393,-1.24 -1.44,-1.24 -0.248,-0.079 -0.631,-0.263 -0.631,-0.439 0,-0.12 0.096,-0.2 0.287,-0.2 h 0.616 c 1.024,0 1.447,-0.48 1.447,-1.104 0,-0.863 -0.711,-1.295 -1.687,-1.295 -1.12,0 -1.758,0.392 -1.758,1.056 0,0.168 0.031,0.287 0.072,0.408 l 0.719,0.04 c -0.032,-0.064 -0.073,-0.192 -0.073,-0.305 0,-0.415 0.345,-0.639 0.968,-0.639 0.656,0 0.983,0.263 0.983,0.687 0,0.384 -0.311,0.609 -1.102,0.609 -0.28,0 -0.6,0.023 -0.752,0.039 -0.352,0.04 -0.561,0.24 -0.561,0.536 0,0.376 0.329,0.536 0.785,0.704 -0.617,0.184 -0.944,0.6 -0.944,1.15 0,0.808 0.615,1.344 1.535,1.344 C 0.232,0.576 0.4,0.561 0.64,0.488 0.848,0.424 1.063,0.36 1.239,0.36 c 0.24,0 0.44,0.08 0.656,0.232 L 2.271,0.137 C 2.048,-0.039 1.855,-0.104 1.607,-0.104"
           style="fill:#231f20;fill-opacity:1;fill-rule:nonzero;stroke:none"
           id="path2229" />
      </g>
      <g
         id="g2231"
         transform="matrix(0.32949796,0,0,-0.33513888,96.138995,103.5061)">
        <path
           d="m 0,0 v 2.751 c 0,0.279 -0.057,0.472 -0.136,0.56 -0.072,0.08 -0.248,0.151 -0.439,0.151 -0.345,0 -0.753,-0.223 -1.065,-0.583 V 0 h -0.743 v 4.869 c 0,0.345 -0.032,0.609 -0.088,0.841 l 0.743,0.151 C -1.671,5.622 -1.64,5.325 -1.64,4.934 V 4.038 c 0,-0.143 -0.008,-0.327 -0.023,-0.535 0.176,0.159 0.263,0.224 0.424,0.328 0.294,0.191 0.575,0.272 0.871,0.272 0.471,0 0.887,-0.241 1.007,-0.6 0.065,-0.184 0.08,-0.288 0.08,-0.649 V 0"
           style="fill:#231f20;fill-opacity:1;fill-rule:nonzero;stroke:none"
           id="path2233" />
      </g>
      <g
         id="g2235"
         transform="matrix(0.32949796,0,0,-0.33513888,97.296519,102.33781)">
        <path
           d="m 0,0 h -0.792 v -2.415 c 0,-0.495 0.12,-0.647 0.519,-0.647 0.136,0 0.248,0.024 0.376,0.08 l 0.088,-0.447 c -0.224,-0.113 -0.464,-0.168 -0.728,-0.168 -0.263,0 -0.551,0.08 -0.679,0.2 -0.168,0.151 -0.296,0.231 -0.296,0.814 V 0 h -0.48 v 0.521 h 0.48 c 0,0.311 0.008,0.719 0.048,1.023 L -0.705,1.72 C -0.737,1.432 -0.776,0.928 -0.776,0.521 h 0.975"
           style="fill:#231f20;fill-opacity:1;fill-rule:nonzero;stroke:none"
           id="path2237" />
      </g>
      <g
         id="g2239"
         transform="matrix(0.32949796,0,0,-0.33513888,92.225218,104.82588)">
        <path
           d="m 0,0 c -0.267,-0.406 -0.47,-1 -0.645,-1.779 -0.112,-0.504 -0.189,-1.043 -0.189,-1.464 0,-0.734 0.189,-1.224 0.722,-1.575 l -0.239,-0.357 c -0.678,0.322 -1.12,1.002 -1.12,1.962 0,0.447 0.07,0.965 0.16,1.4 0.246,1.17 0.624,1.897 1.199,2.438 C 0.23,0.946 0.65,1.212 1.036,1.353 L 1.148,0.967 C 0.566,0.652 0.252,0.393 0,0"
           style="fill:#231f20;fill-opacity:1;fill-rule:nonzero;stroke:none"
           id="path2241" />
      </g>
      <g
         id="g2243"
         transform="matrix(0.32949796,0,0,-0.33513888,93.452268,104.88688)">
        <path
           d="m 0,0 c -0.204,0.323 -0.469,0.393 -0.931,0.393 h -0.547 l -0.784,-3.712 h 0.505 c 0.588,0 1.008,0.168 1.259,0.497 0.47,0.609 0.673,1.505 0.673,1.968 C 0.175,-0.469 0.126,-0.202 0,0 Z m -0.07,-3.264 c -0.469,-0.44 -0.953,-0.615 -1.765,-0.615 h -1.233 l 1.024,4.818 h 1.057 c 0.735,0 1.099,-0.084 1.443,-0.399 0.3,-0.274 0.448,-0.7 0.448,-1.345 0,-0.819 -0.42,-1.933 -0.974,-2.459"
           style="fill:#231f20;fill-opacity:1;fill-rule:nonzero;stroke:none"
           id="path2245" />
      </g>
      <g
         id="g2247"
         transform="matrix(0.32949796,0,0,-0.33513888,94.619348,105.21565)">
        <path
           d="m 0,0 c -0.07,0.029 -0.133,0.043 -0.239,0.043 -0.287,0 -0.609,-0.238 -0.931,-0.714 l -0.469,-2.227 h -0.637 l 0.504,2.367 c 0.105,0.504 0.111,0.742 0.035,0.987 l 0.602,0.267 c 0.077,-0.19 0.105,-0.448 0.043,-0.771 0.328,0.462 0.762,0.75 1.092,0.75 0.132,0 0.196,-0.015 0.28,-0.042"
           style="fill:#231f20;fill-opacity:1;fill-rule:nonzero;stroke:none"
           id="path2249" />
      </g>
      <g
         id="g2251"
         transform="matrix(0.32949796,0,0,-0.33513888,95.24869,105.14963)">
        <path
           d="m 0,0 c -0.743,0 -1.162,-0.988 -1.162,-1.968 0,-0.497 0.231,-0.7 0.624,-0.7 0.755,0 1.155,0.995 1.155,1.974 C 0.617,-0.182 0.343,0 0,0 Z m -0.659,-3.18 c -0.77,0 -1.204,0.463 -1.204,1.262 0,1.372 0.833,2.429 1.975,2.429 0.806,0 1.212,-0.49 1.212,-1.253 0,-1.331 -0.771,-2.438 -1.983,-2.438"
           style="fill:#231f20;fill-opacity:1;fill-rule:nonzero;stroke:none"
           id="path2253" />
      </g>
      <g
         id="g2255"
         transform="matrix(0.32949796,0,0,-0.33513888,96.293529,104.81181)">
        <path
           d="m 0,0 c -0.259,0 -0.469,0.204 -0.469,0.463 0,0.259 0.21,0.469 0.469,0.469 0.259,0 0.462,-0.21 0.462,-0.469 C 0.462,0.204 0.259,0 0,0 Z m -0.644,-4.103 h -0.673 l 0.743,3.487 0.694,0.105"
           style="fill:#231f20;fill-opacity:1;fill-rule:nonzero;stroke:none"
           id="path2257" />
      </g>
      <g
         id="g2259"
         transform="matrix(0.32949796,0,0,-0.33513888,97.121555,105.16839)">
        <path
           d="m 0,0 h -0.721 l -0.42,-1.982 c -0.028,-0.147 -0.049,-0.266 -0.049,-0.364 0,-0.238 0.105,-0.322 0.343,-0.322 0.139,0 0.253,0.027 0.364,0.07 v -0.4 c -0.217,-0.098 -0.441,-0.146 -0.686,-0.146 -0.441,0 -0.673,0.216 -0.673,0.581 0,0.168 0.014,0.308 0.049,0.497 L -1.358,0 h -0.427 l 0.091,0.477 h 0.433 c 0.071,0.294 0.155,0.602 0.239,0.868 l 0.7,0.154 C -0.42,1.226 -0.547,0.792 -0.609,0.477 h 0.854"
           style="fill:#231f20;fill-opacity:1;fill-rule:nonzero;stroke:none"
           id="path2261" />
      </g>
      <g
         id="g2263"
         transform="matrix(0.32949796,0,0,-0.33513888,97.723549,105.49482)">
        <path
           d="m 0,0 c -0.246,-1.163 -0.63,-1.89 -1.197,-2.437 -0.344,-0.329 -0.764,-0.588 -1.156,-0.728 l -0.105,0.406 c 0.574,0.315 0.889,0.575 1.148,0.966 0.266,0.407 0.484,1.002 0.644,1.78 0.106,0.504 0.19,1.043 0.19,1.47 0,0.714 -0.182,1.219 -0.721,1.57 L -0.96,3.362 C -0.28,3.04 0.155,2.369 0.155,1.402 0.155,0.954 0.083,0.413 0,0"
           style="fill:#231f20;fill-opacity:1;fill-rule:nonzero;stroke:none"
           id="path2265" />
      </g>
      <g
         id="g2267"
         transform="matrix(0.32949796,0,0,-0.33513888,71.797992,103.49806)">
        <path
           d="m 0,0 h -2.75 v 5.509 h 0.783 V 0.641 h 2.095"
           style="fill:#231f20;fill-opacity:1;fill-rule:nonzero;stroke:none"
           id="path2269" />
      </g>
      <g
         id="g2271"
         transform="matrix(0.32949796,0,0,-0.33513888,72.668196,102.39378)">
        <path
           d="m 0,0 c -0.128,0.16 -0.319,0.28 -0.575,0.28 -0.56,0 -0.84,-0.455 -0.84,-1.184 H 0.248 C 0.248,-0.52 0.161,-0.2 0,0 Z m -1.422,-1.447 v -0.097 c 0,-0.343 0.047,-0.606 0.167,-0.798 0.208,-0.321 0.536,-0.472 0.919,-0.472 0.376,0 0.696,0.128 0.984,0.384 l 0.28,-0.441 c -0.392,-0.343 -0.864,-0.511 -1.383,-0.511 -1.112,0 -1.791,0.807 -1.791,2.119 0,0.696 0.136,1.143 0.479,1.55 0.32,0.376 0.712,0.552 1.208,0.552 0.448,0 0.807,-0.143 1.087,-0.43 0.352,-0.361 0.48,-0.809 0.488,-1.728 0,-0.024 0,-0.08 0,-0.128"
           style="fill:#231f20;fill-opacity:1;fill-rule:nonzero;stroke:none"
           id="path2273" />
      </g>
      <g
         id="g2275"
         transform="matrix(0.32949796,0,0,-0.33513888,73.968062,101.77478)">
        <path
           d="m 0,0 c -0.177,0.088 -0.336,0.152 -0.52,0.152 -0.336,0 -0.536,-0.232 -0.536,-0.64 v -0.647 h 1.064 l -0.192,-0.52 h -0.864 v -3.487 h -0.743 v 3.487 h -0.384 v 0.52 h 0.392 C -1.8,-1.056 -1.8,-0.56 -1.8,-0.496 c 0,0.544 0.232,0.849 0.448,1 0.192,0.136 0.432,0.191 0.728,0.191 0.328,0 0.624,-0.063 0.871,-0.215"
           style="fill:#231f20;fill-opacity:1;fill-rule:nonzero;stroke:none"
           id="path2277" />
      </g>
      <g
         id="g2279"
         transform="matrix(0.32949796,0,0,-0.33513888,74.650454,102.32943)">
        <path
           d="m 0,0 h -0.791 v -2.415 c 0,-0.495 0.12,-0.648 0.52,-0.648 0.136,0 0.248,0.025 0.375,0.08 L 0.192,-3.43 c -0.223,-0.112 -0.463,-0.168 -0.727,-0.168 -0.264,0 -0.552,0.08 -0.68,0.2 -0.168,0.152 -0.296,0.232 -0.296,0.815 V 0 H -1.99 v 0.52 h 0.479 c 0,0.312 0.009,0.719 0.049,1.024 l 0.759,0.175 C -0.735,1.431 -0.775,0.927 -0.775,0.52 h 0.976"
           style="fill:#231f20;fill-opacity:1;fill-rule:nonzero;stroke:none"
           id="path2281" />
      </g>
      <g
         id="g2283"
         transform="matrix(0.32949796,0,0,-0.33513888,66.605763,104.8175)">
        <path
           d="m 0,0 c -0.266,-0.406 -0.469,-1.001 -0.644,-1.779 -0.112,-0.504 -0.189,-1.043 -0.189,-1.464 0,-0.735 0.189,-1.225 0.721,-1.575 L -0.35,-5.176 c -0.679,0.322 -1.121,1.002 -1.121,1.962 0,0.447 0.071,0.966 0.161,1.4 0.246,1.17 0.624,1.898 1.198,2.438 0.343,0.321 0.763,0.588 1.149,0.728 L 1.149,0.967 C 0.567,0.651 0.252,0.392 0,0"
           style="fill:#231f20;fill-opacity:1;fill-rule:nonzero;stroke:none"
           id="path2285" />
      </g>
      <g
         id="g2287"
         transform="matrix(0.32949796,0,0,-0.33513888,68.038418,104.84565)">
        <path
           d="m 0,0 c -0.308,0.259 -0.616,0.35 -0.987,0.35 -0.414,0 -0.792,-0.167 -1.079,-0.483 -0.476,-0.518 -0.749,-1.548 -0.749,-2.234 0,-0.757 0.441,-1.149 1.099,-1.149 0.281,0 0.526,0.056 0.742,0.168 l 0.295,1.372 h -0.904 v 0.561 h 1.681 l -0.483,-2.269 c -0.427,-0.246 -0.987,-0.379 -1.499,-0.379 -1.065,0 -1.674,0.729 -1.674,1.71 0,0.981 0.393,1.982 1.03,2.591 0.49,0.47 0.994,0.658 1.646,0.658 0.518,0 0.938,-0.161 1.253,-0.483"
           style="fill:#231f20;fill-opacity:1;fill-rule:nonzero;stroke:none"
           id="path2289" />
      </g>
      <g
         id="g2291"
         transform="matrix(0.32949796,0,0,-0.33513888,68.941903,105.14359)">
        <path
           d="M 0,0 C -0.378,0 -0.637,-0.12 -0.924,-0.456 -1.26,-0.854 -1.4,-1.534 -1.4,-2.038 c 0,-0.428 0.154,-0.589 0.448,-0.589 0.35,0 0.742,0.336 0.952,0.771 l 0.379,1.771 C 0.287,-0.036 0.148,0 0,0 Z M 0.911,-0.533 0.61,-1.948 C 0.498,-2.466 0.561,-2.634 0.736,-2.816 l -0.525,-0.4 c -0.197,0.19 -0.274,0.386 -0.26,0.68 -0.245,-0.385 -0.644,-0.623 -1.148,-0.623 -0.483,0 -0.869,0.35 -0.869,1.113 0,0.729 0.273,1.52 0.736,1.983 0.371,0.371 0.847,0.581 1.401,0.581 0.385,0 0.756,-0.091 1.036,-0.28 C 1.051,0.055 0.96,-0.288 0.911,-0.533"
           style="fill:#231f20;fill-opacity:1;fill-rule:nonzero;stroke:none"
           id="path2293" />
      </g>
      <g
         id="g2295"
         transform="matrix(0.32949796,0,0,-0.33513888,70.36764,105.8313)">
        <path
           d="m 0,0 c -0.084,-0.407 -0.07,-0.617 0.084,-0.834 l -0.525,-0.343 c -0.168,0.176 -0.26,0.379 -0.239,0.693 -0.392,-0.448 -0.826,-0.665 -1.253,-0.665 -0.484,0 -0.771,0.224 -0.771,0.707 0,0.161 0.021,0.358 0.056,0.526 l 0.504,2.353 0.659,0.118 -0.49,-2.332 c -0.042,-0.188 -0.063,-0.349 -0.063,-0.462 0,-0.272 0.098,-0.378 0.315,-0.378 0.329,0 0.805,0.287 1.127,0.799 l 0.477,2.241 0.658,0.119"
           style="fill:#231f20;fill-opacity:1;fill-rule:nonzero;stroke:none"
           id="path2297" />
      </g>
      <g
         id="g2299"
         transform="matrix(0.32949796,0,0,-0.33513888,71.511656,105.23743)">
        <path
           d="m 0,0 c -0.203,0.182 -0.434,0.252 -0.666,0.252 -0.245,0 -0.504,-0.127 -0.665,-0.344 -0.246,-0.322 -0.491,-1.051 -0.491,-1.596 0,-0.463 0.203,-0.701 0.603,-0.701 0.273,0 0.56,0.14 0.819,0.371 l 0.245,-0.406 c -0.392,-0.322 -0.742,-0.47 -1.197,-0.47 -0.785,0 -1.17,0.428 -1.17,1.199 0,0.819 0.434,1.687 0.903,2.087 0.323,0.273 0.673,0.406 1.079,0.406 0.343,0 0.638,-0.105 0.869,-0.329"
           style="fill:#231f20;fill-opacity:1;fill-rule:nonzero;stroke:none"
           id="path2301" />
      </g>
      <g
         id="g2303"
         transform="matrix(0.32949796,0,0,-0.33513888,72.731788,105.34099)">
        <path
           d="m 0,0 -0.532,-2.5 h -0.631 l 0.498,2.368 c 0.028,0.126 0.049,0.252 0.049,0.328 0,0.231 -0.141,0.343 -0.358,0.343 -0.308,0 -0.791,-0.3 -1.148,-0.742 L -2.613,-2.5 h -0.644 l 0.827,3.873 c 0.105,0.484 0.111,0.827 0.042,1.058 l 0.679,0.245 c 0.077,-0.26 0.042,-0.742 -0.063,-1.24 L -1.863,1.008 C -1.891,0.882 -1.975,0.568 -2.024,0.413 -1.646,0.882 -1.121,1.092 -0.7,1.092 -0.217,1.092 0.063,0.813 0.063,0.427 0.063,0.323 0.035,0.175 0,0"
           style="fill:#231f20;fill-opacity:1;fill-rule:nonzero;stroke:none"
           id="path2305" />
      </g>
      <g
         id="g2307"
         transform="matrix(0.32949796,0,0,-0.33513888,73.552568,105.13656)">
        <path
           d="m 0,0 c -0.42,0 -0.826,-0.393 -1.001,-1.086 0.077,-0.007 0.224,-0.014 0.336,-0.014 0.539,0 0.819,0.076 0.994,0.252 0.106,0.106 0.169,0.232 0.169,0.393 C 0.498,-0.203 0.364,0 0,0 Z M 0.827,-1.162 C 0.532,-1.444 0.07,-1.583 -0.672,-1.583 c -0.162,0 -0.323,0.021 -0.434,0.021 -0.028,-0.12 -0.049,-0.288 -0.049,-0.407 0,-0.469 0.294,-0.707 0.672,-0.707 0.406,0 0.686,0.112 1.015,0.393 l 0.232,-0.4 c -0.379,-0.349 -0.771,-0.512 -1.422,-0.512 -0.7,0 -1.198,0.463 -1.198,1.275 0,0.693 0.287,1.45 0.777,1.927 0.35,0.336 0.736,0.49 1.17,0.49 0.673,0 1.058,-0.336 1.058,-0.925 0,-0.287 -0.119,-0.546 -0.322,-0.734"
           style="fill:#231f20;fill-opacity:1;fill-rule:nonzero;stroke:none"
           id="path2309" />
      </g>
      <g
         id="g2311"
         transform="matrix(0.32949796,0,0,-0.33513888,74.5951,105.48644)">
        <path
           d="m 0,0 c -0.245,-1.163 -0.63,-1.891 -1.198,-2.438 -0.343,-0.329 -0.763,-0.588 -1.155,-0.727 l -0.105,0.405 c 0.574,0.315 0.889,0.575 1.148,0.967 0.266,0.406 0.483,1.002 0.645,1.779 0.104,0.504 0.188,1.043 0.188,1.471 0,0.714 -0.182,1.219 -0.721,1.569 L -0.96,3.361 C -0.28,3.04 0.154,2.368 0.154,1.401 0.154,0.953 0.084,0.413 0,0"
           style="fill:#231f20;fill-opacity:1;fill-rule:nonzero;stroke:none"
           id="path2313" />
      </g>
      <g
         id="g2475"
         transform="matrix(0.32949796,0,0,-0.33513888,75.618191,118.77302)">
        <path
           d="M 0,0 V 2.616 H -2.103 V 0 h -0.759 v 5.51 h 0.759 V 3.247 H 0 V 5.51 H 0.776 V 0"
           style="fill:#231f20;fill-opacity:1;fill-rule:nonzero;stroke:none"
           id="path2477" />
      </g>
      <g
         id="g2479"
         transform="matrix(0.32949796,0,0,-0.33513888,76.320021,118.77302)">
        <path
           d="m 0,0 v 3.983 l 0.759,0.12 V 0 Z m 0.375,4.71 c -0.288,0 -0.511,0.24 -0.511,0.529 0,0.294 0.232,0.535 0.519,0.535 0.288,0 0.529,-0.233 0.529,-0.535 C 0.912,4.95 0.671,4.71 0.375,4.71"
           style="fill:#231f20;fill-opacity:1;fill-rule:nonzero;stroke:none"
           id="path2481" />
      </g>
      <g
         id="g2483"
         transform="matrix(0.32949796,0,0,-0.33513888,77.740156,118.77302)">
        <path
           d="m 0,0 v 2.703 c 0,0.36 -0.031,0.488 -0.127,0.617 -0.08,0.103 -0.225,0.159 -0.408,0.159 -0.288,0 -0.72,-0.224 -0.991,-0.512 V 0 h -0.729 v 2.983 c 0,0.479 -0.04,0.664 -0.151,0.952 l 0.696,0.191 c 0.096,-0.191 0.135,-0.368 0.135,-0.615 0.232,0.191 0.352,0.296 0.519,0.392 0.233,0.135 0.496,0.2 0.744,0.2 0.424,0 0.8,-0.225 0.944,-0.568 C 0.696,3.391 0.727,3.215 0.727,3.032 V 0"
           style="fill:#231f20;fill-opacity:1;fill-rule:nonzero;stroke:none"
           id="path2485" />
      </g>
      <g
         id="g2487"
         transform="matrix(0.32949796,0,0,-0.33513888,79.156009,117.7304)">
        <path
           d="m 0,0 c -0.209,0.248 -0.473,0.376 -0.849,0.376 -0.304,0 -0.543,-0.153 -0.695,-0.409 -0.151,-0.263 -0.208,-0.583 -0.208,-1.102 0,-0.776 0.096,-0.991 0.311,-1.215 0.137,-0.145 0.321,-0.208 0.592,-0.208 0.425,0 0.712,0.223 0.849,0.463 z m 0.151,-3.111 c -0.04,0.121 -0.048,0.177 -0.071,0.377 -0.28,-0.296 -0.608,-0.44 -1.032,-0.44 -1.024,0 -1.623,0.767 -1.623,2.03 0,0.864 0.296,1.527 0.839,1.879 0.248,0.161 0.496,0.232 0.784,0.232 0.383,0 0.704,-0.135 0.975,-0.463 0,0.112 -0.016,0.432 -0.016,0.704 v 1.558 l 0.736,-0.12 v -4.413 c 0,-0.647 0.024,-1.096 0.112,-1.344"
           style="fill:#231f20;fill-opacity:1;fill-rule:nonzero;stroke:none"
           id="path2489" />
      </g>
      <g
         id="g2491"
         transform="matrix(0.32949796,0,0,-0.33513888,-6.6655907,190.79279)">
        <path
           d="m 264.142,216.694 h 1.624 v 0.729 h -1.624 z"
           style="fill:#231f20;fill-opacity:1;fill-rule:nonzero;stroke:none"
           id="path2493" />
      </g>
      <g
         id="g2495"
         transform="matrix(0.32949796,0,0,-0.33513888,82.540283,117.17307)">
        <path
           d="m 0,0 c -0.16,0.064 -0.383,0.104 -0.672,0.104 h -0.576 v -1.919 h 0.536 c 0.489,0 0.76,0.08 0.952,0.264 0.169,0.16 0.272,0.424 0.272,0.743 C 0.512,-0.424 0.304,-0.12 0,0 Z m 0.656,-4.774 c -0.16,0.313 -0.232,0.441 -0.456,0.816 -0.423,0.704 -0.56,0.936 -0.952,1.376 -0.143,0.16 -0.263,0.24 -0.496,0.248 v -2.44 h -0.767 v 5.51 h 1.544 C 0.184,0.736 0.568,0.584 0.831,0.337 1.079,0.104 1.32,-0.264 1.32,-0.8 c 0,-0.855 -0.552,-1.542 -1.472,-1.511 0.256,-0.207 0.384,-0.384 0.48,-0.512 0.112,-0.152 0.28,-0.391 0.463,-0.679 0.241,-0.375 0.688,-1.095 0.8,-1.272"
           style="fill:#231f20;fill-opacity:1;fill-rule:nonzero;stroke:none"
           id="path2497" />
      </g>
      <g
         id="g2499"
         transform="matrix(0.32949796,0,0,-0.33513888,83.981836,117.66874)">
        <path
           d="m 0,0 c -0.128,0.16 -0.319,0.28 -0.576,0.28 -0.559,0 -0.839,-0.456 -0.839,-1.184 H 0.248 C 0.248,-0.52 0.16,-0.2 0,0 Z m -1.424,-1.447 v -0.096 c 0,-0.344 0.049,-0.608 0.168,-0.8 0.209,-0.32 0.537,-0.471 0.92,-0.471 0.376,0 0.696,0.128 0.984,0.384 l 0.28,-0.441 c -0.393,-0.343 -0.864,-0.512 -1.384,-0.512 -1.111,0 -1.79,0.808 -1.79,2.12 0,0.696 0.135,1.143 0.479,1.55 0.32,0.377 0.712,0.553 1.208,0.553 0.448,0 0.807,-0.144 1.087,-0.433 0.352,-0.359 0.48,-0.807 0.488,-1.726 0,-0.025 0,-0.08 0,-0.128"
           style="fill:#231f20;fill-opacity:1;fill-rule:nonzero;stroke:none"
           id="path2501" />
      </g>
      <g
         id="g2503"
         transform="matrix(0.32949796,0,0,-0.33513888,85.260288,118.10811)">
        <path
           d="m 0,0 c -0.552,0 -0.887,-0.105 -1.048,-0.288 -0.151,-0.176 -0.207,-0.32 -0.207,-0.584 0,-0.44 0.224,-0.696 0.631,-0.696 0.337,0 0.656,0.208 0.84,0.529 L 0.24,-0.017 C 0.128,-0.008 0.064,0 0,0 Z m 0.904,-2.152 c -0.249,0.097 -0.44,0.296 -0.536,0.576 -0.104,-0.127 -0.439,-0.527 -1.135,-0.527 -0.799,0 -1.295,0.407 -1.295,1.175 0,0.928 0.743,1.423 2.038,1.423 0.096,0 0.177,0 0.28,-0.008 v 0.265 c 0,0.47 -0.063,0.791 -0.624,0.791 -0.423,0 -0.902,-0.207 -1.231,-0.456 l -0.335,0.528 c 0.391,0.224 0.903,0.527 1.678,0.527 0.584,0 1.008,-0.216 1.16,-0.639 0.064,-0.176 0.08,-0.312 0.08,-0.704 0,-0.288 -0.033,-0.904 -0.033,-1.487 0,-0.552 0.017,-0.776 0.328,-0.968"
           style="fill:#231f20;fill-opacity:1;fill-rule:nonzero;stroke:none"
           id="path2505" />
      </g>
      <g
         id="g2507"
         transform="matrix(0.32949796,0,0,-0.33513888,86.59146,117.64729)">
        <path
           d="m 0,0 c -0.072,0.024 -0.128,0.04 -0.208,0.04 -0.448,0 -0.832,-0.375 -0.832,-0.816 v -2.583 h -0.735 v 2.944 c 0,0.487 -0.056,0.751 -0.152,0.999 l 0.712,0.183 C -1.143,0.615 -1.079,0.352 -1.079,0.152 V 0.08 c 0.319,0.464 0.664,0.696 1.087,0.696 0.096,0 0.184,-0.017 0.248,-0.041"
           style="fill:#231f20;fill-opacity:1;fill-rule:nonzero;stroke:none"
           id="path2509" />
      </g>
      <g
         id="g2511"
         transform="matrix(0.32949796,0,0,-0.33513888,88.088698,118.77805)">
        <path
           d="m 0,0 h -0.751 l -1.84,5.525 h 0.848 L -0.687,2.23 c 0.063,-0.191 0.151,-0.487 0.208,-0.726 0.04,-0.177 0.071,-0.305 0.088,-0.416 h 0.047 c 0.024,0.111 0.056,0.214 0.112,0.416 0.064,0.222 0.128,0.43 0.224,0.735 l 1.079,3.286 h 0.8"
           style="fill:#231f20;fill-opacity:1;fill-rule:nonzero;stroke:none"
           id="path2513" />
      </g>
      <g
         id="g2515"
         transform="matrix(0.32949796,0,0,-0.33513888,88.90915,118.77302)">
        <path
           d="m 0,0 v 3.983 l 0.759,0.12 V 0 Z m 0.375,4.71 c -0.288,0 -0.511,0.24 -0.511,0.529 0,0.294 0.231,0.535 0.52,0.535 0.287,0 0.527,-0.233 0.527,-0.535 C 0.911,4.95 0.671,4.71 0.375,4.71"
           style="fill:#231f20;fill-opacity:1;fill-rule:nonzero;stroke:none"
           id="path2517" />
      </g>
      <g
         id="g2519"
         transform="matrix(0.32949796,0,0,-0.33513888,90.231752,117.66874)">
        <path
           d="m 0,0 c -0.128,0.16 -0.319,0.28 -0.575,0.28 -0.56,0 -0.84,-0.456 -0.84,-1.184 H 0.249 C 0.249,-0.52 0.16,-0.2 0,0 Z m -1.423,-1.447 v -0.096 c 0,-0.344 0.048,-0.608 0.168,-0.8 0.208,-0.32 0.535,-0.471 0.92,-0.471 0.376,0 0.695,0.128 0.983,0.384 l 0.28,-0.441 c -0.392,-0.343 -0.863,-0.512 -1.383,-0.512 -1.111,0 -1.791,0.808 -1.791,2.12 0,0.696 0.136,1.143 0.479,1.55 0.321,0.377 0.712,0.553 1.208,0.553 0.448,0 0.808,-0.144 1.087,-0.433 0.352,-0.359 0.48,-0.807 0.489,-1.726 0,-0.025 0,-0.08 0,-0.128"
           style="fill:#231f20;fill-opacity:1;fill-rule:nonzero;stroke:none"
           id="path2521" />
      </g>
      <g
         id="g2523"
         transform="matrix(0.32949796,0,0,-0.33513888,92.140206,118.78341)">
        <path
           d="m 0,0 h -0.712 l -0.584,2.183 c -0.071,0.28 -0.247,0.943 -0.247,0.943 h -0.024 c 0,0 -0.16,-0.68 -0.217,-0.895 L -2.384,0 h -0.703 l -1.095,4.005 0.744,0.12 0.511,-2.246 C -2.839,1.48 -2.719,0.896 -2.719,0.896 h 0.024 c 0,0 0.088,0.567 0.183,0.911 l 0.609,2.231 h 0.759 l 0.56,-2.167 C -0.472,1.439 -0.36,0.935 -0.36,0.896 h 0.032 c 0,0.039 0.128,0.687 0.184,0.951 l 0.496,2.191 h 0.767"
           style="fill:#231f20;fill-opacity:1;fill-rule:nonzero;stroke:none"
           id="path2525" />
      </g>
      <g
         id="g2527"
         transform="matrix(0.32949796,0,0,-0.33513888,70.497131,120.09246)">
        <path
           d="m 0,0 c -0.267,-0.406 -0.47,-1.002 -0.645,-1.78 -0.112,-0.503 -0.189,-1.042 -0.189,-1.463 0,-0.736 0.189,-1.226 0.721,-1.576 l -0.238,-0.357 c -0.679,0.322 -1.12,1.002 -1.12,1.962 0,0.448 0.07,0.966 0.161,1.399 0.245,1.171 0.623,1.899 1.197,2.438 0.343,0.322 0.764,0.589 1.149,0.729 L 1.148,0.967 C 0.567,0.651 0.251,0.392 0,0"
           style="fill:#231f20;fill-opacity:1;fill-rule:nonzero;stroke:none"
           id="path2529" />
      </g>
      <g
         id="g2531"
         transform="matrix(0.32949796,0,0,-0.33513888,71.415115,120.02678)">
        <path
           d="m 0,0 h -0.61 l -0.385,-1.821 h 0.721 c 0.4,0 0.603,0.084 0.785,0.252 C 0.77,-1.323 0.896,-1.002 0.896,-0.7 0.896,-0.238 0.658,0 0,0 Z M 0.847,-2.073 C 0.56,-2.276 0.168,-2.374 -0.358,-2.374 h -0.756 l -0.399,-1.885 h -0.672 l 1.022,4.82 h 1.261 c 0.546,0 0.903,-0.099 1.127,-0.267 0.281,-0.21 0.406,-0.512 0.406,-0.847 0,-0.631 -0.259,-1.149 -0.784,-1.52"
           style="fill:#231f20;fill-opacity:1;fill-rule:nonzero;stroke:none"
           id="path2533" />
      </g>
      <g
         id="g2535"
         transform="matrix(0.32949796,0,0,-0.33513888,72.598011,120.41654)">
        <path
           d="m 0,0 c -0.743,0 -1.163,-0.987 -1.163,-1.968 0,-0.497 0.231,-0.7 0.623,-0.7 0.757,0 1.156,0.995 1.156,1.975 C 0.616,-0.182 0.343,0 0,0 Z m -0.659,-3.18 c -0.77,0 -1.204,0.463 -1.204,1.262 0,1.372 0.833,2.43 1.975,2.43 0.805,0 1.211,-0.491 1.211,-1.254 0,-1.33 -0.77,-2.438 -1.982,-2.438"
           style="fill:#231f20;fill-opacity:1;fill-rule:nonzero;stroke:none"
           id="path2537" />
      </g>
      <g
         id="g2539"
         transform="matrix(0.32949796,0,0,-0.33513888,74.051099,120.48692)">
        <path
           d="m 0,0 c -0.287,0.162 -0.539,0.253 -0.833,0.253 -0.421,0 -0.729,-0.169 -0.729,-0.484 0,-0.217 0.091,-0.335 0.379,-0.455 l 0.434,-0.175 c 0.49,-0.197 0.728,-0.462 0.728,-0.862 0,-0.749 -0.623,-1.267 -1.576,-1.267 -0.462,0 -0.917,0.133 -1.253,0.356 l 0.266,0.484 c 0.308,-0.21 0.679,-0.336 1.064,-0.336 0.442,0 0.777,0.224 0.777,0.553 0,0.259 -0.111,0.392 -0.448,0.533 l -0.406,0.168 c -0.455,0.188 -0.679,0.427 -0.679,0.847 0,0.631 0.553,1.142 1.485,1.142 0.385,0 0.784,-0.106 1.05,-0.28"
           style="fill:#231f20;fill-opacity:1;fill-rule:nonzero;stroke:none"
           id="path2541" />
      </g>
      <g
         id="g2543"
         transform="matrix(0.32949796,0,0,-0.33513888,74.890657,120.43531)">
        <path
           d="m 0,0 h -0.722 l -0.42,-1.982 c -0.028,-0.147 -0.049,-0.266 -0.049,-0.363 0,-0.239 0.105,-0.323 0.343,-0.323 0.14,0 0.252,0.028 0.365,0.07 v -0.399 c -0.218,-0.098 -0.442,-0.147 -0.687,-0.147 -0.441,0 -0.672,0.217 -0.672,0.581 0,0.168 0.014,0.308 0.049,0.497 L -1.359,0 h -0.427 l 0.091,0.477 h 0.434 c 0.07,0.294 0.154,0.602 0.238,0.868 l 0.7,0.154 C -0.42,1.226 -0.547,0.791 -0.61,0.477 h 0.855"
           style="fill:#231f20;fill-opacity:1;fill-rule:nonzero;stroke:none"
           id="path2545" />
      </g>
      <g
         id="g2547"
         transform="matrix(0.32949796,0,0,-0.33513888,75.5915,120.41152)">
        <path
           d="m 0,0 c -0.419,0 -0.826,-0.393 -1.002,-1.086 0.078,-0.007 0.225,-0.014 0.337,-0.014 0.539,0 0.82,0.076 0.995,0.252 0.105,0.104 0.168,0.231 0.168,0.392 C 0.498,-0.203 0.365,0 0,0 Z m 0.828,-1.162 c -0.295,-0.281 -0.757,-0.421 -1.5,-0.421 -0.161,0 -0.323,0.02 -0.434,0.02 -0.028,-0.118 -0.049,-0.287 -0.049,-0.405 0,-0.47 0.294,-0.708 0.672,-0.708 0.406,0 0.687,0.112 1.016,0.392 l 0.231,-0.399 c -0.378,-0.351 -0.77,-0.512 -1.422,-0.512 -0.7,0 -1.197,0.463 -1.197,1.275 0,0.694 0.287,1.45 0.776,1.926 0.352,0.336 0.736,0.491 1.17,0.491 0.673,0 1.058,-0.336 1.058,-0.925 0,-0.286 -0.118,-0.546 -0.321,-0.734"
           style="fill:#231f20;fill-opacity:1;fill-rule:nonzero;stroke:none"
           id="path2549" />
      </g>
      <g
         id="g2551"
         transform="matrix(0.32949796,0,0,-0.33513888,76.846228,120.48223)">
        <path
           d="m 0,0 c -0.069,0.028 -0.133,0.042 -0.237,0.042 -0.287,0 -0.61,-0.238 -0.932,-0.714 L -1.639,-2.9 h -0.636 l 0.504,2.367 c 0.104,0.505 0.112,0.744 0.035,0.989 l 0.602,0.266 c 0.077,-0.19 0.105,-0.449 0.042,-0.77 0.329,0.462 0.763,0.749 1.092,0.749 0.134,0 0.197,-0.015 0.281,-0.042"
           style="fill:#231f20;fill-opacity:1;fill-rule:nonzero;stroke:none"
           id="path2553" />
      </g>
      <g
         id="g2555"
         transform="matrix(0.32949796,0,0,-0.33513888,77.27293,120.07839)">
        <path
           d="m 0,0 c -0.259,0 -0.47,0.203 -0.47,0.462 0,0.259 0.211,0.469 0.47,0.469 0.259,0 0.462,-0.21 0.462,-0.469 C 0.462,0.203 0.259,0 0,0 Z m -0.645,-4.105 h -0.671 l 0.742,3.489 0.693,0.105"
           style="fill:#231f20;fill-opacity:1;fill-rule:nonzero;stroke:none"
           id="path2557" />
      </g>
      <g
         id="g2559"
         transform="matrix(0.32949796,0,0,-0.33513888,78.05252,120.41152)">
        <path
           d="m 0,0 c -0.42,0 -0.826,-0.393 -1.001,-1.086 0.076,-0.007 0.224,-0.014 0.336,-0.014 0.539,0 0.819,0.076 0.994,0.252 0.106,0.104 0.168,0.231 0.168,0.392 C 0.497,-0.203 0.364,0 0,0 Z m 0.826,-1.162 c -0.293,-0.281 -0.755,-0.421 -1.499,-0.421 -0.16,0 -0.321,0.02 -0.433,0.02 -0.028,-0.118 -0.049,-0.287 -0.049,-0.405 0,-0.47 0.294,-0.708 0.672,-0.708 0.406,0 0.686,0.112 1.016,0.392 l 0.231,-0.399 c -0.379,-0.351 -0.771,-0.512 -1.422,-0.512 -0.7,0 -1.198,0.463 -1.198,1.275 0,0.694 0.287,1.45 0.777,1.926 0.351,0.336 0.736,0.491 1.171,0.491 0.672,0 1.058,-0.336 1.058,-0.925 0,-0.286 -0.121,-0.546 -0.324,-0.734"
           style="fill:#231f20;fill-opacity:1;fill-rule:nonzero;stroke:none"
           id="path2561" />
      </g>
      <g
         id="g2563"
         transform="matrix(0.32949796,0,0,-0.33513888,79.494075,121.10659)">
        <path
           d="M 0,0 C -0.083,-0.406 -0.069,-0.616 0.084,-0.834 L -0.44,-1.176 c -0.168,0.175 -0.259,0.379 -0.239,0.693 -0.391,-0.448 -0.826,-0.665 -1.253,-0.665 -0.484,0 -0.771,0.224 -0.771,0.707 0,0.161 0.022,0.357 0.056,0.525 l 0.505,2.354 0.658,0.119 -0.49,-2.333 c -0.042,-0.188 -0.063,-0.35 -0.063,-0.462 0,-0.273 0.098,-0.378 0.316,-0.378 0.328,0 0.804,0.287 1.126,0.798 l 0.477,2.242 0.658,0.119"
           style="fill:#231f20;fill-opacity:1;fill-rule:nonzero;stroke:none"
           id="path2565" />
      </g>
      <g
         id="g2567"
         transform="matrix(0.32949796,0,0,-0.33513888,80.522768,120.48223)">
        <path
           d="m 0,0 c -0.07,0.028 -0.133,0.042 -0.238,0.042 -0.287,0 -0.608,-0.238 -0.932,-0.714 L -1.638,-2.9 h -0.638 l 0.505,2.367 c 0.104,0.505 0.112,0.744 0.034,0.989 l 0.603,0.266 c 0.077,-0.19 0.105,-0.449 0.041,-0.77 0.33,0.462 0.764,0.749 1.093,0.749 0.133,0 0.197,-0.015 0.281,-0.042"
           style="fill:#231f20;fill-opacity:1;fill-rule:nonzero;stroke:none"
           id="path2569" />
      </g>
      <g
         id="g2571"
         transform="matrix(0.32949796,0,0,-0.33513888,81.376498,120.48692)">
        <path
           d="m 0,0 c -0.287,0.162 -0.54,0.253 -0.834,0.253 -0.42,0 -0.728,-0.169 -0.728,-0.484 0,-0.217 0.091,-0.335 0.378,-0.455 l 0.434,-0.175 c 0.49,-0.197 0.729,-0.462 0.729,-0.862 0,-0.749 -0.624,-1.267 -1.576,-1.267 -0.462,0 -0.918,0.133 -1.254,0.356 l 0.266,0.484 c 0.309,-0.21 0.68,-0.336 1.065,-0.336 0.441,0 0.777,0.224 0.777,0.553 0,0.259 -0.111,0.392 -0.448,0.533 l -0.406,0.168 c -0.456,0.188 -0.679,0.427 -0.679,0.847 0,0.631 0.552,1.142 1.484,1.142 0.385,0 0.784,-0.106 1.051,-0.28"
           style="fill:#231f20;fill-opacity:1;fill-rule:nonzero;stroke:none"
           id="path2573" />
      </g>
      <g
         id="g2575"
         transform="matrix(0.32949796,0,0,-0.33513888,82.570926,120.92327)">
        <path
           d="m 0,0 h -1.43 l 0.134,0.595 h 1.422"
           style="fill:#231f20;fill-opacity:1;fill-rule:nonzero;stroke:none"
           id="path2577" />
      </g>
      <g
         id="g2579"
         transform="matrix(0.32949796,0,0,-0.33513888,83.772607,121.45614)">
        <path
           d="m 0,0 h -0.651 l -0.596,4.826 h 0.708 l 0.336,-2.943 c 0.042,-0.37 0.056,-0.819 0.048,-1.015 0.078,0.169 0.26,0.54 0.505,0.995 l 1.604,2.963 h 0.728"
           style="fill:#231f20;fill-opacity:1;fill-rule:nonzero;stroke:none"
           id="path2581" />
      </g>
      <g
         id="g2583"
         transform="matrix(0.32949796,0,0,-0.33513888,85.331789,121.10659)">
        <path
           d="m 0,0 c -0.084,-0.406 -0.07,-0.616 0.084,-0.834 l -0.525,-0.342 c -0.167,0.175 -0.259,0.379 -0.238,0.693 -0.392,-0.448 -0.826,-0.665 -1.254,-0.665 -0.483,0 -0.77,0.224 -0.77,0.707 0,0.161 0.02,0.357 0.056,0.525 l 0.504,2.354 0.659,0.119 -0.491,-2.333 c -0.042,-0.188 -0.063,-0.35 -0.063,-0.462 0,-0.273 0.098,-0.378 0.315,-0.378 0.329,0 0.806,0.287 1.127,0.798 l 0.478,2.242 0.658,0.119"
           style="fill:#231f20;fill-opacity:1;fill-rule:nonzero;stroke:none"
           id="path2585" />
      </g>
      <g
         id="g2587"
         transform="matrix(0.32949796,0,0,-0.33513888,86.247466,120.41152)">
        <path
           d="m 0,0 c -0.421,0 -0.827,-0.393 -1.002,-1.086 0.077,-0.007 0.224,-0.014 0.336,-0.014 0.539,0 0.82,0.076 0.995,0.252 0.105,0.104 0.167,0.231 0.167,0.392 C 0.496,-0.203 0.364,0 0,0 Z M 0.825,-1.162 C 0.533,-1.443 0.07,-1.583 -0.673,-1.583 c -0.161,0 -0.322,0.02 -0.434,0.02 -0.028,-0.118 -0.049,-0.287 -0.049,-0.405 0,-0.47 0.294,-0.708 0.673,-0.708 0.405,0 0.686,0.112 1.016,0.392 l 0.23,-0.399 c -0.378,-0.351 -0.771,-0.512 -1.422,-0.512 -0.7,0 -1.197,0.463 -1.197,1.275 0,0.694 0.287,1.45 0.777,1.926 0.35,0.336 0.736,0.491 1.17,0.491 0.672,0 1.057,-0.336 1.057,-0.925 0,-0.286 -0.118,-0.546 -0.323,-0.734"
           style="fill:#231f20;fill-opacity:1;fill-rule:nonzero;stroke:none"
           id="path2589" />
      </g>
      <g
         id="g2591"
         transform="matrix(0.32949796,0,0,-0.33513888,87.494945,121.45413)">
        <path
           d="M 0,0 H -0.672 L 0.35,4.82 h 0.68"
           style="fill:#231f20;fill-opacity:1;fill-rule:nonzero;stroke:none"
           id="path2593" />
      </g>
      <g
         id="g2595"
         transform="matrix(0.32949796,0,0,-0.33513888,88.9276,120.58311)">
        <path
           d="m 0,0 -0.554,-2.599 h -0.643 l 0.497,2.354 c 0.035,0.168 0.056,0.28 0.056,0.364 0,0.218 -0.106,0.315 -0.315,0.315 -0.267,0 -0.68,-0.203 -1.107,-0.743 l -0.484,-2.29 h -0.636 l 0.532,2.473 c 0.091,0.435 0.091,0.623 0.02,0.883 l 0.603,0.266 c 0.07,-0.196 0.119,-0.414 0.049,-0.722 0.357,0.456 0.848,0.694 1.317,0.694 0.435,0 0.7,-0.273 0.7,-0.7 C 0.035,0.203 0.021,0.099 0,0"
           style="fill:#231f20;fill-opacity:1;fill-rule:nonzero;stroke:none"
           id="path2597" />
      </g>
      <g
         id="g2599"
         transform="matrix(0.32949796,0,0,-0.33513888,89.963214,119.95874)">
        <path
           d="m 0,0 c -0.148,0.099 -0.309,0.148 -0.484,0.148 -0.287,0 -0.51,-0.203 -0.574,-0.561 l -0.098,-0.532 h 0.953 L -0.484,-1.422 H -1.24 l -0.616,-3.109 c -0.127,-0.651 -0.337,-1.086 -0.631,-1.415 l -0.476,0.315 c 0.211,0.273 0.378,0.63 0.476,1.134 l 0.603,3.075 h -0.358 l 0.091,0.477 H -1.8 c 0.007,0.035 0.084,0.428 0.091,0.469 0.09,0.469 0.28,0.763 0.567,0.946 0.189,0.119 0.42,0.167 0.68,0.167 0.307,0 0.539,-0.063 0.715,-0.182"
           style="fill:#231f20;fill-opacity:1;fill-rule:nonzero;stroke:none"
           id="path2601" />
      </g>
      <g
         id="g2603"
         transform="matrix(0.32949796,0,0,-0.33513888,90.403753,120.41152)">
        <path
           d="m 0,0 c -0.421,0 -0.827,-0.393 -1.002,-1.086 0.077,-0.007 0.223,-0.014 0.337,-0.014 0.539,0 0.818,0.076 0.994,0.252 0.104,0.104 0.168,0.231 0.168,0.392 C 0.497,-0.203 0.364,0 0,0 Z M 0.826,-1.162 C 0.532,-1.443 0.07,-1.583 -0.672,-1.583 c -0.162,0 -0.324,0.02 -0.435,0.02 -0.028,-0.118 -0.049,-0.287 -0.049,-0.405 0,-0.47 0.293,-0.708 0.672,-0.708 0.406,0 0.687,0.112 1.016,0.392 l 0.23,-0.399 c -0.377,-0.351 -0.77,-0.512 -1.422,-0.512 -0.7,0 -1.196,0.463 -1.196,1.275 0,0.694 0.286,1.45 0.776,1.926 0.351,0.336 0.737,0.491 1.17,0.491 0.672,0 1.058,-0.336 1.058,-0.925 0,-0.286 -0.119,-0.546 -0.322,-0.734"
           style="fill:#231f20;fill-opacity:1;fill-rule:nonzero;stroke:none"
           id="path2605" />
      </g>
      <g
         id="g2607"
         transform="matrix(0.32949796,0,0,-0.33513888,91.658149,120.48223)">
        <path
           d="m 0,0 c -0.07,0.028 -0.133,0.042 -0.237,0.042 -0.288,0 -0.61,-0.238 -0.933,-0.714 L -1.638,-2.9 h -0.637 l 0.504,2.367 c 0.104,0.505 0.111,0.744 0.034,0.989 l 0.603,0.266 c 0.077,-0.19 0.105,-0.449 0.042,-0.77 0.329,0.462 0.763,0.749 1.092,0.749 0.134,0 0.196,-0.015 0.28,-0.042"
           style="fill:#231f20;fill-opacity:1;fill-rule:nonzero;stroke:none"
           id="path2609" />
      </g>
      <g
         id="g2611"
         transform="matrix(0.32949796,0,0,-0.33513888,92.084852,120.07839)">
        <path
           d="m 0,0 c -0.26,0 -0.47,0.203 -0.47,0.462 0,0.259 0.21,0.469 0.47,0.469 0.259,0 0.462,-0.21 0.462,-0.469 C 0.462,0.203 0.259,0 0,0 Z m -0.644,-4.105 h -0.672 l 0.742,3.489 0.692,0.105"
           style="fill:#231f20;fill-opacity:1;fill-rule:nonzero;stroke:none"
           id="path2613" />
      </g>
      <g
         id="g2615"
         transform="matrix(0.32949796,0,0,-0.33513888,92.864441,120.41152)">
        <path
           d="m 0,0 c -0.42,0 -0.827,-0.393 -1.002,-1.086 0.078,-0.007 0.225,-0.014 0.337,-0.014 0.539,0 0.819,0.076 0.994,0.252 0.106,0.104 0.168,0.231 0.168,0.392 C 0.497,-0.203 0.365,0 0,0 Z M 0.826,-1.162 C 0.533,-1.443 0.07,-1.583 -0.673,-1.583 c -0.16,0 -0.321,0.02 -0.434,0.02 -0.027,-0.118 -0.049,-0.287 -0.049,-0.405 0,-0.47 0.295,-0.708 0.673,-0.708 0.406,0 0.686,0.112 1.016,0.392 l 0.231,-0.399 c -0.379,-0.351 -0.771,-0.512 -1.423,-0.512 -0.699,0 -1.197,0.463 -1.197,1.275 0,0.694 0.287,1.45 0.778,1.926 0.35,0.336 0.735,0.491 1.169,0.491 0.673,0 1.058,-0.336 1.058,-0.925 0,-0.286 -0.119,-0.546 -0.323,-0.734"
           style="fill:#231f20;fill-opacity:1;fill-rule:nonzero;stroke:none"
           id="path2617" />
      </g>
      <g
         id="g2619"
         transform="matrix(0.32949796,0,0,-0.33513888,94.306325,121.10659)">
        <path
           d="m 0,0 c -0.084,-0.406 -0.07,-0.616 0.084,-0.834 l -0.525,-0.342 c -0.168,0.175 -0.26,0.379 -0.238,0.693 -0.393,-0.448 -0.827,-0.665 -1.254,-0.665 -0.484,0 -0.771,0.224 -0.771,0.707 0,0.161 0.022,0.357 0.056,0.525 l 0.504,2.354 0.659,0.119 -0.49,-2.333 c -0.042,-0.188 -0.064,-0.35 -0.064,-0.462 0,-0.273 0.098,-0.378 0.316,-0.378 0.329,0 0.805,0.287 1.128,0.798 l 0.475,2.242 0.658,0.119"
           style="fill:#231f20;fill-opacity:1;fill-rule:nonzero;stroke:none"
           id="path2621" />
      </g>
      <g
         id="g2623"
         transform="matrix(0.32949796,0,0,-0.33513888,95.33469,120.48223)">
        <path
           d="m 0,0 c -0.07,0.028 -0.132,0.042 -0.238,0.042 -0.287,0 -0.609,-0.238 -0.932,-0.714 L -1.638,-2.9 h -0.638 l 0.505,2.367 c 0.104,0.505 0.111,0.744 0.034,0.989 l 0.603,0.266 c 0.077,-0.19 0.105,-0.449 0.042,-0.77 0.329,0.462 0.763,0.749 1.092,0.749 0.133,0 0.197,-0.015 0.28,-0.042"
           style="fill:#231f20;fill-opacity:1;fill-rule:nonzero;stroke:none"
           id="path2625" />
      </g>
      <g
         id="g2627"
         transform="matrix(0.32949796,0,0,-0.33513888,95.948213,120.41152)">
        <path
           d="m 0,0 c -0.42,0 -0.826,-0.393 -1.002,-1.086 0.078,-0.007 0.224,-0.014 0.337,-0.014 0.539,0 0.819,0.076 0.995,0.252 0.104,0.104 0.167,0.231 0.167,0.392 C 0.497,-0.203 0.364,0 0,0 Z M 0.826,-1.162 C 0.533,-1.443 0.07,-1.583 -0.673,-1.583 c -0.16,0 -0.321,0.02 -0.434,0.02 -0.028,-0.118 -0.049,-0.287 -0.049,-0.405 0,-0.47 0.294,-0.708 0.673,-0.708 0.406,0 0.686,0.112 1.016,0.392 l 0.23,-0.399 c -0.379,-0.351 -0.77,-0.512 -1.421,-0.512 -0.701,0 -1.199,0.463 -1.199,1.275 0,0.694 0.287,1.45 0.779,1.926 0.35,0.336 0.735,0.491 1.17,0.491 0.671,0 1.056,-0.336 1.056,-0.925 0,-0.286 -0.118,-0.546 -0.322,-0.734"
           style="fill:#231f20;fill-opacity:1;fill-rule:nonzero;stroke:none"
           id="path2629" />
      </g>
      <g
         id="g2631"
         transform="matrix(0.32949796,0,0,-0.33513888,96.971963,120.7614)">
        <path
           d="M 0,0 C -0.244,-1.163 -0.63,-1.891 -1.197,-2.438 -1.541,-2.766 -1.96,-3.026 -2.352,-3.166 l -0.106,0.406 c 0.575,0.315 0.89,0.575 1.149,0.967 0.266,0.406 0.483,1.002 0.644,1.779 0.106,0.504 0.19,1.043 0.19,1.471 0,0.715 -0.183,1.218 -0.722,1.568 l 0.238,0.336 C -0.28,3.04 0.155,2.367 0.155,1.4 0.155,0.952 0.084,0.414 0,0"
           style="fill:#231f20;fill-opacity:1;fill-rule:nonzero;stroke:none"
           id="path2633" />
      </g>
      <g
         id="g2635"
         transform="matrix(0.32949796,0,0,-0.33513888,77.602756,95.734234)">
        <path
           d="m 0,0 c 0.601,1.204 2.103,3.006 2.103,3.006 0,0 1.503,-1.802 1.503,-3.006"
           style="fill:none;stroke:#231f20;stroke-width:1;stroke-linecap:butt;stroke-linejoin:miter;stroke-miterlimit:4;stroke-dasharray:none;stroke-opacity:1"
           id="path2637" />
      </g>
      <g
         id="g2639"
         transform="matrix(0.32949796,0,0,-0.33513888,89.156602,95.734234)">
        <path
           d="m 0,0 c -0.6,1.204 -2.103,3.006 -2.103,3.006 0,0 -1.503,-1.802 -1.503,-3.006"
           style="fill:none;stroke:#231f20;stroke-width:1;stroke-linecap:butt;stroke-linejoin:miter;stroke-miterlimit:4;stroke-dasharray:none;stroke-opacity:1"
           id="path2641" />
      </g>
      <g
         id="g2643"
         transform="matrix(0.32949796,0,0,-0.33513888,87.869253,100.61084)">
        <path
           d="M 0,0 C 0,0 0,-18.105 0,-23.562"
           style="fill:none;stroke:#231f20;stroke-width:1;stroke-linecap:butt;stroke-linejoin:miter;stroke-miterlimit:4;stroke-dasharray:none;stroke-opacity:1"
           id="path2645" />
      </g>
      <g
         id="g2647"
         transform="matrix(0.32949796,0,0,-0.33513888,78.890106,100.61084)">
        <path
           d="m 0,0 c 0,0 4.209,7.214 5.712,17.435 0,0 0.902,7.516 0.902,10.522 0,0 4.046,3.619 6.544,5.216 2.496,-1.597 7.479,-5.216 7.479,-5.216 0,-3.006 0.902,-10.522 0.902,-10.522 C 23.042,7.214 27.251,0 27.251,0"
           style="fill:none;stroke:#231f20;stroke-width:1;stroke-linecap:butt;stroke-linejoin:miter;stroke-miterlimit:4;stroke-dasharray:none;stroke-opacity:1"
           id="path2649" />
      </g>
      <g
         id="g2651"
         transform="matrix(0.32949796,0,0,-0.33513888,78.890106,108.50738)">
        <path
           d="M 0,0 C 0,5.457 0,23.562 0,23.562"
           style="fill:none;stroke:#231f20;stroke-width:1;stroke-linecap:butt;stroke-linejoin:miter;stroke-miterlimit:4;stroke-dasharray:none;stroke-opacity:1"
           id="path2653" />
      </g>
      <g
         id="g2655"
         transform="matrix(0.32949796,0,0,-0.33513888,77.107192,108.50738)">
        <path
           d="m 0,0 v -2.234 c 0,0 -1.81,-3.468 -1.81,-5.572 0,-2.227 2.391,-2.733 2.391,-4.536 0,-1.803 -1.713,-3.086 -1.713,-5.19 0,-2.105 4.139,-3.398 4.139,-3.398 0,0 4.248,0.443 4.548,2.847 0.301,2.404 -2.07,3.599 -2.07,6.005 0,2.403 1.85,2.158 1.85,4.564 0,2.405 -1.924,3.777 -1.924,6.182 0,0.247 0,0.707 0,1.332"
           style="fill:none;stroke:#231f20;stroke-width:1;stroke-linecap:butt;stroke-linejoin:miter;stroke-miterlimit:4;stroke-dasharray:none;stroke-opacity:1"
           id="path2657" />
      </g>
      <g
         id="g2659"
         transform="matrix(0.32949796,0,0,-0.33513888,77.107192,100.71172)">
        <path
           d="M 0,0 V -23.261"
           style="fill:none;stroke:#231f20;stroke-width:1;stroke-linecap:butt;stroke-linejoin:miter;stroke-miterlimit:4;stroke-dasharray:none;stroke-opacity:1"
           id="path2661" />
      </g>
      <g
         id="g2663"
         transform="matrix(0.32949796,0,0,-0.33513888,89.652167,100.71172)">
        <path
           d="m 0,0 c 8.718,10.221 1.804,23.749 1.804,26.454 0,2.684 28.375,62.439 -19.833,63.417 l -2.521,-0.012 c -47.5,-1.387 -19.327,-60.731 -19.327,-63.405 0,-2.705 -6.914,-16.233 1.804,-26.454"
           style="fill:none;stroke:#231f20;stroke-width:1;stroke-linecap:butt;stroke-linejoin:miter;stroke-miterlimit:4;stroke-dasharray:none;stroke-opacity:1"
           id="path2665" />
      </g>
      <g
         id="g2667"
         transform="matrix(0.32949796,0,0,-0.33513888,89.652167,108.50738)">
        <path
           d="M 0,0 V 23.261"
           style="fill:none;stroke:#231f20;stroke-width:1;stroke-linecap:butt;stroke-linejoin:miter;stroke-miterlimit:4;stroke-dasharray:none;stroke-opacity:1"
           id="path2669" />
      </g>
      <g
         id="g2671"
         transform="matrix(0.32949796,0,0,-0.33513888,76.742437,114.43833)">
        <path
           d="m 0,0 c -0.472,-0.413 -1.431,-1.793 -1.431,-3.505 0,0 5.465,-0.888 11.071,-0.062 0,0 -0.138,2.563 -1.201,3.567 0,0 -2.773,-1.594 -4.426,-1.594 C 2.361,-1.594 0,0 0,0"
           style="fill:#ffffff;fill-opacity:1;fill-rule:nonzero;stroke:none"
           id="path2673" />
      </g>
      <g
         id="g2675"
         transform="matrix(0.32949796,0,0,-0.33513888,76.742437,114.43833)">
        <path
           d="m 0,0 c -0.472,-0.413 -1.431,-1.793 -1.431,-3.505 0,0 5.465,-0.888 11.071,-0.062 0,0 -0.138,2.563 -1.201,3.567 0,0 -2.773,-1.594 -4.426,-1.594 C 2.361,-1.594 0,0 0,0 Z"
           style="fill:none;stroke:#231f20;stroke-width:1;stroke-linecap:butt;stroke-linejoin:miter;stroke-miterlimit:4;stroke-dasharray:none;stroke-opacity:1"
           id="path2677" />
      </g>
      <g
         id="g2679"
         transform="matrix(0.32949796,0,0,-0.33513888,87.872219,108.49599)">
        <path
           d="m 0,0 v -2.233 c 0,0 -1.809,-3.468 -1.809,-5.572 0,-2.227 2.391,-2.733 2.391,-4.536 0,-1.804 -1.713,-3.085 -1.713,-5.19 0,-2.104 4.138,-3.397 4.138,-3.397 0,0 4.249,0.441 4.548,2.847 0.301,2.405 -2.069,3.598 -2.069,6.003 0,2.405 1.849,2.16 1.849,4.566 0,2.404 -1.924,3.776 -1.924,6.181 0,0.247 0,0.706 0,1.331"
           style="fill:none;stroke:#231f20;stroke-width:1;stroke-linecap:butt;stroke-linejoin:miter;stroke-miterlimit:4;stroke-dasharray:none;stroke-opacity:1"
           id="path2681" />
      </g>
      <g
         id="g2683"
         transform="matrix(0.32949796,0,0,-0.33513888,87.507465,114.42661)">
        <path
           d="m 0,0 c -0.471,-0.413 -1.431,-1.793 -1.431,-3.505 0,0 5.466,-0.887 11.071,-0.061 0,0 -0.139,2.562 -1.201,3.566 0,0 -2.773,-1.594 -4.425,-1.594 C 2.361,-1.594 0,0 0,0"
           style="fill:#ffffff;fill-opacity:1;fill-rule:nonzero;stroke:none"
           id="path2685" />
      </g>
      <g
         id="g2687"
         transform="matrix(0.32949796,0,0,-0.33513888,87.507465,114.42661)">
        <path
           d="m 0,0 c -0.471,-0.413 -1.431,-1.793 -1.431,-3.505 0,0 5.466,-0.887 11.071,-0.061 0,0 -0.139,2.562 -1.201,3.566 0,0 -2.773,-1.594 -4.425,-1.594 C 2.361,-1.594 0,0 0,0 Z"
           style="fill:none;stroke:#231f20;stroke-width:1;stroke-linecap:butt;stroke-linejoin:miter;stroke-miterlimit:4;stroke-dasharray:none;stroke-opacity:1"
           id="path2689" />
      </g>
      <g
         id="g2731"
         transform="matrix(0.32949796,0,0,-0.33513888,84.664228,72.867405)">
        <path
           d="m 0,0 c 9,-12.666 0.333,-38 -0.334,-60.333 -0.588,-19.703 -1,-21.667 -1,-21.667 0,0 -0.333,-0.333 -1.666,-0.333 h -1.784 c -1.333,0 -1.666,0.333 -1.666,0.333 0,0 -0.412,1.964 -1,21.667 C -8.117,-38 -16.784,-12.666 -7.784,0"
           style="fill:#ffffff;fill-opacity:1;fill-rule:nonzero;stroke:none"
           id="path2733" />
      </g>
      <g
         id="g2735"
         transform="matrix(0.32949796,0,0,-0.33513888,84.664228,72.867405)">
        <path
           d="m 0,0 c 9,-12.666 0.333,-38 -0.334,-60.333 -0.588,-19.703 -1,-21.667 -1,-21.667 0,0 -0.333,-0.333 -1.666,-0.333 h -1.784 c -1.333,0 -1.666,0.333 -1.666,0.333 0,0 -0.412,1.964 -1,21.667 C -8.117,-38 -16.784,-12.666 -7.784,0"
           style="fill:none;stroke:#231f20;stroke-width:1;stroke-linecap:butt;stroke-linejoin:miter;stroke-miterlimit:4;stroke-dasharray:none;stroke-opacity:1"
           id="path2737" />
      </g>
    </g>
  </g>
</svg>
