<?xml version="1.0" encoding="UTF-8" standalone="no"?>
<svg
   xmlns:dc="http://purl.org/dc/elements/1.1/"
   xmlns:cc="http://creativecommons.org/ns#"
   xmlns:rdf="http://www.w3.org/1999/02/22-rdf-syntax-ns#"
   xmlns:svg="http://www.w3.org/2000/svg"
   xmlns="http://www.w3.org/2000/svg"
   width="62.244953mm"
   height="46.80407mm"
   viewBox="0 0 62.244954 46.80407"
   version="1.1"
   id="svg5299">
  <defs
     id="defs5293">
    <clipPath
       clipPathUnits="userSpaceOnUse"
       id="clipPath981">
      <path
         d="M 42.396,382.682 H 418.09 V 164.033 H 42.396"
         id="path979" />
    </clipPath>
  </defs>
  <metadata
     id="metadata5296">
    <rdf:RDF>
      <cc:Work
         rdf:about="">
        <dc:format>image/svg+xml</dc:format>
        <dc:type
           rdf:resource="http://purl.org/dc/dcmitype/StillImage" />
        <dc:title></dc:title>
      </cc:Work>
    </rdf:RDF>
  </metadata>
  <g
     id="g10126"
     transform="translate(-78.583037,-55.790706)">
    <g
       id="g1827"
       transform="matrix(0.32949796,0,0,-0.33513888,91.716142,57.811192)">
      <path
         d="m 0,0 c -0.28,-0.344 -0.736,-0.647 -1.584,-0.647 -0.831,0 -1.383,0.263 -1.663,0.767 -0.144,0.256 -0.175,0.408 -0.175,0.983 v 3.846 h 0.775 V 1.391 c 0,-0.399 0.04,-0.887 0.201,-1.071 0.151,-0.176 0.43,-0.312 0.871,-0.312 0.416,0 0.719,0.128 0.895,0.36 0.136,0.176 0.2,0.472 0.2,0.911 v 3.67 H 0.287 V 1.168 C 0.287,0.472 0.248,0.304 0,0"
         style="fill:#231f20;fill-opacity:1;fill-rule:nonzero;stroke:none"
         id="path1829" />
    </g>
    <g
       id="g1831"
       transform="matrix(0.32949796,0,0,-0.33513888,92.810075,56.830473)">
      <path
         d="m 0,0 c -0.359,0 -0.687,-0.176 -0.959,-0.496 v -2.038 c 0.247,-0.264 0.56,-0.44 0.856,-0.44 0.647,0 0.943,0.495 0.943,1.471 C 0.84,-0.551 0.632,0 0,0 Z m 0.065,-3.566 c -0.368,0 -0.728,0.136 -1.04,0.416 0.016,-0.128 0.016,-0.304 0.016,-0.448 v -1.407 l -0.719,-0.168 v 4.71 c 0,0.471 -0.033,0.727 -0.088,0.983 l 0.712,0.12 c 0.031,-0.12 0.047,-0.24 0.047,-0.576 0.312,0.376 0.711,0.56 1.136,0.56 0.815,0 1.502,-0.664 1.502,-2.039 0,-1.247 -0.543,-2.151 -1.566,-2.151"
         style="fill:#231f20;fill-opacity:1;fill-rule:nonzero;stroke:none"
         id="path1833" />
    </g>
    <g
       id="g1835"
       transform="matrix(0.32949796,0,0,-0.33513888,94.247016,56.830473)">
      <path
         d="m 0,0 c -0.361,0 -0.688,-0.176 -0.96,-0.496 v -2.038 c 0.249,-0.264 0.56,-0.44 0.855,-0.44 0.649,0 0.944,0.495 0.944,1.471 C 0.839,-0.551 0.631,0 0,0 Z m 0.064,-3.566 c -0.368,0 -0.728,0.136 -1.04,0.416 0.016,-0.128 0.016,-0.304 0.016,-0.448 v -1.407 l -0.719,-0.168 v 4.71 c 0,0.471 -0.032,0.727 -0.088,0.983 l 0.711,0.12 c 0.032,-0.12 0.049,-0.24 0.049,-0.576 0.31,0.376 0.711,0.56 1.135,0.56 0.815,0 1.502,-0.664 1.502,-2.039 0,-1.247 -0.543,-2.151 -1.566,-2.151"
         style="fill:#231f20;fill-opacity:1;fill-rule:nonzero;stroke:none"
         id="path1837" />
    </g>
    <g
       id="g1839"
       transform="matrix(0.32949796,0,0,-0.33513888,95.775556,56.894619)">
      <path
         d="m 0,0 c -0.128,0.16 -0.32,0.28 -0.575,0.28 -0.559,0 -0.84,-0.456 -0.84,-1.184 H 0.248 C 0.248,-0.52 0.16,-0.2 0,0 Z m -1.423,-1.447 v -0.096 c 0,-0.344 0.048,-0.608 0.168,-0.8 0.208,-0.32 0.537,-0.471 0.919,-0.471 0.376,0 0.696,0.127 0.985,0.383 l 0.279,-0.44 c -0.392,-0.343 -0.864,-0.511 -1.383,-0.511 -1.112,0 -1.791,0.807 -1.791,2.118 0,0.696 0.135,1.144 0.48,1.552 0.319,0.376 0.712,0.551 1.207,0.551 0.447,0 0.807,-0.144 1.087,-0.431 0.352,-0.36 0.48,-0.808 0.488,-1.727 0,-0.025 0,-0.081 0,-0.128"
         style="fill:#231f20;fill-opacity:1;fill-rule:nonzero;stroke:none"
         id="path1841" />
    </g>
    <g
       id="g1843"
       transform="matrix(0.32949796,0,0,-0.33513888,97.054041,56.873371)">
      <path
         d="m 0,0 c -0.072,0.024 -0.128,0.04 -0.208,0.04 -0.447,0 -0.831,-0.375 -0.831,-0.815 v -2.583 h -0.735 v 2.943 c 0,0.487 -0.056,0.751 -0.153,0.999 l 0.712,0.184 C -1.142,0.616 -1.079,0.352 -1.079,0.152 V 0.08 c 0.319,0.464 0.664,0.696 1.087,0.696 0.097,0 0.185,-0.016 0.249,-0.04"
         style="fill:#231f20;fill-opacity:1;fill-rule:nonzero;stroke:none"
         id="path1845" />
    </g>
    <g
       id="g1847"
       transform="matrix(0.32949796,0,0,-0.33513888,100.71242,60.995981)">
      <path
         d="m 0,0 -0.288,3.75 c -0.024,0.296 -0.033,0.711 -0.04,0.871 H -0.344 C -0.376,4.461 -0.456,4.118 -0.544,3.822 L -1.639,0 H -2.303 L -3.311,3.646 C -3.43,4.07 -3.527,4.485 -3.558,4.629 H -3.575 C -3.582,4.437 -3.607,3.934 -3.631,3.646 L -3.91,0 h -0.752 l 0.496,5.509 h 1.079 l 0.928,-3.382 c 0.12,-0.448 0.184,-0.784 0.2,-0.904 h 0.015 c 0.025,0.136 0.088,0.496 0.193,0.864 l 0.959,3.422 H 0.296 L 0.767,0"
         style="fill:#231f20;fill-opacity:1;fill-rule:nonzero;stroke:none"
         id="path1849" />
    </g>
    <g
       id="g1851"
       transform="matrix(0.32949796,0,0,-0.33513888,101.34803,60.995981)">
      <path
         d="m 0,0 v 3.982 l 0.76,0.12 V 0 Z m 0.376,4.709 c -0.288,0 -0.51,0.24 -0.51,0.528 0,0.296 0.231,0.536 0.518,0.536 0.288,0 0.528,-0.232 0.528,-0.536 0,-0.288 -0.24,-0.528 -0.536,-0.528"
         style="fill:#231f20;fill-opacity:1;fill-rule:nonzero;stroke:none"
         id="path1853" />
    </g>
    <g
       id="g1855"
       transform="matrix(0.32949796,0,0,-0.33513888,102.77904,59.953601)">
      <path
         d="m 0,0 c -0.208,0.248 -0.472,0.376 -0.847,0.376 -0.304,0 -0.543,-0.152 -0.696,-0.408 -0.151,-0.264 -0.208,-0.584 -0.208,-1.103 0,-0.776 0.096,-0.992 0.313,-1.216 0.135,-0.144 0.319,-0.208 0.591,-0.208 0.424,0 0.712,0.224 0.847,0.464 z m 0.153,-3.11 c -0.041,0.12 -0.048,0.175 -0.072,0.376 -0.28,-0.296 -0.608,-0.44 -1.032,-0.44 -1.023,0 -1.623,0.767 -1.623,2.031 0,0.863 0.296,1.527 0.84,1.878 0.247,0.161 0.496,0.232 0.783,0.232 0.384,0 0.704,-0.135 0.976,-0.463 0,0.112 -0.017,0.432 -0.017,0.703 v 1.56 l 0.736,-0.12 v -4.414 c 0,-0.647 0.025,-1.095 0.113,-1.343"
         style="fill:#231f20;fill-opacity:1;fill-rule:nonzero;stroke:none"
         id="path1857" />
    </g>
    <g
       id="g1859"
       transform="matrix(0.32949796,0,0,-0.33513888,105.98505,63.993597)">
      <path
         d="m 0,0 h -2.751 v 5.509 h 0.784 V 0.64 h 2.095"
         style="fill:#231f20;fill-opacity:1;fill-rule:nonzero;stroke:none"
         id="path1861" />
    </g>
    <g
       id="g1863"
       transform="matrix(0.32949796,0,0,-0.33513888,106.70204,62.803921)">
      <path
         d="m 0,0 c -0.64,0 -0.904,-0.456 -0.904,-1.463 0,-1.224 0.312,-1.631 0.936,-1.631 0.559,0 0.903,0.432 0.903,1.479 C 0.935,-0.376 0.576,0 0,0 Z m 0.016,-3.662 c -1.072,0 -1.735,0.816 -1.735,2.119 0,1.296 0.663,2.111 1.719,2.111 1.183,0 1.759,-0.944 1.759,-2.151 0,-1.271 -0.679,-2.079 -1.743,-2.079"
         style="fill:#231f20;fill-opacity:1;fill-rule:nonzero;stroke:none"
         id="path1865" />
    </g>
    <g
       id="g1867"
       transform="matrix(0.32949796,0,0,-0.33513888,108.82368,64.004389)">
      <path
         d="m 0,0 h -0.712 l -0.584,2.183 c -0.071,0.28 -0.247,0.943 -0.247,0.943 h -0.024 c 0,0 -0.16,-0.679 -0.216,-0.895 L -2.383,0 h -0.704 l -1.095,4.006 0.744,0.12 0.512,-2.247 c 0.088,-0.4 0.207,-0.984 0.207,-0.984 h 0.025 c 0,0 0.087,0.568 0.183,0.912 l 0.608,2.231 h 0.759 l 0.56,-2.167 c 0.112,-0.432 0.225,-0.936 0.225,-0.976 h 0.031 c 0,0.04 0.128,0.688 0.183,0.952 l 0.496,2.191 h 0.768"
         style="fill:#231f20;fill-opacity:1;fill-rule:nonzero;stroke:none"
         id="path1869" />
    </g>
    <g
       id="g1871"
       transform="matrix(0.32949796,0,0,-0.33513888,110.08631,62.88965)">
      <path
         d="m 0,0 c -0.128,0.16 -0.319,0.28 -0.576,0.28 -0.56,0 -0.839,-0.456 -0.839,-1.183 H 0.248 C 0.248,-0.52 0.16,-0.2 0,0 Z m -1.424,-1.447 v -0.096 c 0,-0.344 0.049,-0.607 0.168,-0.799 0.208,-0.32 0.536,-0.473 0.92,-0.473 0.376,0 0.695,0.128 0.983,0.384 l 0.28,-0.439 c -0.392,-0.344 -0.864,-0.512 -1.383,-0.512 -1.111,0 -1.791,0.808 -1.791,2.119 0,0.696 0.136,1.143 0.479,1.551 0.321,0.376 0.712,0.552 1.208,0.552 0.449,0 0.808,-0.144 1.087,-0.432 0.352,-0.36 0.48,-0.807 0.489,-1.727 0,-0.024 0,-0.08 0,-0.128"
         style="fill:#231f20;fill-opacity:1;fill-rule:nonzero;stroke:none"
         id="path1873" />
    </g>
    <g
       id="g1875"
       transform="matrix(0.32949796,0,0,-0.33513888,111.36476,62.868067)">
      <path
         d="m 0,0 c -0.071,0.024 -0.128,0.04 -0.208,0.04 -0.447,0 -0.831,-0.376 -0.831,-0.816 v -2.582 h -0.736 v 2.942 c 0,0.488 -0.056,0.752 -0.152,0.999 l 0.711,0.185 C -1.144,0.615 -1.079,0.352 -1.079,0.152 V 0.08 c 0.32,0.463 0.663,0.695 1.088,0.695 0.095,0 0.183,-0.016 0.247,-0.04"
         style="fill:#231f20;fill-opacity:1;fill-rule:nonzero;stroke:none"
         id="path1877" />
    </g>
    <g
       id="g1879"
       transform="matrix(0.32949796,0,0,-0.33513888,105.91025,82.558281)">
      <path
         d="m 0,0 c -0.167,-2 1.333,-15.75 1.167,-17.5 0,0 0.665,-1.667 0.665,-3.25 0,-0.921 -0.369,-2.163 -0.332,-3 0.417,-9.334 2.083,-9 2.917,-13.333 0.142,-0.736 -4.167,-3.834 -4.167,-6.084 0,-2.25 1.084,-4.5 0.5,-5.25 -0.583,-0.75 -7.834,-2.25 -8.417,-0.5 -0.583,1.75 5.75,9.417 5.334,13.167 -0.417,3.75 -3.833,12.334 -5.167,13.667 -1.333,1.333 -3.083,20.833 -3.083,20.833 l 1.75,4.583"
         style="fill:#ffffff;fill-opacity:1;fill-rule:nonzero;stroke:none"
         id="path1881" />
    </g>
    <g
       id="g1883"
       transform="matrix(0.32949796,0,0,-0.33513888,105.91025,82.558281)">
      <path
         d="m 0,0 c -0.167,-2 1.333,-15.75 1.167,-17.5 0,0 0.665,-1.667 0.665,-3.25 0,-0.921 -0.369,-2.163 -0.332,-3 0.417,-9.334 2.083,-9 2.917,-13.333 0.142,-0.736 -4.167,-3.834 -4.167,-6.084 0,-2.25 1.084,-4.5 0.5,-5.25 -0.583,-0.75 -7.834,-2.25 -8.417,-0.5 -0.583,1.75 5.75,9.417 5.334,13.167 -0.417,3.75 -3.833,12.334 -5.167,13.667 -1.333,1.333 -3.083,20.833 -3.083,20.833 l 1.75,4.583 z"
         style="fill:none;stroke:#231f20;stroke-width:1;stroke-linecap:butt;stroke-linejoin:miter;stroke-miterlimit:4;stroke-dasharray:none;stroke-opacity:1"
         id="path1885" />
    </g>
    <g
       id="g1887"
       transform="matrix(0.32949796,0,0,-0.33513888,133.39796,69.578182)">
      <path
         d="m 0,0 c 6.322,1.998 20.631,0.334 20.631,-8.65 0,-8.986 0.333,-43.592 1.331,-47.585 0,0 -5.324,-2.329 -10.316,-1.331 l -8.984,16.637"
         style="fill:#ffffff;fill-opacity:1;fill-rule:nonzero;stroke:none"
         id="path1889" />
    </g>
    <g
       id="g1891"
       transform="matrix(0.32949796,0,0,-0.33513888,133.39796,69.578182)">
      <path
         d="m 0,0 c 6.322,1.998 20.631,0.334 20.631,-8.65 0,-8.986 0.333,-43.592 1.331,-47.585 0,0 -5.324,-2.329 -10.316,-1.331 l -8.984,16.637 z"
         style="fill:none;stroke:#231f20;stroke-width:1;stroke-linecap:butt;stroke-linejoin:miter;stroke-miterlimit:4;stroke-dasharray:none;stroke-opacity:1"
         id="path1893" />
    </g>
    <g
       id="g1895"
       transform="matrix(0.32949796,0,0,-0.33513888,137.11898,70.337173)">
      <path
         d="M 0,0 C 2.347,-0.782 7.824,-1.409 7.98,-10.953"
         style="fill:none;stroke:#918f90;stroke-width:1;stroke-linecap:butt;stroke-linejoin:miter;stroke-miterlimit:4;stroke-dasharray:none;stroke-opacity:1"
         id="path1897" />
    </g>
    <g
       id="g1899"
       transform="matrix(0.32949796,0,0,-0.33513888,139.80011,75.476193)">
      <path
         d="M 0,0 C 0,-1.096 -0.001,-23.158 0.468,-26.444"
         style="fill:none;stroke:#918f90;stroke-width:1;stroke-linecap:butt;stroke-linejoin:miter;stroke-miterlimit:4;stroke-dasharray:none;stroke-opacity:1"
         id="path1901" />
    </g>
    <g
       id="g1903"
       transform="matrix(0.32949796,0,0,-0.33513888,140.05778,85.806916)">
      <path
         d="M 0,0 C 0,-1.565 0.143,-5.664 0.613,-7.542"
         style="fill:none;stroke:#918f90;stroke-width:1;stroke-linecap:butt;stroke-linejoin:miter;stroke-miterlimit:4;stroke-dasharray:none;stroke-opacity:1"
         id="path1905" />
    </g>
    <g
       id="g1907"
       transform="matrix(0.32949796,0,0,-0.33513888,137.06758,70.914184)">
      <path
         d="M 0,0 C 1.564,-0.626 5.632,-5.633 5.632,-10.953"
         style="fill:none;stroke:#918f90;stroke-width:1;stroke-linecap:butt;stroke-linejoin:miter;stroke-miterlimit:4;stroke-dasharray:none;stroke-opacity:1"
         id="path1909" />
    </g>
    <g
       id="g1911"
       transform="matrix(0.32949796,0,0,-0.33513888,139.02645,75.791022)">
      <path
         d="M 0,0 C 0,-1.565 0.783,-24.409 0.939,-26.443"
         style="fill:none;stroke:#918f90;stroke-width:1;stroke-linecap:butt;stroke-linejoin:miter;stroke-miterlimit:4;stroke-dasharray:none;stroke-opacity:1"
         id="path1913" />
    </g>
    <g
       id="g1915"
       transform="matrix(0.32949796,0,0,-0.33513888,139.38758,85.334973)">
      <path
         d="M 0,0 C 0.312,-2.034 1,-7.566 1.312,-9.287"
         style="fill:none;stroke:#918f90;stroke-width:1;stroke-linecap:butt;stroke-linejoin:miter;stroke-miterlimit:4;stroke-dasharray:none;stroke-opacity:1"
         id="path1917" />
    </g>
    <g
       id="g1919"
       transform="matrix(0.32949796,0,0,-0.33513888,136.70645,71.858065)">
      <path
         d="M 0,0 C 2.034,-1.877 4.381,-7.979 4.381,-12.048"
         style="fill:none;stroke:#918f90;stroke-width:1;stroke-linecap:butt;stroke-linejoin:miter;stroke-miterlimit:4;stroke-dasharray:none;stroke-opacity:1"
         id="path1921" />
    </g>
    <g
       id="g1923"
       transform="matrix(0.32949796,0,0,-0.33513888,138.14998,77.469031)">
      <path
         d="M 0,0 C 0.157,-2.348 0.626,-8.293 0.626,-10.327"
         style="fill:none;stroke:#918f90;stroke-width:1;stroke-linecap:butt;stroke-linejoin:miter;stroke-miterlimit:4;stroke-dasharray:none;stroke-opacity:1"
         id="path1925" />
    </g>
    <g
       id="g1927"
       transform="matrix(0.32949796,0,0,-0.33513888,138.45938,82.34587)">
      <path
         d="M 0,0 C 0,-1.566 1.521,-16.277 1.991,-18.625"
         style="fill:none;stroke:#918f90;stroke-width:1;stroke-linecap:butt;stroke-linejoin:miter;stroke-miterlimit:4;stroke-dasharray:none;stroke-opacity:1"
         id="path1929" />
    </g>
    <g
       id="g1931"
       transform="matrix(0.32949796,0,0,-0.33513888,137.01552,78.570329)">
      <path
         d="M 0,0 C 0.314,-2.504 0.626,-10.015 1.252,-13.926"
         style="fill:none;stroke:#918f90;stroke-width:1;stroke-linecap:butt;stroke-linejoin:miter;stroke-miterlimit:4;stroke-dasharray:none;stroke-opacity:1"
         id="path1933" />
    </g>
    <g
       id="g1935"
       transform="matrix(0.32949796,0,0,-0.33513888,137.63432,84.548505)">
      <path
         d="M 0,0 C 0.47,-1.878 1.56,-10.533 1.873,-12.567"
         style="fill:none;stroke:#918f90;stroke-width:1;stroke-linecap:butt;stroke-linejoin:miter;stroke-miterlimit:4;stroke-dasharray:none;stroke-opacity:1"
         id="path1937" />
    </g>
    <g
       id="g1939"
       transform="matrix(0.32949796,0,0,-0.33513888,136.16114,81.034439)">
      <path
         d="M 0,0 C 0.232,-1.4 1.866,-14.463 2.099,-15.396"
         style="fill:none;stroke:#918f90;stroke-width:1;stroke-linecap:butt;stroke-linejoin:miter;stroke-miterlimit:4;stroke-dasharray:none;stroke-opacity:1"
         id="path1941" />
    </g>
    <g
       id="g1943"
       transform="matrix(0.32949796,0,0,-0.33513888,129.64301,99.571574)">
      <path
         d="M 0,0 C 1.925,4.125 7.344,3.959 6.942,7.377 6.166,13.969 9.981,29.6 15.971,36.088 21.961,42.577 -7.988,61.794 -7.988,61.794 -8.238,59.299 -4.744,51.313 -3.994,49.316 -3.246,47.319 -3.745,45.323 -1.5,41.329 0.748,37.336 7.736,17.121 -3.994,4.144 L -6.555,1.413"
         style="fill:#ffffff;fill-opacity:1;fill-rule:nonzero;stroke:none"
         id="path1945" />
    </g>
    <g
       id="g1947"
       transform="matrix(0.32949796,0,0,-0.33513888,129.64301,99.571574)">
      <path
         d="M 0,0 C 1.925,4.125 7.344,3.959 6.942,7.377 6.166,13.969 9.981,29.6 15.971,36.088 21.961,42.577 -7.988,61.794 -7.988,61.794 -8.238,59.299 -4.744,51.313 -3.994,49.316 -3.246,47.319 -3.745,45.323 -1.5,41.329 0.748,37.336 7.736,17.121 -3.994,4.144 L -6.555,1.413"
         style="fill:none;stroke:#231f20;stroke-width:1;stroke-linecap:butt;stroke-linejoin:miter;stroke-miterlimit:4;stroke-dasharray:none;stroke-opacity:1"
         id="path1949" />
    </g>
    <g
       id="g1951"
       transform="matrix(0.32949796,0,0,-0.33513888,85.667217,65.620362)">
      <path
         d="M 0,0 C 0,0 1.207,-0.604 2.412,-1.085"
         style="fill:#ffffff;fill-opacity:1;fill-rule:nonzero;stroke:none"
         id="path1953" />
    </g>
    <g
       id="g1955"
       transform="matrix(0.32949796,0,0,-0.33513888,85.667217,65.620362)">
      <path
         d="M 0,0 C 0,0 1.207,-0.604 2.412,-1.085"
         style="fill:none;stroke:#231f20;stroke-width:1;stroke-linecap:butt;stroke-linejoin:miter;stroke-miterlimit:4;stroke-dasharray:none;stroke-opacity:1"
         id="path1957" />
    </g>
    <g
       id="g1959"
       transform="matrix(0.32949796,0,0,-0.33513888,104.52274,82.920601)">
      <path
         d="m 0,0 c -1.09,-3.172 -2.584,-8.833 -2.379,-11.1 0.251,-2.745 0.999,-11.729 0.999,-11.729 l -2.995,-1.997 c 0,0 -2.058,-5.251 -1.164,-11.427 0.917,-6.333 -2.809,-7.586 -4.326,-8.538 -3.257,-2.045 -1.247,-6.739 -5.74,-6.739 -4.492,0 -6.241,0.249 -4.992,1.997 1.248,1.747 5.491,4.492 6.241,5.989 0.736,1.474 7.275,7.334 -0.878,47.105 -1.95,1.22 -3.519,2.819 -4.47,4.912 -5.862,12.897 -4.456,13.131 -4.456,18.76 0,0 -8.207,18.995 -20.401,24.857 -1.247,-1.031 -4.315,-3.076 -9.38,-1.876 0,0 -10.084,-2.111 -13.133,-7.738 0,0 -3.048,-1.409 -6.097,-0.47 l 4.221,4.456 c 0,0 -4.456,-3.752 -5.394,-3.986 -0.937,-0.236 -5.159,2.111 -3.517,5.627 1.641,3.518 10.787,11.256 11.725,13.602 0.938,2.345 3.365,7.09 6.325,9.29 1.016,0.757 3.88,2.935 6.257,2.935 0,0 0.587,-0.462 2.17,-2.666 -1.067,3.788 -6.653,7.481 -6.653,7.481 l 0.748,0.999 c 3.398,-0.2 8.074,-3.728 10.52,-7.654 l -0.353,1.411 1.211,-0.187 c 11.772,-2.19 33.516,-9.592 66.775,-29.432 6.8,-3.048 34.238,4.456 45.495,4.456 8.442,0 33.298,-2.815 33.298,-24.389 0,-7.504 -6.096,-24.153 -6.096,-27.202 0,-6.098 8.207,-8.207 8.207,-11.021 0,0 -1.876,-21.34 1.174,-28.14 0,0 0.702,-2.815 -2.815,-5.16 0,0 -1.876,-0.23 -1.876,-4.925 0,-7.122 -8.124,-5.612 -9.696,-5.49 -1.658,0.127 -1.209,1.39 -0.838,1.967 0.537,0.838 5.375,8.448 5.375,8.448 1.173,2.813 4.925,18.995 -3.752,30.486 0,0 -7.505,9.38 -8.442,13.601 0,0 -7.504,5.862 -8.207,9.381 -1.563,1.437 -4.174,4.46 -7.036,3.282 0,0 -15.712,-12.663 -50.419,-7.973 0,0 -10.192,-1.372 -12.358,-1.289"
         style="fill:#ffffff;fill-opacity:1;fill-rule:nonzero;stroke:none"
         id="path1961" />
    </g>
    <g
       id="g1963"
       transform="matrix(0.32949796,0,0,-0.33513888,104.52274,82.920601)">
      <path
         d="m 0,0 c -1.09,-3.172 -2.584,-8.833 -2.379,-11.1 0.251,-2.745 0.999,-11.729 0.999,-11.729 l -2.995,-1.997 c 0,0 -2.058,-5.251 -1.164,-11.427 0.917,-6.333 -2.809,-7.586 -4.326,-8.538 -3.257,-2.045 -1.247,-6.739 -5.74,-6.739 -4.492,0 -6.241,0.249 -4.992,1.997 1.248,1.747 5.491,4.492 6.241,5.989 0.736,1.474 7.275,7.334 -0.878,47.105 -1.95,1.22 -3.519,2.819 -4.47,4.912 -5.862,12.897 -4.456,13.131 -4.456,18.76 0,0 -8.207,18.995 -20.401,24.857 -1.247,-1.031 -4.315,-3.076 -9.38,-1.876 0,0 -10.084,-2.111 -13.133,-7.738 0,0 -3.048,-1.409 -6.097,-0.47 l 4.221,4.456 c 0,0 -4.456,-3.752 -5.394,-3.986 -0.937,-0.236 -5.159,2.111 -3.517,5.627 1.641,3.518 10.787,11.256 11.725,13.602 0.938,2.345 3.365,7.09 6.325,9.29 1.016,0.757 3.88,2.935 6.257,2.935 0,0 0.587,-0.462 2.17,-2.666 -1.067,3.788 -6.653,7.481 -6.653,7.481 l 0.748,0.999 c 3.398,-0.2 8.074,-3.728 10.52,-7.654 l -0.353,1.411 1.211,-0.187 c 11.772,-2.19 33.516,-9.592 66.775,-29.432 6.8,-3.048 34.238,4.456 45.495,4.456 8.442,0 33.298,-2.815 33.298,-24.389 0,-7.504 -6.096,-24.153 -6.096,-27.202 0,-6.098 8.207,-8.207 8.207,-11.021 0,0 -1.876,-21.34 1.174,-28.14 0,0 0.702,-2.815 -2.815,-5.16 0,0 -1.876,-0.23 -1.876,-4.925 0,-7.122 -8.124,-5.612 -9.696,-5.49 -1.658,0.127 -1.209,1.39 -0.838,1.967 0.537,0.838 5.375,8.448 5.375,8.448 1.173,2.813 4.925,18.995 -3.752,30.486 0,0 -7.505,9.38 -8.442,13.601 0,0 -7.504,5.862 -8.207,9.381 -1.563,1.437 -4.174,4.46 -7.036,3.282 0,0 -15.712,-12.663 -50.419,-7.973 0,0 -10.192,-1.372 -12.358,-1.289 z"
         style="fill:none;stroke:#231f20;stroke-width:1;stroke-linecap:butt;stroke-linejoin:miter;stroke-miterlimit:4;stroke-dasharray:none;stroke-opacity:1"
         id="path1965" />
    </g>
    <g
       id="g1967"
       transform="matrix(0.32949796,0,0,-0.33513888,121.83028,70.079585)">
      <path
         d="M 0,0 C 1.498,-2.496 4.993,-5.49 6.99,-6.988"
         style="fill:#ffffff;fill-opacity:1;fill-rule:nonzero;stroke:none"
         id="path1969" />
    </g>
    <g
       id="g1971"
       transform="matrix(0.32949796,0,0,-0.33513888,121.83028,70.079585)">
      <path
         d="M 0,0 C 1.498,-2.496 4.993,-5.49 6.99,-6.988"
         style="fill:none;stroke:#231f20;stroke-width:0.5;stroke-linecap:butt;stroke-linejoin:miter;stroke-miterlimit:4;stroke-dasharray:none;stroke-opacity:1"
         id="path1973" />
    </g>
    <g
       id="g1975"
       transform="matrix(0.32949796,0,0,-0.33513888,92.391285,64.224812)">
      <path
         d="M 0,0 C 0.499,-1.497 1.996,-6.488 3.494,-7.986"
         style="fill:#ffffff;fill-opacity:1;fill-rule:nonzero;stroke:none"
         id="path1977" />
    </g>
    <g
       id="g1979"
       transform="matrix(0.32949796,0,0,-0.33513888,92.391285,64.224812)">
      <path
         d="M 0,0 C 0.499,-1.497 1.996,-6.488 3.494,-7.986"
         style="fill:none;stroke:#231f20;stroke-width:0.5;stroke-linecap:butt;stroke-linejoin:miter;stroke-miterlimit:4;stroke-dasharray:none;stroke-opacity:1"
         id="path1981" />
    </g>
    <g
       id="g1983"
       transform="matrix(0.32949796,0,0,-0.33513888,79.407416,66.651954)">
      <path
         d="m 0,0 c -0.719,-1.078 -0.773,-2.309 -0.117,-2.747 0.655,-0.438 1.771,0.083 2.492,1.163 0.721,1.08 0.775,2.311 0.12,2.747 C 1.839,1.602 0.723,1.081 0,0"
         style="fill:#ffffff;fill-opacity:1;fill-rule:nonzero;stroke:none"
         id="path1985" />
    </g>
    <g
       id="g1987"
       transform="matrix(0.32949796,0,0,-0.33513888,79.407416,66.651954)">
      <path
         d="m 0,0 c -0.719,-1.078 -0.773,-2.309 -0.117,-2.747 0.655,-0.438 1.771,0.083 2.492,1.163 0.721,1.08 0.775,2.311 0.12,2.747 C 1.839,1.602 0.723,1.081 0,0 Z"
         style="fill:none;stroke:#231f20;stroke-width:0.5;stroke-linecap:butt;stroke-linejoin:miter;stroke-miterlimit:4;stroke-dasharray:none;stroke-opacity:1"
         id="path1989" />
    </g>
    <g
       id="g1991"
       transform="matrix(0.32949796,0,0,-0.33513888,85.662606,62.774295)">
      <path
         d="M 0,0 C -0.784,-1.176 -1.961,-3.331 -3.626,-4.114"
         style="fill:#ffffff;fill-opacity:1;fill-rule:nonzero;stroke:none"
         id="path1993" />
    </g>
    <g
       id="g1995"
       transform="matrix(0.32949796,0,0,-0.33513888,85.662606,62.774295)">
      <path
         d="M 0,0 C -0.784,-1.176 -1.961,-3.331 -3.626,-4.114"
         style="fill:none;stroke:#231f20;stroke-width:0.5;stroke-linecap:butt;stroke-linejoin:miter;stroke-miterlimit:4;stroke-dasharray:none;stroke-opacity:1"
         id="path1997" />
    </g>
    <g
       id="g1999"
       transform="matrix(0.32949796,0,0,-0.33513888,91.014312,62.821081)">
      <path
         d="M 0,0 C 0.541,-1.893 0.399,-3.555 -2.464,-6.809"
         style="fill:#ffffff;fill-opacity:1;fill-rule:nonzero;stroke:none"
         id="path2001" />
    </g>
    <g
       id="g2003"
       transform="matrix(0.32949796,0,0,-0.33513888,91.014312,62.821081)">
      <path
         d="M 0,0 C 0.541,-1.893 0.399,-3.555 -2.464,-6.809"
         style="fill:none;stroke:#231f20;stroke-width:0.5;stroke-linecap:butt;stroke-linejoin:miter;stroke-miterlimit:4;stroke-dasharray:none;stroke-opacity:1"
         id="path2005" />
    </g>
    <g
       id="g2007"
       transform="matrix(0.32949796,0,0,-0.33513888,136.78916,101.17186)">
      <path
         d="M 0,0 C -0.842,1.604 -5.364,1.412 -8.259,1.227"
         style="fill:none;stroke:#231f20;stroke-width:1;stroke-linecap:butt;stroke-linejoin:miter;stroke-miterlimit:4;stroke-dasharray:none;stroke-opacity:1"
         id="path2009" />
    </g>
    <g
       id="g2011"
       transform="matrix(0.32949796,0,0,-0.33513888,106.07501,98.030606)">
      <path
         d="M 0,0 C -0.667,0.333 -5.25,2.167 -6.583,1.083"
         style="fill:none;stroke:#231f20;stroke-width:1;stroke-linecap:butt;stroke-linejoin:miter;stroke-miterlimit:4;stroke-dasharray:none;stroke-opacity:1"
         id="path2013" />
    </g>
    <g
       id="g2015"
       transform="matrix(0.32949796,0,0,-0.33513888,98.633952,98.7287)">
      <path
         d="M 0,0 C 1.416,0.416 5.048,-0.082 5.632,-1.666"
         style="fill:none;stroke:#231f20;stroke-width:1;stroke-linecap:butt;stroke-linejoin:miter;stroke-miterlimit:4;stroke-dasharray:none;stroke-opacity:1"
         id="path2017" />
    </g>
    <g
       id="g2019"
       transform="matrix(0.32949796,0,0,-0.33513888,89.227115,55.790706)">
      <path
         d="M 0,0 V -11.588"
         style="fill:none;stroke:#918f90;stroke-width:0.5;stroke-linecap:butt;stroke-linejoin:miter;stroke-miterlimit:4;stroke-dasharray:none;stroke-opacity:1"
         id="path2021" />
    </g>
    <g
       id="g2023"
       transform="matrix(0.32949796,0,0,-0.33513888,97.494219,57.794668)">
      <path
         d="M 0,0 -4.271,-10.772"
         style="fill:none;stroke:#918f90;stroke-width:0.5;stroke-linecap:butt;stroke-linejoin:miter;stroke-miterlimit:4;stroke-dasharray:none;stroke-opacity:1"
         id="path2025" />
    </g>
    <g
       id="g2027"
       transform="matrix(0.32949796,0,0,-0.33513888,104.64103,61.048531)">
      <path
         d="M 0,0 -4.863,-10.52"
         style="fill:none;stroke:#918f90;stroke-width:0.5;stroke-linecap:butt;stroke-linejoin:miter;stroke-miterlimit:4;stroke-dasharray:none;stroke-opacity:1"
         id="path2029" />
    </g>
    <g
       id="g2031"
       transform="matrix(0.32949796,0,0,-0.33513888,111.35817,64.704293)">
      <path
         d="M 0,0 -6.412,-9.652"
         style="fill:none;stroke:#918f90;stroke-width:0.5;stroke-linecap:butt;stroke-linejoin:miter;stroke-miterlimit:4;stroke-dasharray:none;stroke-opacity:1"
         id="path2033" />
    </g>
    <g
       id="g2035"
       transform="matrix(0.32949796,0,0,-0.33513888,125.46036,79.123107)">
      <path
         d="M 0,0 C -2,1 -6,1.75 -8,1"
         style="fill:none;stroke:#231f20;stroke-width:0.5;stroke-linecap:butt;stroke-linejoin:miter;stroke-miterlimit:4;stroke-dasharray:none;stroke-opacity:1"
         id="path2037" />
    </g>
    <g
       id="g2039"
       transform="matrix(0.32949796,0,0,-0.33513888,104.70199,82.390711)">
      <path
         d="M 0,0 C 0.5,1.25 0,4 -0.25,5.5"
         style="fill:none;stroke:#231f20;stroke-width:0.5;stroke-linecap:butt;stroke-linejoin:miter;stroke-miterlimit:4;stroke-dasharray:none;stroke-opacity:1"
         id="path2041" />
    </g>
    <g
       id="g2043"
       transform="matrix(0.32949796,0,0,-0.33513888,117.31714,62.476124)">
      <path
         d="m 0,0 h -2.75 v 5.509 h 0.783 V 0.64 h 2.095"
         style="fill:#231f20;fill-opacity:1;fill-rule:nonzero;stroke:none"
         id="path2045" />
    </g>
    <g
       id="g2047"
       transform="matrix(0.32949796,0,0,-0.33513888,118.18768,61.372208)">
      <path
         d="m 0,0 c -0.128,0.16 -0.32,0.28 -0.576,0.28 -0.56,0 -0.839,-0.456 -0.839,-1.183 H 0.248 C 0.248,-0.52 0.16,-0.2 0,0 Z m -1.423,-1.447 v -0.096 c 0,-0.344 0.048,-0.607 0.167,-0.799 0.208,-0.32 0.536,-0.473 0.92,-0.473 0.376,0 0.696,0.128 0.983,0.384 L 0.928,-2.87 c -0.393,-0.344 -0.864,-0.512 -1.384,-0.512 -1.111,0 -1.791,0.808 -1.791,2.119 0,0.696 0.136,1.143 0.479,1.551 0.321,0.376 0.712,0.552 1.208,0.552 0.448,0 0.808,-0.144 1.087,-0.432 0.353,-0.36 0.481,-0.807 0.488,-1.727 0,-0.024 0,-0.08 0,-0.128"
         style="fill:#231f20;fill-opacity:1;fill-rule:nonzero;stroke:none"
         id="path2049" />
    </g>
    <g
       id="g2051"
       transform="matrix(0.32949796,0,0,-0.33513888,119.48722,60.75314)">
      <path
         d="m 0,0 c -0.176,0.088 -0.336,0.152 -0.52,0.152 -0.335,0 -0.535,-0.232 -0.535,-0.64 v -0.647 h 1.063 l -0.191,-0.52 h -0.865 v -3.486 h -0.743 v 3.486 h -0.384 v 0.52 h 0.392 C -1.8,-1.055 -1.8,-0.56 -1.8,-0.496 c 0,0.544 0.233,0.848 0.449,1 0.192,0.136 0.431,0.192 0.727,0.192 0.328,0 0.624,-0.064 0.872,-0.216"
         style="fill:#231f20;fill-opacity:1;fill-rule:nonzero;stroke:none"
         id="path2053" />
    </g>
    <g
       id="g2055"
       transform="matrix(0.32949796,0,0,-0.33513888,120.16994,61.307727)">
      <path
         d="m 0,0 h -0.792 v -2.415 c 0,-0.496 0.121,-0.648 0.52,-0.648 0.137,0 0.248,0.024 0.376,0.081 L 0.192,-3.43 c -0.224,-0.113 -0.464,-0.168 -0.728,-0.168 -0.263,0 -0.551,0.079 -0.679,0.2 -0.168,0.151 -0.296,0.231 -0.296,0.815 V 0 h -0.48 v 0.52 h 0.48 c 0,0.311 0.008,0.719 0.048,1.023 l 0.759,0.176 C -0.735,1.431 -0.776,0.927 -0.776,0.52 H 0.2"
         style="fill:#231f20;fill-opacity:1;fill-rule:nonzero;stroke:none"
         id="path2057" />
    </g>
    <g
       id="g2059"
       transform="matrix(0.32949796,0,0,-0.33513888,121.47739,62.513624)">
      <path
         d="m 0,0 c -0.487,0 -1.031,0.152 -1.495,0.424 l 0.264,0.527 C -0.847,0.735 -0.391,0.552 0.056,0.552 0.495,0.552 0.8,0.808 0.8,1.199 0.8,1.543 0.592,1.743 0.128,1.831 L -0.36,1.927 c -0.631,0.12 -0.976,0.52 -0.976,1.111 0,0.736 0.584,1.248 1.449,1.248 0.487,0 0.934,-0.136 1.262,-0.328 L 1.127,3.438 C 0.76,3.622 0.464,3.726 0.144,3.726 c -0.424,0 -0.696,-0.24 -0.696,-0.6 0,-0.288 0.145,-0.448 0.569,-0.543 L 0.535,2.462 C 1.272,2.294 1.575,1.871 1.575,1.343 1.575,0.544 0.936,0 0,0"
         style="fill:#231f20;fill-opacity:1;fill-rule:nonzero;stroke:none"
         id="path2061" />
    </g>
    <g
       id="g2063"
       transform="matrix(0.32949796,0,0,-0.33513888,122.31859,62.476124)">
      <path
         d="m 0,0 v 3.982 l 0.759,0.12 V 0 Z m 0.376,4.709 c -0.288,0 -0.512,0.24 -0.512,0.528 0,0.296 0.232,0.536 0.52,0.536 0.287,0 0.527,-0.232 0.527,-0.536 0,-0.288 -0.24,-0.528 -0.535,-0.528"
         style="fill:#231f20;fill-opacity:1;fill-rule:nonzero;stroke:none"
         id="path2065" />
    </g>
    <g
       id="g2067"
       transform="matrix(0.32949796,0,0,-0.33513888,123.74961,61.43374)">
      <path
         d="m 0,0 c -0.208,0.248 -0.473,0.376 -0.848,0.376 -0.305,0 -0.544,-0.152 -0.696,-0.408 -0.152,-0.264 -0.208,-0.584 -0.208,-1.103 0,-0.776 0.096,-0.992 0.312,-1.216 0.136,-0.144 0.321,-0.208 0.592,-0.208 0.424,0 0.712,0.224 0.848,0.464 z m 0.151,-3.11 c -0.04,0.12 -0.048,0.175 -0.071,0.376 -0.28,-0.296 -0.609,-0.44 -1.032,-0.44 -1.023,0 -1.623,0.767 -1.623,2.031 0,0.863 0.295,1.527 0.839,1.878 0.248,0.161 0.495,0.232 0.784,0.232 0.383,0 0.704,-0.135 0.975,-0.463 0,0.112 -0.015,0.432 -0.015,0.703 v 1.56 l 0.735,-0.12 v -4.414 c 0,-0.647 0.024,-1.095 0.112,-1.343"
         style="fill:#231f20;fill-opacity:1;fill-rule:nonzero;stroke:none"
         id="path2069" />
    </g>
    <g
       id="g2071"
       transform="matrix(0.32949796,0,0,-0.33513888,125.08341,61.372208)">
      <path
         d="m 0,0 c -0.128,0.16 -0.321,0.28 -0.577,0.28 -0.559,0 -0.838,-0.456 -0.838,-1.183 H 0.248 C 0.248,-0.52 0.16,-0.2 0,0 Z m -1.423,-1.447 v -0.096 c 0,-0.344 0.048,-0.607 0.168,-0.799 0.208,-0.32 0.535,-0.473 0.919,-0.473 0.376,0 0.696,0.128 0.983,0.384 l 0.28,-0.439 c -0.391,-0.344 -0.864,-0.512 -1.383,-0.512 -1.112,0 -1.791,0.808 -1.791,2.119 0,0.696 0.136,1.143 0.479,1.551 0.32,0.376 0.712,0.552 1.208,0.552 0.447,0 0.808,-0.144 1.088,-0.432 0.351,-0.36 0.479,-0.807 0.487,-1.727 0,-0.024 0,-0.08 0,-0.128"
         style="fill:#231f20;fill-opacity:1;fill-rule:nonzero;stroke:none"
         id="path2073" />
    </g>
    <g
       id="g2075"
       transform="matrix(0.32949796,0,0,-0.33513888,116.84102,63.795901)">
      <path
         d="m 0,0 c -0.267,-0.406 -0.47,-1.001 -0.645,-1.779 -0.112,-0.504 -0.189,-1.043 -0.189,-1.464 0,-0.735 0.189,-1.225 0.722,-1.575 l -0.239,-0.358 c -0.678,0.322 -1.12,1.002 -1.12,1.962 0,0.448 0.07,0.966 0.16,1.4 0.245,1.17 0.624,1.898 1.199,2.438 0.342,0.322 0.763,0.588 1.148,0.728 L 1.148,0.967 C 0.566,0.651 0.252,0.392 0,0"
         style="fill:#231f20;fill-opacity:1;fill-rule:nonzero;stroke:none"
         id="path2077" />
    </g>
    <g
       id="g2079"
       transform="matrix(0.32949796,0,0,-0.33513888,118.21338,63.793452)">
      <path
         d="m 0,0 c -0.231,0.203 -0.483,0.28 -0.812,0.28 -0.498,0 -0.939,-0.259 -1.26,-0.721 -0.372,-0.533 -0.596,-1.401 -0.596,-2.003 0,-0.736 0.371,-1.149 1.071,-1.149 0.337,0 0.623,0.091 0.974,0.315 l 0.252,-0.462 c -0.441,-0.266 -0.939,-0.407 -1.436,-0.407 -0.994,0 -1.582,0.666 -1.582,1.73 0,0.792 0.308,1.716 0.84,2.354 0.477,0.567 1.163,0.889 1.821,0.889 0.455,0 0.854,-0.147 1.114,-0.399"
         style="fill:#231f20;fill-opacity:1;fill-rule:nonzero;stroke:none"
         id="path2081" />
    </g>
    <g
       id="g2083"
       transform="matrix(0.32949796,0,0,-0.33513888,118.91455,64.119744)">
      <path
         d="m 0,0 c -0.742,0 -1.163,-0.988 -1.163,-1.968 0,-0.497 0.23,-0.7 0.624,-0.7 0.756,0 1.154,0.994 1.154,1.975 C 0.615,-0.182 0.343,0 0,0 Z m -0.658,-3.18 c -0.771,0 -1.205,0.463 -1.205,1.261 0,1.373 0.834,2.43 1.975,2.43 0.805,0 1.211,-0.49 1.211,-1.253 0,-1.331 -0.77,-2.438 -1.981,-2.438"
         style="fill:#231f20;fill-opacity:1;fill-rule:nonzero;stroke:none"
         id="path2085" />
    </g>
    <g
       id="g2087"
       transform="matrix(0.32949796,0,0,-0.33513888,120.19894,64.138579)">
      <path
         d="m 0,0 h -0.72 l -0.421,-1.982 c -0.028,-0.147 -0.049,-0.266 -0.049,-0.364 0,-0.239 0.104,-0.322 0.343,-0.322 0.14,0 0.252,0.028 0.365,0.07 v -0.4 c -0.218,-0.098 -0.442,-0.147 -0.687,-0.147 -0.441,0 -0.672,0.218 -0.672,0.582 0,0.168 0.014,0.308 0.048,0.497 L -1.358,0 h -0.428 l 0.092,0.477 h 0.434 c 0.07,0.294 0.154,0.602 0.238,0.868 l 0.7,0.154 C -0.42,1.226 -0.546,0.792 -0.609,0.477 h 0.854"
         style="fill:#231f20;fill-opacity:1;fill-rule:nonzero;stroke:none"
         id="path2089" />
    </g>
    <g
       id="g2091"
       transform="matrix(0.32949796,0,0,-0.33513888,120.91889,64.11502)">
      <path
         d="m 0,0 c -0.421,0 -0.827,-0.393 -1.002,-1.086 0.077,-0.007 0.224,-0.014 0.336,-0.014 0.54,0 0.82,0.077 0.995,0.252 0.104,0.105 0.168,0.231 0.168,0.392 C 0.497,-0.203 0.363,0 0,0 Z m 0.826,-1.163 c -0.294,-0.28 -0.757,-0.42 -1.499,-0.42 -0.161,0 -0.322,0.021 -0.434,0.021 -0.029,-0.119 -0.049,-0.287 -0.049,-0.406 0,-0.47 0.294,-0.708 0.672,-0.708 0.406,0 0.686,0.112 1.016,0.393 l 0.231,-0.4 c -0.378,-0.35 -0.771,-0.511 -1.421,-0.511 -0.701,0 -1.199,0.463 -1.199,1.275 0,0.693 0.288,1.45 0.778,1.926 0.35,0.336 0.735,0.49 1.17,0.49 0.672,0 1.056,-0.336 1.056,-0.924 0,-0.287 -0.118,-0.547 -0.321,-0.736"
         style="fill:#231f20;fill-opacity:1;fill-rule:nonzero;stroke:none"
         id="path2093" />
    </g>
    <g
       id="g2095"
       transform="matrix(0.32949796,0,0,-0.33513888,123.19803,63.824052)">
      <path
         d="m 0,0 c -0.309,0.259 -0.616,0.35 -0.988,0.35 -0.413,0 -0.791,-0.168 -1.079,-0.483 -0.476,-0.518 -0.75,-1.548 -0.75,-2.234 0,-0.757 0.442,-1.149 1.1,-1.149 0.28,0 0.525,0.056 0.742,0.168 l 0.295,1.373 h -0.903 v 0.56 h 1.681 l -0.484,-2.269 c -0.427,-0.245 -0.988,-0.378 -1.499,-0.378 -1.064,0 -1.674,0.729 -1.674,1.709 0,0.98 0.392,1.982 1.03,2.591 0.49,0.47 0.995,0.659 1.646,0.659 0.518,0 0.939,-0.162 1.254,-0.483"
         style="fill:#231f20;fill-opacity:1;fill-rule:nonzero;stroke:none"
         id="path2097" />
    </g>
    <g
       id="g2099"
       transform="matrix(0.32949796,0,0,-0.33513888,124.10151,64.122058)">
      <path
         d="m 0,0 c -0.379,0 -0.638,-0.119 -0.925,-0.456 -0.337,-0.398 -0.476,-1.078 -0.476,-1.582 0,-0.427 0.154,-0.588 0.448,-0.588 0.351,0 0.742,0.336 0.953,0.77 l 0.378,1.772 C 0.287,-0.035 0.147,0 0,0 Z M 0.91,-0.533 0.609,-1.947 C 0.497,-2.465 0.561,-2.634 0.735,-2.816 L 0.209,-3.215 c -0.195,0.189 -0.272,0.385 -0.259,0.679 -0.245,-0.385 -0.643,-0.623 -1.148,-0.623 -0.483,0 -0.868,0.35 -0.868,1.114 0,0.728 0.273,1.52 0.735,1.981 0.371,0.372 0.848,0.582 1.401,0.582 0.384,0 0.756,-0.091 1.036,-0.28 C 1.05,0.056 0.959,-0.287 0.91,-0.533"
         style="fill:#231f20;fill-opacity:1;fill-rule:nonzero;stroke:none"
         id="path2101" />
    </g>
    <g
       id="g2103"
       transform="matrix(0.32949796,0,0,-0.33513888,125.52659,64.809826)">
      <path
         d="M 0,0 C -0.084,-0.406 -0.069,-0.616 0.085,-0.833 L -0.44,-1.177 c -0.168,0.176 -0.26,0.379 -0.238,0.694 -0.393,-0.449 -0.827,-0.666 -1.254,-0.666 -0.484,0 -0.77,0.225 -0.77,0.708 0,0.161 0.021,0.357 0.056,0.525 l 0.504,2.353 0.658,0.119 -0.49,-2.332 c -0.042,-0.189 -0.064,-0.35 -0.064,-0.462 0,-0.273 0.099,-0.378 0.317,-0.378 0.329,0 0.804,0.287 1.127,0.798 l 0.476,2.241 0.658,0.12"
         style="fill:#231f20;fill-opacity:1;fill-rule:nonzero;stroke:none"
         id="path2105" />
    </g>
    <g
       id="g2107"
       transform="matrix(0.32949796,0,0,-0.33513888,126.67093,64.21596)">
      <path
         d="m 0,0 c -0.203,0.182 -0.435,0.252 -0.665,0.252 -0.246,0 -0.505,-0.126 -0.666,-0.343 -0.245,-0.322 -0.49,-1.051 -0.49,-1.597 0,-0.462 0.203,-0.7 0.602,-0.7 0.273,0 0.56,0.14 0.82,0.371 l 0.245,-0.406 c -0.393,-0.323 -0.743,-0.47 -1.199,-0.47 -0.783,0 -1.169,0.428 -1.169,1.198 0,0.82 0.435,1.688 0.904,2.087 0.322,0.273 0.672,0.406 1.078,0.406 0.344,0 0.638,-0.105 0.869,-0.329"
         style="fill:#231f20;fill-opacity:1;fill-rule:nonzero;stroke:none"
         id="path2109" />
    </g>
    <g
       id="g2111"
       transform="matrix(0.32949796,0,0,-0.33513888,127.89107,64.319254)">
      <path
         d="m 0,0 -0.532,-2.5 h -0.631 l 0.498,2.367 c 0.027,0.126 0.049,0.252 0.049,0.329 0,0.231 -0.14,0.343 -0.358,0.343 -0.308,0 -0.791,-0.301 -1.148,-0.742 L -2.612,-2.5 h -0.645 l 0.826,3.873 c 0.106,0.483 0.113,0.826 0.042,1.057 l 0.68,0.245 C -1.632,2.416 -1.667,1.933 -1.772,1.436 L -1.863,1.008 C -1.891,0.882 -1.976,0.567 -2.024,0.413 c 0.378,0.469 0.903,0.679 1.324,0.679 0.482,0 0.763,-0.28 0.763,-0.665 C 0.063,0.322 0.035,0.175 0,0"
         style="fill:#231f20;fill-opacity:1;fill-rule:nonzero;stroke:none"
         id="path2113" />
    </g>
    <g
       id="g2115"
       transform="matrix(0.32949796,0,0,-0.33513888,128.71184,64.11502)">
      <path
         d="m 0,0 c -0.421,0 -0.826,-0.393 -1.001,-1.086 0.077,-0.007 0.224,-0.014 0.335,-0.014 0.54,0 0.821,0.077 0.995,0.252 0.105,0.105 0.168,0.231 0.168,0.392 C 0.497,-0.203 0.365,0 0,0 Z m 0.827,-1.163 c -0.295,-0.28 -0.756,-0.42 -1.499,-0.42 -0.162,0 -0.322,0.021 -0.434,0.021 -0.029,-0.119 -0.049,-0.287 -0.049,-0.406 0,-0.47 0.294,-0.708 0.672,-0.708 0.406,0 0.686,0.112 1.015,0.393 l 0.231,-0.4 c -0.378,-0.35 -0.77,-0.511 -1.421,-0.511 -0.701,0 -1.197,0.463 -1.197,1.275 0,0.693 0.287,1.45 0.776,1.926 0.351,0.336 0.736,0.49 1.17,0.49 0.672,0 1.058,-0.336 1.058,-0.924 0,-0.287 -0.119,-0.547 -0.322,-0.736"
         style="fill:#231f20;fill-opacity:1;fill-rule:nonzero;stroke:none"
         id="path2117" />
    </g>
    <g
       id="g2119"
       transform="matrix(0.32949796,0,0,-0.33513888,129.75438,64.46487)">
      <path
         d="m 0,0 c -0.246,-1.163 -0.631,-1.891 -1.198,-2.437 -0.343,-0.329 -0.763,-0.588 -1.155,-0.729 l -0.106,0.407 c 0.575,0.315 0.89,0.574 1.149,0.966 0.266,0.406 0.483,1.002 0.645,1.779 0.105,0.504 0.189,1.044 0.189,1.471 0,0.714 -0.182,1.219 -0.722,1.569 L -0.96,3.362 C -0.28,3.04 0.155,2.368 0.155,1.401 0.155,0.953 0.084,0.414 0,0"
         style="fill:#231f20;fill-opacity:1;fill-rule:nonzero;stroke:none"
         id="path2121" />
    </g>
    <g
       id="g2743"
       transform="matrix(0.32949796,0,0,-0.33513888,86.016157,60.912697)">
      <path
         d="m 0,0 -3.096,-3.07 -0.248,-0.241 c -0.263,-0.24 -0.608,-0.394 -0.992,-0.418 -0.893,-0.053 -1.662,0.627 -1.716,1.521 -0.053,0.894 0.627,1.662 1.522,1.716 0.118,0.007 0.235,0.001 0.348,-0.016 0,0 2.601,-0.612 3.851,0.199"
         style="fill:none;stroke:#918f90;stroke-width:0.5;stroke-linecap:butt;stroke-linejoin:round;stroke-miterlimit:4;stroke-dasharray:none;stroke-opacity:1"
         id="path2745" />
    </g>
    <g
       id="g2747"
       transform="matrix(0.32949796,0,0,-0.33513888,129.63411,99.552471)">
      <path
         d="M 0,0 C -0.556,1.475 -3.924,1.53 -6.292,1.581 L -6.437,1.465 c -0.854,-1.191 -1.391,-1.682 -1.578,-1.939 -0.347,-0.48 -1.768,-1.733 -0.43,-1.968 1.16,-0.203 7.108,-2.151 8.472,2.385 z"
         style="fill:none;stroke:#231f20;stroke-width:1;stroke-linecap:butt;stroke-linejoin:miter;stroke-miterlimit:4;stroke-dasharray:none;stroke-opacity:1"
         id="path2749" />
    </g>
  </g>
</svg>
