<?xml version="1.0" encoding="UTF-8" standalone="no"?>
<svg
   xmlns:dc="http://purl.org/dc/elements/1.1/"
   xmlns:cc="http://creativecommons.org/ns#"
   xmlns:rdf="http://www.w3.org/1999/02/22-rdf-syntax-ns#"
   xmlns:svg="http://www.w3.org/2000/svg"
   xmlns="http://www.w3.org/2000/svg"
   width="13.391522mm"
   height="15.075312mm"
   viewBox="0 0 13.391522 15.075312"
   version="1.1"
   id="svg5299">
  <defs
     id="defs5293">
    <clipPath
       clipPathUnits="userSpaceOnUse"
       id="clipPath981">
      <path
         d="M 42.396,382.682 H 418.09 V 164.033 H 42.396"
         id="path979" />
    </clipPath>
  </defs>
  <metadata
     id="metadata5296">
    <rdf:RDF>
      <cc:Work
         rdf:about="">
        <dc:format>image/svg+xml</dc:format>
        <dc:type
           rdf:resource="http://purl.org/dc/dcmitype/StillImage" />
        <dc:title></dc:title>
      </cc:Work>
    </rdf:RDF>
  </metadata>
  <g
     id="g9475"
     transform="translate(-9.0786125,-115.04149)">
    <g
       id="g983"
       transform="matrix(0.35277777,0,0,-0.35277777,16.337249,126.25418)">
      <path
         d="m 0,0 2.711,0.811 c 10.203,8.513 7.493,12.567 7.174,13.54 H -13.114 C -13.433,13.378 -16.143,9.324 -5.94,0.811 L -3.229,0"
         style="fill:#ffffff;fill-opacity:1;fill-rule:nonzero;stroke:none"
         id="path985" />
    </g>
    <g
       id="g987"
       transform="matrix(0.32949796,0,0,-0.33513888,16.337354,126.25399)">
      <path
         d="m 0,0 2.902,0.854 c 10.924,8.961 8.023,13.228 7.682,14.252 H -14.041 C -14.382,14.082 -17.283,9.815 -6.359,0.854 L -3.457,0 Z"
         style="fill:none;stroke:#231f20;stroke-width:1;stroke-linecap:butt;stroke-linejoin:miter;stroke-miterlimit:4;stroke-dasharray:none;stroke-opacity:1"
         id="path989" />
    </g>
    <g
       id="g991"
       transform="matrix(0.32949796,0,0,-0.33513888,15.997576,122.02085)">
      <path
         d="m 0,0 c 2.901,0 8.534,1.366 10.412,1.366 1.878,0 2.134,-2.731 2.134,-2.731 1.28,1.621 0.598,4.352 0.027,5.956 -0.251,0.707 0.718,1.417 0.883,2.331 0.329,1.82 0.131,4.11 -0.671,6.438 C 11.182,18.017 7.768,21.066 5.16,20.168 4.495,19.939 3.947,19.476 3.526,18.837 h -8.447 c -0.421,0.639 -0.969,1.102 -1.633,1.331 -2.607,0.898 -6.021,-2.151 -7.625,-6.808 -0.802,-2.328 -1,-4.618 -0.672,-6.438 0.165,-0.914 1.135,-1.624 0.883,-2.331 -0.569,-1.604 -1.253,-4.335 0.028,-5.956 0,0 0.255,2.731 2.133,2.731 C -9.929,1.366 -4.296,0 -1.394,0"
         style="fill:#ffffff;fill-opacity:1;fill-rule:nonzero;stroke:none"
         id="path993" />
    </g>
    <g
       id="g995"
       transform="matrix(0.32949796,0,0,-0.33513888,15.997576,122.02085)">
      <path
         d="m 0,0 c 2.901,0 8.534,1.366 10.412,1.366 1.878,0 2.134,-2.731 2.134,-2.731 1.28,1.621 0.598,4.352 0.027,5.956 -0.251,0.707 0.718,1.417 0.883,2.331 0.329,1.82 0.131,4.11 -0.671,6.438 C 11.182,18.017 7.768,21.066 5.16,20.168 4.495,19.939 3.947,19.476 3.526,18.837 h -8.447 c -0.421,0.639 -0.969,1.102 -1.633,1.331 -2.607,0.898 -6.021,-2.151 -7.625,-6.808 -0.802,-2.328 -1,-4.618 -0.672,-6.438 0.165,-0.914 1.135,-1.624 0.883,-2.331 -0.569,-1.604 -1.253,-4.335 0.028,-5.956 0,0 0.255,2.731 2.133,2.731 C -9.929,1.366 -4.296,0 -1.394,0 Z"
         style="fill:none;stroke:#231f20;stroke-width:1;stroke-linecap:butt;stroke-linejoin:miter;stroke-miterlimit:4;stroke-dasharray:none;stroke-opacity:1"
         id="path997" />
    </g>
    <g
       id="g999"
       transform="matrix(0.32949796,0,0,-0.33513888,12.05131,119.64673)">
      <path
         d="M 0,0 C -1.28,2.646 0.426,13.742 5.12,8.45"
         style="fill:none;stroke:#231f20;stroke-width:1;stroke-linecap:butt;stroke-linejoin:miter;stroke-miterlimit:4;stroke-dasharray:none;stroke-opacity:1"
         id="path1001" />
    </g>
    <g
       id="g1003"
       transform="matrix(0.32949796,0,0,-0.33513888,12.58546,116.92942)">
      <path
         d="M 0,0 C -0.085,-0.768 2.902,-5.292 1.28,-7.681"
         style="fill:none;stroke:#231f20;stroke-width:1;stroke-linecap:butt;stroke-linejoin:miter;stroke-miterlimit:4;stroke-dasharray:none;stroke-opacity:1"
         id="path1005" />
    </g>
    <g
       id="g1007"
       transform="matrix(0.32949796,0,0,-0.33513888,19.484653,119.64673)">
      <path
         d="M 0,0 C 1.28,2.646 -0.427,13.742 -5.121,8.45"
         style="fill:none;stroke:#231f20;stroke-width:1;stroke-linecap:butt;stroke-linejoin:miter;stroke-miterlimit:4;stroke-dasharray:none;stroke-opacity:1"
         id="path1009" />
    </g>
    <g
       id="g1011"
       transform="matrix(0.32949796,0,0,-0.33513888,18.950174,116.92942)">
      <path
         d="M 0,0 C 0.086,-0.768 -2.902,-5.292 -1.28,-7.681"
         style="fill:none;stroke:#231f20;stroke-width:1;stroke-linecap:butt;stroke-linejoin:miter;stroke-miterlimit:4;stroke-dasharray:none;stroke-opacity:1"
         id="path1013" />
    </g>
    <g
       id="g1015"
       transform="matrix(0.32949796,0,0,-0.33513888,14.474274,122.85032)">
      <path
         d="m 0,0 c 0,-0.754 1.758,-1.365 3.926,-1.365 2.169,0 3.927,0.611 3.927,1.365"
         style="fill:none;stroke:#231f20;stroke-width:1;stroke-linecap:butt;stroke-linejoin:miter;stroke-miterlimit:4;stroke-dasharray:none;stroke-opacity:1"
         id="path1017" />
    </g>
    <g
       id="g1019"
       transform="matrix(0.32949796,0,0,-0.33513888,10.614732,129.74379)">
      <path
         d="M 0,0 -0.288,3.75 C -0.312,4.046 -0.32,4.462 -0.328,4.621 H -0.344 C -0.376,4.462 -0.456,4.117 -0.543,3.821 L -1.639,0 H -2.303 L -3.31,3.645 C -3.43,4.07 -3.526,4.485 -3.558,4.629 H -3.574 C -3.582,4.437 -3.606,3.934 -3.63,3.645 L -3.91,0 h -0.752 l 0.496,5.509 h 1.08 l 0.927,-3.382 c 0.12,-0.448 0.184,-0.784 0.2,-0.903 h 0.016 c 0.024,0.135 0.088,0.496 0.192,0.863 l 0.959,3.422 H 0.296 L 0.768,0"
         style="fill:#231f20;fill-opacity:1;fill-rule:nonzero;stroke:none"
         id="path1021" />
    </g>
    <g
       id="g1023"
       transform="matrix(0.32949796,0,0,-0.33513888,12.149139,129.78937)">
      <path
         d="M 0,0 C -0.2,0.153 -0.304,0.304 -0.375,0.576 -0.695,0.184 -1.087,0 -1.583,0 -2.095,0 -2.494,0.232 -2.662,0.6 -2.734,0.76 -2.758,0.984 -2.758,1.272 v 2.846 l 0.727,0.144 V 1.471 c 0,-0.407 0.04,-0.567 0.184,-0.703 0.104,-0.096 0.288,-0.176 0.464,-0.176 0.36,0 0.743,0.279 0.911,0.631 V 4.102 L 0.256,4.246 V 1.232 C 0.256,0.823 0.344,0.535 0.504,0.4"
         style="fill:#231f20;fill-opacity:1;fill-rule:nonzero;stroke:none"
         id="path1025" />
    </g>
    <g
       id="g1027"
       transform="matrix(0.32949796,0,0,-0.33513888,13.451512,129.74379)">
      <path
         d="m 0,0 h -2.735 v 0.528 l 2.103,2.943 H -2.575 V 4.006 H 0.167 V 3.454 L -1.839,0.528 h 2.095"
         style="fill:#231f20;fill-opacity:1;fill-rule:nonzero;stroke:none"
         id="path1029" />
    </g>
    <g
       id="g1031"
       transform="matrix(0.32949796,0,0,-0.33513888,14.600735,129.74379)">
      <path
         d="m 0,0 h -2.734 v 0.528 l 2.102,2.943 H -2.575 V 4.006 H 0.168 V 3.454 L -1.839,0.528 h 2.095"
         style="fill:#231f20;fill-opacity:1;fill-rule:nonzero;stroke:none"
         id="path1033" />
    </g>
    <g
       id="g1035"
       transform="matrix(0.32949796,0,0,-0.33513888,15.236238,129.7706)">
      <path
         d="M 0,0 C -0.288,0 -0.472,0.088 -0.623,0.304 -0.744,0.472 -0.775,0.608 -0.775,1 v 3.63 c 0,0.567 -0.025,0.84 -0.088,1.15 l 0.767,0.16 C -0.024,5.677 -0.024,5.293 -0.024,4.797 V 1.191 C -0.024,0.767 0,0.672 0.08,0.599 0.128,0.544 0.24,0.52 0.328,0.544 L 0.456,0.088 C 0.304,0.024 0.176,0 0,0"
         style="fill:#231f20;fill-opacity:1;fill-rule:nonzero;stroke:none"
         id="path1037" />
    </g>
    <g
       id="g1039"
       transform="matrix(0.32949796,0,0,-0.33513888,16.324636,128.63985)">
      <path
         d="m 0,0 c -0.128,0.16 -0.32,0.28 -0.576,0.28 -0.559,0 -0.839,-0.456 -0.839,-1.183 H 0.248 C 0.248,-0.52 0.16,-0.199 0,0 Z m -1.423,-1.447 v -0.096 c 0,-0.344 0.048,-0.608 0.168,-0.799 0.208,-0.32 0.535,-0.473 0.919,-0.473 0.376,0 0.696,0.128 0.983,0.384 l 0.28,-0.439 c -0.391,-0.344 -0.863,-0.512 -1.382,-0.512 -1.112,0 -1.791,0.808 -1.791,2.118 0,0.696 0.135,1.145 0.479,1.552 0.32,0.376 0.712,0.552 1.207,0.552 0.448,0 0.808,-0.145 1.088,-0.432 0.351,-0.36 0.479,-0.808 0.488,-1.727 0,-0.024 0,-0.08 0,-0.128"
         style="fill:#231f20;fill-opacity:1;fill-rule:nonzero;stroke:none"
         id="path1041" />
    </g>
    <g
       id="g1043"
       transform="matrix(0.32949796,0,0,-0.33513888,18.064813,128.38246)">
      <path
         d="m 0,0 c -0.266,-0.407 -0.469,-1.002 -0.644,-1.779 -0.112,-0.505 -0.19,-1.044 -0.19,-1.464 0,-0.735 0.19,-1.225 0.722,-1.576 L -0.35,-5.175 c -0.679,0.321 -1.121,1.001 -1.121,1.961 0,0.448 0.071,0.965 0.161,1.4 0.246,1.17 0.624,1.898 1.198,2.437 0.343,0.323 0.763,0.589 1.149,0.729 L 1.149,0.966 C 0.567,0.651 0.252,0.392 0,0"
         style="fill:#231f20;fill-opacity:1;fill-rule:nonzero;stroke:none"
         id="path1045" />
    </g>
    <g
       id="g1047"
       transform="matrix(0.32949796,0,0,-0.33513888,19.349822,129.74379)">
      <path
         d="M 0,0 H -0.707 L -1.499,2.669 C -1.674,3.257 -1.807,3.858 -1.814,3.936 -1.821,3.838 -1.919,3.173 -2.031,2.605 L -2.557,0 h -0.686 l 1.023,4.818 h 0.77 l 0.841,-2.78 c 0.147,-0.49 0.224,-1.022 0.231,-1.106 0.014,0.09 0.119,0.834 0.245,1.435 l 0.497,2.451 h 0.658"
         style="fill:#231f20;fill-opacity:1;fill-rule:nonzero;stroke:none"
         id="path1049" />
    </g>
    <g
       id="g1051"
       transform="matrix(0.32949796,0,0,-0.33513888,20.371299,128.70151)">
      <path
         d="m 0,0 c -0.42,0 -0.826,-0.393 -1.002,-1.086 0.078,-0.007 0.225,-0.013 0.337,-0.013 0.539,0 0.819,0.076 0.994,0.251 0.105,0.105 0.168,0.231 0.168,0.392 C 0.497,-0.203 0.364,0 0,0 Z m 0.827,-1.163 c -0.295,-0.28 -0.757,-0.421 -1.499,-0.421 -0.162,0 -0.323,0.022 -0.434,0.022 -0.028,-0.119 -0.05,-0.287 -0.05,-0.406 0,-0.469 0.295,-0.708 0.673,-0.708 0.406,0 0.686,0.112 1.015,0.393 l 0.232,-0.4 c -0.379,-0.35 -0.771,-0.511 -1.422,-0.511 -0.701,0 -1.198,0.463 -1.198,1.274 0,0.694 0.287,1.451 0.777,1.926 0.35,0.337 0.736,0.491 1.17,0.491 0.673,0 1.058,-0.337 1.058,-0.924 0,-0.288 -0.119,-0.546 -0.322,-0.736"
         style="fill:#231f20;fill-opacity:1;fill-rule:nonzero;stroke:none"
         id="path1053" />
    </g>
    <g
       id="g1055"
       transform="matrix(0.32949796,0,0,-0.33513888,21.072273,129.58427)">
      <path
         d="M 0,0 H 1.842 L 1.583,-0.476 h -2.437 l 0.013,0.462 2.382,2.556 h -1.604 l 0.021,0.499 H 2.36 V 2.578"
         style="fill:#231f20;fill-opacity:1;fill-rule:nonzero;stroke:none"
         id="path1057" />
    </g>
    <g
       id="g1059"
       transform="matrix(0.32949796,0,0,-0.33513888,22.419392,129.0514)">
      <path
         d="m 0,0 c -0.245,-1.163 -0.63,-1.891 -1.198,-2.437 -0.343,-0.329 -0.763,-0.588 -1.156,-0.729 l -0.104,0.407 c 0.574,0.314 0.889,0.574 1.148,0.966 0.266,0.406 0.483,1.001 0.645,1.779 0.104,0.504 0.189,1.044 0.189,1.471 0,0.714 -0.182,1.218 -0.722,1.569 L -0.96,3.362 C -0.28,3.04 0.154,2.368 0.154,1.401 0.154,0.952 0.084,0.413 0,0"
         style="fill:#231f20;fill-opacity:1;fill-rule:nonzero;stroke:none"
         id="path1061" />
    </g>
  </g>
</svg>
