<?xml version="1.0" encoding="UTF-8" standalone="no"?>
<svg
   xmlns:dc="http://purl.org/dc/elements/1.1/"
   xmlns:cc="http://creativecommons.org/ns#"
   xmlns:rdf="http://www.w3.org/1999/02/22-rdf-syntax-ns#"
   xmlns:svg="http://www.w3.org/2000/svg"
   xmlns="http://www.w3.org/2000/svg"
   width="22.938988mm"
   height="48.752655mm"
   viewBox="0 0 22.938988 48.752655"
   version="1.1"
   id="svg5299">
  <defs
     id="defs5293">
    <clipPath
       clipPathUnits="userSpaceOnUse"
       id="clipPath981">
      <path
         d="M 42.396,382.682 H 418.09 V 164.033 H 42.396"
         id="path979" />
    </clipPath>
  </defs>
  <metadata
     id="metadata5296">
    <rdf:RDF>
      <cc:Work
         rdf:about="">
        <dc:format>image/svg+xml</dc:format>
        <dc:type
           rdf:resource="http://purl.org/dc/dcmitype/StillImage" />
        <dc:title></dc:title>
      </cc:Work>
    </rdf:RDF>
  </metadata>
  <g
     id="g10555"
     transform="translate(-48.581565,-84.172609)">
    <g
       id="g1159"
       transform="matrix(0.32949796,0,0,-0.33513888,51.753311,84.759942)">
      <path
         d="m 0,0 c -0.16,0.064 -0.384,0.104 -0.672,0.104 h -0.576 v -1.919 h 0.536 c 0.488,0 0.76,0.08 0.952,0.264 0.168,0.16 0.272,0.424 0.272,0.743 C 0.512,-0.424 0.303,-0.12 0,0 Z m 0.655,-4.773 c -0.16,0.312 -0.232,0.44 -0.456,0.815 -0.423,0.704 -0.559,0.936 -0.951,1.376 -0.144,0.159 -0.264,0.239 -0.496,0.247 v -2.438 h -0.767 v 5.508 h 1.543 c 0.655,0 1.039,-0.152 1.303,-0.399 0.248,-0.232 0.488,-0.6 0.488,-1.136 0,-0.855 -0.552,-1.543 -1.472,-1.51 0.256,-0.208 0.384,-0.384 0.48,-0.512 0.112,-0.153 0.28,-0.392 0.464,-0.68 0.24,-0.376 0.688,-1.096 0.8,-1.271"
         style="fill:#231f20;fill-opacity:1;fill-rule:nonzero;stroke:none"
         id="path1161" />
    </g>
    <g
       id="g1163"
       transform="matrix(0.32949796,0,0,-0.33513888,52.586611,86.359694)">
      <path
         d="m 0,0 v 3.982 l 0.759,0.12 V 0 Z m 0.376,4.71 c -0.289,0 -0.512,0.239 -0.512,0.527 0,0.296 0.232,0.536 0.519,0.536 0.288,0 0.528,-0.232 0.528,-0.536 0,-0.288 -0.24,-0.527 -0.535,-0.527"
         style="fill:#231f20;fill-opacity:1;fill-rule:nonzero;stroke:none"
         id="path1165" />
    </g>
    <g
       id="g1167"
       transform="matrix(0.32949796,0,0,-0.33513888,53.703939,85.172632)">
      <path
         d="m 0,0 c -0.472,0 -0.728,-0.256 -0.728,-0.768 0,-0.495 0.264,-0.743 0.736,-0.743 0.48,0 0.728,0.264 0.728,0.759 C 0.736,-0.24 0.504,0 0,0 Z m 1.607,-0.104 c -0.12,0 -0.152,0.008 -0.344,0.064 0.208,-0.264 0.288,-0.48 0.288,-0.735 0,-0.576 -0.392,-1.24 -1.439,-1.24 -0.248,-0.08 -0.632,-0.264 -0.632,-0.44 0,-0.12 0.096,-0.199 0.288,-0.199 h 0.615 c 1.024,0 1.448,-0.48 1.448,-1.104 0,-0.864 -0.712,-1.295 -1.687,-1.295 -1.12,0 -1.76,0.392 -1.76,1.055 0,0.168 0.033,0.288 0.073,0.408 l 0.719,0.04 c -0.032,-0.064 -0.072,-0.192 -0.072,-0.304 0,-0.416 0.344,-0.64 0.968,-0.64 0.655,0 0.983,0.264 0.983,0.688 0,0.384 -0.312,0.608 -1.103,0.608 -0.28,0 -0.6,0.024 -0.752,0.04 -0.352,0.04 -0.56,0.239 -0.56,0.535 0,0.376 0.328,0.536 0.784,0.704 -0.616,0.184 -0.943,0.6 -0.943,1.151 0,0.808 0.615,1.344 1.535,1.344 0.216,0 0.384,-0.016 0.623,-0.088 0.208,-0.064 0.424,-0.128 0.6,-0.128 0.24,0 0.44,0.08 0.656,0.232 L 2.271,0.136 C 2.047,-0.04 1.855,-0.104 1.607,-0.104"
         style="fill:#231f20;fill-opacity:1;fill-rule:nonzero;stroke:none"
         id="path1169" />
    </g>
    <g
       id="g1171"
       transform="matrix(0.32949796,0,0,-0.33513888,55.432815,86.359694)">
      <path
         d="M 0,0 V 2.751 C 0,3.03 -0.056,3.222 -0.136,3.31 -0.208,3.39 -0.384,3.462 -0.575,3.462 -0.919,3.462 -1.327,3.238 -1.639,2.878 V 0 h -0.744 v 4.869 c 0,0.344 -0.031,0.608 -0.087,0.84 l 0.743,0.152 c 0.056,-0.24 0.088,-0.536 0.088,-0.928 V 4.038 c 0,-0.144 -0.008,-0.328 -0.024,-0.536 0.176,0.16 0.264,0.224 0.424,0.328 0.296,0.192 0.576,0.272 0.872,0.272 0.471,0 0.887,-0.24 1.007,-0.6 C 0.704,3.318 0.72,3.214 0.72,2.855 V 0"
         style="fill:#231f20;fill-opacity:1;fill-rule:nonzero;stroke:none"
         id="path1173" />
    </g>
    <g
       id="g1175"
       transform="matrix(0.32949796,0,0,-0.33513888,56.590011,85.191297)">
      <path
         d="m 0,0 h -0.791 v -2.415 c 0,-0.496 0.12,-0.648 0.52,-0.648 0.136,0 0.248,0.025 0.375,0.081 L 0.192,-3.43 c -0.223,-0.112 -0.463,-0.168 -0.727,-0.168 -0.264,0 -0.552,0.08 -0.68,0.2 -0.168,0.152 -0.296,0.232 -0.296,0.815 V 0 H -1.99 v 0.52 h 0.479 c 0,0.311 0.009,0.719 0.049,1.023 l 0.759,0.176 C -0.735,1.431 -0.775,0.927 -0.775,0.52 h 0.976"
         style="fill:#231f20;fill-opacity:1;fill-rule:nonzero;stroke:none"
         id="path1177" />
    </g>
    <g
       id="g1179"
       transform="matrix(0.32949796,0,0,-0.33513888,51.036322,87.679471)">
      <path
         d="m 0,0 c -0.267,-0.406 -0.47,-1.001 -0.645,-1.779 -0.112,-0.504 -0.189,-1.043 -0.189,-1.464 0,-0.735 0.189,-1.225 0.721,-1.575 l -0.238,-0.358 c -0.679,0.323 -1.121,1.002 -1.121,1.962 0,0.448 0.071,0.966 0.161,1.4 0.246,1.17 0.624,1.899 1.198,2.438 0.343,0.322 0.764,0.588 1.149,0.728 L 1.148,0.967 C 0.566,0.651 0.251,0.393 0,0"
         style="fill:#231f20;fill-opacity:1;fill-rule:nonzero;stroke:none"
         id="path1181" />
    </g>
    <g
       id="g1183"
       transform="matrix(0.32949796,0,0,-0.33513888,52.263375,87.740501)">
      <path
         d="m 0,0 c -0.203,0.322 -0.469,0.393 -0.932,0.393 h -0.546 l -0.784,-3.712 h 0.504 c 0.588,0 1.009,0.168 1.261,0.497 0.469,0.609 0.672,1.506 0.672,1.968 C 0.175,-0.469 0.126,-0.203 0,0 Z M -0.07,-3.264 C -0.539,-3.705 -1.023,-3.88 -1.835,-3.88 h -1.233 l 1.023,4.819 h 1.057 c 0.736,0 1.1,-0.085 1.443,-0.4 0.301,-0.272 0.448,-0.7 0.448,-1.344 0,-0.82 -0.42,-1.933 -0.973,-2.459"
         style="fill:#231f20;fill-opacity:1;fill-rule:nonzero;stroke:none"
         id="path1185" />
    </g>
    <g
       id="g1187"
       transform="matrix(0.32949796,0,0,-0.33513888,53.430455,88.069103)">
      <path
         d="m 0,0 c -0.071,0.028 -0.134,0.042 -0.239,0.042 -0.287,0 -0.609,-0.238 -0.931,-0.714 l -0.47,-2.227 h -0.637 l 0.505,2.367 c 0.105,0.504 0.111,0.743 0.034,0.988 l 0.603,0.266 c 0.077,-0.19 0.105,-0.449 0.042,-0.771 0.329,0.463 0.763,0.75 1.093,0.75 0.132,0 0.195,-0.015 0.279,-0.042"
         style="fill:#231f20;fill-opacity:1;fill-rule:nonzero;stroke:none"
         id="path1189" />
    </g>
    <g
       id="g1191"
       transform="matrix(0.32949796,0,0,-0.33513888,54.059797,88.003317)">
      <path
         d="m 0,0 c -0.742,0 -1.162,-0.988 -1.162,-1.968 0,-0.497 0.231,-0.7 0.623,-0.7 0.756,0 1.155,0.994 1.155,1.975 C 0.616,-0.182 0.344,0 0,0 Z m -0.658,-3.18 c -0.77,0 -1.205,0.463 -1.205,1.261 0,1.373 0.833,2.43 1.975,2.43 0.806,0 1.212,-0.49 1.212,-1.253 0,-1.331 -0.771,-2.438 -1.982,-2.438"
         style="fill:#231f20;fill-opacity:1;fill-rule:nonzero;stroke:none"
         id="path1193" />
    </g>
    <g
       id="g1195"
       transform="matrix(0.32949796,0,0,-0.33513888,55.104636,87.665395)">
      <path
         d="m 0,0 c -0.26,0 -0.47,0.203 -0.47,0.462 0,0.26 0.21,0.47 0.47,0.47 0.259,0 0.462,-0.21 0.462,-0.47 C 0.462,0.203 0.259,0 0,0 Z m -0.644,-4.104 h -0.673 l 0.742,3.488 0.694,0.105"
         style="fill:#231f20;fill-opacity:1;fill-rule:nonzero;stroke:none"
         id="path1197" />
    </g>
    <g
       id="g1199"
       transform="matrix(0.32949796,0,0,-0.33513888,55.932662,88.022117)">
      <path
         d="m 0,0 h -0.721 l -0.421,-1.982 c -0.028,-0.147 -0.049,-0.266 -0.049,-0.364 0,-0.239 0.105,-0.322 0.344,-0.322 0.14,0 0.252,0.028 0.364,0.07 v -0.4 C -0.7,-3.096 -0.924,-3.145 -1.17,-3.145 c -0.441,0 -0.672,0.218 -0.672,0.581 0,0.169 0.014,0.309 0.049,0.498 L -1.359,0 h -0.427 l 0.091,0.477 h 0.435 c 0.069,0.294 0.153,0.602 0.237,0.868 l 0.701,0.154 C -0.42,1.225 -0.546,0.792 -0.609,0.477 h 0.854"
         style="fill:#231f20;fill-opacity:1;fill-rule:nonzero;stroke:none"
         id="path1201" />
    </g>
    <g
       id="g1203"
       transform="matrix(0.32949796,0,0,-0.33513888,56.534656,88.348443)">
      <path
         d="m 0,0 c -0.245,-1.163 -0.63,-1.891 -1.198,-2.437 -0.343,-0.329 -0.763,-0.588 -1.155,-0.729 l -0.105,0.407 c 0.574,0.315 0.889,0.574 1.148,0.966 0.266,0.406 0.483,1.002 0.644,1.779 0.105,0.504 0.189,1.044 0.189,1.471 0,0.714 -0.182,1.219 -0.721,1.569 l 0.239,0.336 C -0.28,3.04 0.154,2.368 0.154,1.401 0.154,0.953 0.084,0.414 0,0"
         style="fill:#231f20;fill-opacity:1;fill-rule:nonzero;stroke:none"
         id="path1205" />
    </g>
    <g
       id="g1207"
       transform="matrix(0.32949796,0,0,-0.33513888,64.671609,86.351686)">
      <path
         d="m 0,0 h -2.75 v 5.509 h 0.783 V 0.64 h 2.095"
         style="fill:#231f20;fill-opacity:1;fill-rule:nonzero;stroke:none"
         id="path1209" />
    </g>
    <g
       id="g1211"
       transform="matrix(0.32949796,0,0,-0.33513888,65.541813,85.247738)">
      <path
         d="m 0,0 c -0.127,0.16 -0.319,0.28 -0.575,0.28 -0.56,0 -0.84,-0.456 -0.84,-1.183 H 0.248 C 0.248,-0.52 0.161,-0.2 0,0 Z m -1.422,-1.447 v -0.096 c 0,-0.344 0.047,-0.607 0.167,-0.799 0.208,-0.32 0.536,-0.472 0.92,-0.472 0.375,0 0.695,0.128 0.983,0.383 l 0.28,-0.439 c -0.392,-0.344 -0.864,-0.512 -1.383,-0.512 -1.111,0 -1.791,0.808 -1.791,2.119 0,0.696 0.136,1.143 0.479,1.551 0.32,0.376 0.712,0.552 1.208,0.552 0.448,0 0.807,-0.144 1.087,-0.432 0.352,-0.36 0.48,-0.807 0.488,-1.727 0,-0.024 0,-0.08 0,-0.128"
         style="fill:#231f20;fill-opacity:1;fill-rule:nonzero;stroke:none"
         id="path1213" />
    </g>
    <g
       id="g1215"
       transform="matrix(0.32949796,0,0,-0.33513888,66.841683,84.628702)">
      <path
         d="m 0,0 c -0.176,0.088 -0.336,0.152 -0.52,0.152 -0.336,0 -0.536,-0.232 -0.536,-0.64 v -0.647 h 1.064 l -0.192,-0.52 h -0.864 v -3.486 h -0.743 v 3.486 h -0.384 v 0.52 h 0.392 C -1.8,-1.055 -1.8,-0.56 -1.8,-0.496 c 0,0.544 0.232,0.848 0.448,1 0.192,0.136 0.432,0.192 0.728,0.192 0.328,0 0.624,-0.064 0.871,-0.216"
         style="fill:#231f20;fill-opacity:1;fill-rule:nonzero;stroke:none"
         id="path1217" />
    </g>
    <g
       id="g1219"
       transform="matrix(0.32949796,0,0,-0.33513888,67.524403,85.183258)">
      <path
         d="m 0,0 h -0.792 v -2.415 c 0,-0.496 0.12,-0.648 0.52,-0.648 0.136,0 0.248,0.024 0.376,0.08 L 0.191,-3.43 c -0.223,-0.113 -0.463,-0.168 -0.727,-0.168 -0.264,0 -0.552,0.079 -0.68,0.2 -0.168,0.151 -0.296,0.231 -0.296,0.815 V 0 h -0.479 v 0.52 h 0.479 c 0,0.311 0.009,0.719 0.049,1.023 l 0.759,0.176 C -0.736,1.431 -0.776,0.927 -0.776,0.52 H 0.2"
         style="fill:#231f20;fill-opacity:1;fill-rule:nonzero;stroke:none"
         id="path1221" />
    </g>
    <g
       id="g1223"
       transform="matrix(0.32949796,0,0,-0.33513888,64.195155,87.671463)">
      <path
         d="m 0,0 c -0.266,-0.406 -0.469,-1.001 -0.644,-1.779 -0.112,-0.504 -0.189,-1.043 -0.189,-1.464 0,-0.735 0.189,-1.225 0.721,-1.575 L -0.35,-5.176 c -0.679,0.323 -1.121,1.002 -1.121,1.962 0,0.448 0.071,0.966 0.161,1.4 0.246,1.17 0.624,1.899 1.198,2.438 0.343,0.322 0.763,0.588 1.149,0.728 L 1.149,0.967 C 0.567,0.651 0.252,0.393 0,0"
         style="fill:#231f20;fill-opacity:1;fill-rule:nonzero;stroke:none"
         id="path1225" />
    </g>
    <g
       id="g1227"
       transform="matrix(0.32949796,0,0,-0.33513888,65.62781,87.699579)">
      <path
         d="m 0,0 c -0.308,0.259 -0.616,0.35 -0.987,0.35 -0.414,0 -0.792,-0.168 -1.079,-0.483 -0.476,-0.518 -0.749,-1.548 -0.749,-2.234 0,-0.757 0.441,-1.149 1.099,-1.149 0.281,0 0.526,0.056 0.743,0.168 l 0.294,1.373 h -0.904 v 0.56 h 1.681 l -0.483,-2.269 c -0.427,-0.245 -0.987,-0.378 -1.499,-0.378 -1.065,0 -1.674,0.729 -1.674,1.709 0,0.98 0.393,1.982 1.03,2.591 0.49,0.469 0.994,0.658 1.646,0.658 0.518,0 0.938,-0.161 1.253,-0.483"
         style="fill:#231f20;fill-opacity:1;fill-rule:nonzero;stroke:none"
         id="path1229" />
    </g>
    <g
       id="g1231"
       transform="matrix(0.32949796,0,0,-0.33513888,66.531295,87.997585)">
      <path
         d="M 0,0 C -0.378,0 -0.637,-0.119 -0.924,-0.456 -1.26,-0.855 -1.4,-1.534 -1.4,-2.038 c 0,-0.427 0.154,-0.589 0.448,-0.589 0.35,0 0.742,0.336 0.952,0.771 l 0.379,1.771 C 0.287,-0.035 0.147,0 0,0 Z M 0.911,-0.533 0.61,-1.947 C 0.498,-2.465 0.561,-2.634 0.736,-2.816 L 0.211,-3.215 c -0.196,0.189 -0.274,0.385 -0.259,0.679 -0.246,-0.385 -0.645,-0.623 -1.149,-0.623 -0.483,0 -0.869,0.35 -0.869,1.114 0,0.728 0.273,1.52 0.736,1.981 0.371,0.372 0.847,0.582 1.401,0.582 0.385,0 0.756,-0.091 1.036,-0.28 C 1.051,0.056 0.96,-0.287 0.911,-0.533"
         style="fill:#231f20;fill-opacity:1;fill-rule:nonzero;stroke:none"
         id="path1233" />
    </g>
    <g
       id="g1235"
       transform="matrix(0.32949796,0,0,-0.33513888,67.957032,88.685357)">
      <path
         d="m 0,0 c -0.084,-0.406 -0.07,-0.616 0.084,-0.833 l -0.525,-0.344 c -0.168,0.176 -0.26,0.379 -0.239,0.694 -0.392,-0.449 -0.826,-0.666 -1.253,-0.666 -0.483,0 -0.771,0.225 -0.771,0.708 0,0.161 0.021,0.357 0.057,0.525 l 0.503,2.353 0.659,0.119 -0.49,-2.332 c -0.042,-0.189 -0.063,-0.35 -0.063,-0.462 0,-0.273 0.098,-0.378 0.315,-0.378 0.329,0 0.806,0.287 1.127,0.798 l 0.477,2.241 0.658,0.119"
         style="fill:#231f20;fill-opacity:1;fill-rule:nonzero;stroke:none"
         id="path1237" />
    </g>
    <g
       id="g1239"
       transform="matrix(0.32949796,0,0,-0.33513888,69.101048,88.091526)">
      <path
         d="m 0,0 c -0.203,0.182 -0.435,0.252 -0.666,0.252 -0.245,0 -0.504,-0.126 -0.665,-0.343 -0.245,-0.322 -0.491,-1.051 -0.491,-1.597 0,-0.462 0.204,-0.7 0.603,-0.7 0.273,0 0.56,0.14 0.819,0.371 l 0.245,-0.406 c -0.392,-0.323 -0.742,-0.47 -1.197,-0.47 -0.785,0 -1.17,0.428 -1.17,1.198 0,0.819 0.434,1.688 0.904,2.087 0.322,0.273 0.672,0.406 1.078,0.406 0.343,0 0.638,-0.105 0.869,-0.329"
         style="fill:#231f20;fill-opacity:1;fill-rule:nonzero;stroke:none"
         id="path1241" />
    </g>
    <g
       id="g1243"
       transform="matrix(0.32949796,0,0,-0.33513888,70.32118,88.19478)">
      <path
         d="m 0,0 -0.532,-2.5 h -0.631 l 0.497,2.367 c 0.029,0.126 0.05,0.252 0.05,0.329 0,0.231 -0.141,0.343 -0.358,0.343 -0.308,0 -0.791,-0.301 -1.148,-0.742 L -2.612,-2.5 h -0.645 l 0.827,3.873 c 0.105,0.483 0.111,0.826 0.042,1.057 l 0.679,0.245 C -1.632,2.416 -1.667,1.933 -1.772,1.436 L -1.863,1.008 C -1.891,0.882 -1.975,0.567 -2.024,0.413 c 0.378,0.469 0.903,0.679 1.324,0.679 0.483,0 0.763,-0.28 0.763,-0.665 C 0.063,0.322 0.035,0.175 0,0"
         style="fill:#231f20;fill-opacity:1;fill-rule:nonzero;stroke:none"
         id="path1245" />
    </g>
    <g
       id="g1247"
       transform="matrix(0.32949796,0,0,-0.33513888,71.141959,87.990547)">
      <path
         d="m 0,0 c -0.42,0 -0.826,-0.393 -1.001,-1.086 0.077,-0.007 0.224,-0.014 0.336,-0.014 0.539,0 0.819,0.077 0.994,0.252 0.105,0.105 0.169,0.231 0.169,0.392 C 0.498,-0.203 0.364,0 0,0 Z m 0.827,-1.163 c -0.295,-0.28 -0.757,-0.42 -1.499,-0.42 -0.161,0 -0.323,0.021 -0.434,0.021 -0.029,-0.119 -0.05,-0.287 -0.05,-0.406 0,-0.47 0.295,-0.708 0.673,-0.708 0.406,0 0.686,0.112 1.015,0.393 l 0.232,-0.4 c -0.379,-0.35 -0.771,-0.511 -1.422,-0.511 -0.701,0 -1.198,0.463 -1.198,1.275 0,0.693 0.287,1.45 0.777,1.926 0.351,0.336 0.736,0.49 1.17,0.49 0.673,0 1.058,-0.336 1.058,-0.924 0,-0.287 -0.119,-0.547 -0.322,-0.736"
         style="fill:#231f20;fill-opacity:1;fill-rule:nonzero;stroke:none"
         id="path1249" />
    </g>
    <g
       id="g1255"
       transform="matrix(0.32949796,0,0,-0.33513888,52.190886,129.74681)">
      <path
         d="m 0,0 -1.447,2.926 c -0.28,0.568 -0.568,1.191 -0.672,1.512 L -2.167,4.43 c 0.04,-0.472 0.056,-1.024 0.064,-1.535 L -2.071,0 h -0.776 v 5.509 h 0.896 L -0.416,2.471 C -0.184,2.015 0.088,1.304 0.128,1.152 L 0.176,1.168 C 0.16,1.327 0.096,2.199 0.096,2.807 L 0.08,5.509 H 0.823 V 0"
         style="fill:#231f20;fill-opacity:1;fill-rule:nonzero;stroke:none"
         id="path1257" />
    </g>
    <g
       id="g1259"
       transform="matrix(0.32949796,0,0,-0.33513888,53.558962,128.64286)">
      <path
         d="m 0,0 c -0.128,0.16 -0.32,0.28 -0.575,0.28 -0.56,0 -0.84,-0.456 -0.84,-1.183 H 0.248 C 0.248,-0.519 0.16,-0.2 0,0 Z m -1.423,-1.447 v -0.096 c 0,-0.344 0.048,-0.607 0.168,-0.8 0.208,-0.319 0.536,-0.471 0.919,-0.471 0.376,0 0.696,0.128 0.984,0.383 l 0.28,-0.439 c -0.392,-0.344 -0.864,-0.512 -1.383,-0.512 -1.112,0 -1.791,0.808 -1.791,2.118 0,0.697 0.135,1.145 0.479,1.552 0.32,0.376 0.712,0.552 1.208,0.552 0.447,0 0.807,-0.144 1.087,-0.432 0.352,-0.36 0.48,-0.807 0.488,-1.727 0,-0.024 0,-0.079 0,-0.128"
         style="fill:#231f20;fill-opacity:1;fill-rule:nonzero;stroke:none"
         id="path1261" />
    </g>
    <g
       id="g1263"
       transform="matrix(0.32949796,0,0,-0.33513888,54.71385,129.77362)">
      <path
         d="m 0,0 c -0.576,0 -1.008,0.2 -1.288,0.6 -0.264,0.376 -0.384,0.84 -0.384,1.447 0,0.904 0.288,1.424 0.672,1.767 0.296,0.264 0.648,0.408 1.04,0.408 0.431,0 0.783,-0.144 1.087,-0.424 L 0.743,3.295 C 0.479,3.526 0.296,3.606 0.04,3.606 -0.265,3.606 -0.528,3.446 -0.664,3.174 -0.8,2.902 -0.856,2.503 -0.856,1.951 c 0,-0.559 0.112,-0.927 0.32,-1.151 0.144,-0.152 0.344,-0.24 0.576,-0.24 0.296,0 0.591,0.143 0.831,0.416 L 1.231,0.52 C 0.847,0.144 0.511,0 0,0"
         style="fill:#231f20;fill-opacity:1;fill-rule:nonzero;stroke:none"
         id="path1265" />
    </g>
    <g
       id="g1267"
       transform="matrix(0.32949796,0,0,-0.33513888,56.22394,129.74681)">
      <path
         d="m 0,0 -1.647,2.279 1.319,1.735 H 0.568 L -0.864,2.311 0.92,0 Z m -2.463,0 v 4.781 c 0,0.408 -0.04,0.68 -0.104,0.912 l 0.744,0.176 c 0.048,-0.217 0.096,-0.552 0.096,-0.88 V 0"
         style="fill:#231f20;fill-opacity:1;fill-rule:nonzero;stroke:none"
         id="path1269" />
    </g>
    <g
       id="g1271"
       transform="matrix(0.32949796,0,0,-0.33513888,-6.6655907,190.79279)">
      <path
         d="m 193.994,183.95 h 1.624 v 0.728 h -1.624 z"
         style="fill:#231f20;fill-opacity:1;fill-rule:nonzero;stroke:none"
         id="path1273" />
    </g>
    <g
       id="g1275"
       transform="matrix(0.32949796,0,0,-0.33513888,59.669171,129.74681)">
      <path
         d="m 0,0 h -2.751 v 5.509 h 0.783 V 0.64 h 2.096"
         style="fill:#231f20;fill-opacity:1;fill-rule:nonzero;stroke:none"
         id="path1277" />
    </g>
    <g
       id="g1279"
       transform="matrix(0.32949796,0,0,-0.33513888,60.385829,128.55707)">
      <path
         d="m 0,0 c -0.639,0 -0.903,-0.456 -0.903,-1.463 0,-1.224 0.312,-1.632 0.936,-1.632 0.559,0 0.903,0.433 0.903,1.481 C 0.936,-0.375 0.576,0 0,0 Z m 0.017,-3.662 c -1.072,0 -1.735,0.816 -1.735,2.119 0,1.296 0.663,2.11 1.718,2.11 1.184,0 1.76,-0.942 1.76,-2.15 0,-1.272 -0.68,-2.079 -1.743,-2.079"
         style="fill:#231f20;fill-opacity:1;fill-rule:nonzero;stroke:none"
         id="path1281" />
    </g>
    <g
       id="g1283"
       transform="matrix(0.32949796,0,0,-0.33513888,62.507466,129.75753)">
      <path
         d="m 0,0 h -0.711 l -0.583,2.183 c -0.073,0.28 -0.249,0.943 -0.249,0.943 h -0.023 c 0,0 -0.161,-0.68 -0.216,-0.895 L -2.382,0 h -0.703 l -1.096,4.006 0.743,0.12 0.512,-2.247 c 0.088,-0.4 0.208,-0.984 0.208,-0.984 h 0.024 c 0,0 0.088,0.569 0.184,0.912 l 0.608,2.231 h 0.759 l 0.56,-2.167 c 0.112,-0.432 0.224,-0.936 0.224,-0.976 h 0.032 c 0,0.04 0.128,0.688 0.184,0.952 L 0.353,4.038 H 1.12"
         style="fill:#231f20;fill-opacity:1;fill-rule:nonzero;stroke:none"
         id="path1285" />
    </g>
    <g
       id="g1287"
       transform="matrix(0.32949796,0,0,-0.33513888,63.770104,128.64286)">
      <path
         d="m 0,0 c -0.127,0.16 -0.319,0.28 -0.575,0.28 -0.56,0 -0.84,-0.456 -0.84,-1.183 H 0.249 C 0.249,-0.519 0.161,-0.2 0,0 Z m -1.422,-1.447 v -0.096 c 0,-0.344 0.047,-0.607 0.168,-0.8 0.207,-0.319 0.535,-0.471 0.919,-0.471 0.376,0 0.695,0.128 0.983,0.383 l 0.28,-0.439 c -0.391,-0.344 -0.864,-0.512 -1.383,-0.512 -1.111,0 -1.791,0.808 -1.791,2.118 0,0.697 0.136,1.145 0.48,1.552 0.319,0.376 0.711,0.552 1.207,0.552 0.448,0 0.808,-0.144 1.087,-0.432 0.352,-0.36 0.48,-0.807 0.488,-1.727 0,-0.024 0,-0.079 0,-0.128"
         style="fill:#231f20;fill-opacity:1;fill-rule:nonzero;stroke:none"
         id="path1289" />
    </g>
    <g
       id="g1291"
       transform="matrix(0.32949796,0,0,-0.33513888,65.048884,128.62108)">
      <path
         d="m 0,0 c -0.072,0.024 -0.128,0.04 -0.208,0.04 -0.448,0 -0.832,-0.376 -0.832,-0.816 v -2.583 h -0.735 v 2.943 c 0,0.487 -0.056,0.751 -0.152,0.999 l 0.712,0.184 C -1.144,0.615 -1.08,0.351 -1.08,0.151 V 0.079 c 0.32,0.464 0.664,0.696 1.088,0.696 0.096,0 0.184,-0.017 0.248,-0.04"
         style="fill:#231f20;fill-opacity:1;fill-rule:nonzero;stroke:none"
         id="path1293" />
    </g>
    <g
       id="g1295"
       transform="matrix(0.32949796,0,0,-0.33513888,66.546122,129.75217)">
      <path
         d="m 0,0 h -0.752 l -1.839,5.525 h 0.848 L -0.688,2.231 C -0.624,2.04 -0.536,1.743 -0.48,1.503 -0.44,1.328 -0.408,1.2 -0.392,1.087 h 0.048 c 0.024,0.113 0.056,0.216 0.112,0.416 0.064,0.224 0.128,0.432 0.224,0.736 L 1.071,5.525 H 1.87"
         style="fill:#231f20;fill-opacity:1;fill-rule:nonzero;stroke:none"
         id="path1297" />
    </g>
    <g
       id="g1299"
       transform="matrix(0.32949796,0,0,-0.33513888,67.366243,129.74681)">
      <path
         d="M 0,0 V 3.983 L 0.76,4.102 V 0 Z m 0.376,4.709 c -0.288,0 -0.512,0.24 -0.512,0.528 0,0.296 0.232,0.537 0.52,0.537 0.288,0 0.528,-0.233 0.528,-0.537 0,-0.288 -0.24,-0.528 -0.536,-0.528"
         style="fill:#231f20;fill-opacity:1;fill-rule:nonzero;stroke:none"
         id="path1301" />
    </g>
    <g
       id="g1303"
       transform="matrix(0.32949796,0,0,-0.33513888,68.689177,128.64286)">
      <path
         d="m 0,0 c -0.128,0.16 -0.32,0.28 -0.575,0.28 -0.561,0 -0.84,-0.456 -0.84,-1.183 H 0.248 C 0.248,-0.519 0.16,-0.2 0,0 Z m -1.423,-1.447 v -0.096 c 0,-0.344 0.048,-0.607 0.168,-0.8 0.207,-0.319 0.535,-0.471 0.919,-0.471 0.376,0 0.696,0.128 0.984,0.383 L 0.927,-2.87 c -0.391,-0.344 -0.863,-0.512 -1.383,-0.512 -1.111,0 -1.791,0.808 -1.791,2.118 0,0.697 0.136,1.145 0.48,1.552 0.32,0.376 0.712,0.552 1.207,0.552 0.448,0 0.808,-0.144 1.088,-0.432 0.352,-0.36 0.48,-0.807 0.487,-1.727 0,-0.024 0,-0.079 0,-0.128"
         style="fill:#231f20;fill-opacity:1;fill-rule:nonzero;stroke:none"
         id="path1305" />
    </g>
    <g
       id="g1307"
       transform="matrix(0.32949796,0,0,-0.33513888,70.597299,129.75753)">
      <path
         d="m 0,0 h -0.712 l -0.583,2.183 c -0.072,0.28 -0.248,0.943 -0.248,0.943 h -0.024 c 0,0 -0.16,-0.68 -0.216,-0.895 L -2.383,0 h -0.703 l -1.095,4.006 0.743,0.12 0.511,-2.247 c 0.088,-0.4 0.208,-0.984 0.208,-0.984 h 0.024 c 0,0 0.088,0.569 0.184,0.912 l 0.608,2.231 h 0.76 L -0.584,1.871 C -0.471,1.439 -0.36,0.935 -0.36,0.895 h 0.032 c 0,0.04 0.128,0.688 0.184,0.952 l 0.496,2.191 h 0.767"
         style="fill:#231f20;fill-opacity:1;fill-rule:nonzero;stroke:none"
         id="path1309" />
    </g>
    <g
       id="g1311"
       transform="matrix(0.32949796,0,0,-0.33513888,49.066256,131.06625)">
      <path
         d="m 0,0 c -0.267,-0.408 -0.47,-1.002 -0.645,-1.78 -0.112,-0.504 -0.189,-1.043 -0.189,-1.464 0,-0.735 0.189,-1.225 0.722,-1.575 l -0.239,-0.357 c -0.679,0.321 -1.12,1.001 -1.12,1.961 0,0.448 0.07,0.966 0.161,1.4 0.245,1.17 0.623,1.899 1.198,2.438 0.343,0.322 0.763,0.589 1.148,0.728 L 1.148,0.966 C 0.567,0.65 0.252,0.391 0,0"
         style="fill:#231f20;fill-opacity:1;fill-rule:nonzero;stroke:none"
         id="path1313" />
    </g>
    <g
       id="g1315"
       transform="matrix(0.32949796,0,0,-0.33513888,50.427082,130.99821)">
      <path
         d="m 0,0 h -1.883 l -0.309,-1.464 h 1.583 l -0.126,-0.575 h -1.583 l -0.343,-1.645 h 2.045 l -0.126,-0.582 h -2.731 l 1.022,4.819 h 2.669"
         style="fill:#231f20;fill-opacity:1;fill-rule:nonzero;stroke:none"
         id="path1317" />
    </g>
    <g
       id="g1319"
       transform="matrix(0.32949796,0,0,-0.33513888,51.506518,131.55689)">
      <path
         d="m 0,0 -0.553,-2.599 h -0.645 l 0.498,2.354 c 0.035,0.168 0.056,0.279 0.056,0.363 0,0.218 -0.105,0.316 -0.315,0.316 -0.266,0 -0.679,-0.204 -1.107,-0.743 l -0.483,-2.29 h -0.637 l 0.532,2.472 c 0.091,0.434 0.091,0.624 0.021,0.883 l 0.602,0.266 c 0.07,-0.196 0.119,-0.413 0.049,-0.721 0.357,0.455 0.847,0.693 1.317,0.693 0.434,0 0.7,-0.273 0.7,-0.7 C 0.035,0.203 0.021,0.097 0,0"
         style="fill:#231f20;fill-opacity:1;fill-rule:nonzero;stroke:none"
         id="path1321" />
    </g>
    <g
       id="g1323"
       transform="matrix(0.32949796,0,0,-0.33513888,52.553661,131.48651)">
      <path
         d="m 0,0 c -0.203,0.182 -0.435,0.252 -0.666,0.252 -0.245,0 -0.504,-0.126 -0.665,-0.344 -0.245,-0.321 -0.49,-1.05 -0.49,-1.596 0,-0.463 0.203,-0.7 0.602,-0.7 0.273,0 0.56,0.14 0.82,0.371 l 0.245,-0.407 c -0.392,-0.322 -0.742,-0.469 -1.198,-0.469 -0.784,0 -1.169,0.427 -1.169,1.197 0,0.821 0.434,1.689 0.903,2.087 0.322,0.274 0.672,0.408 1.078,0.408 0.344,0 0.638,-0.106 0.869,-0.331"
         style="fill:#231f20;fill-opacity:1;fill-rule:nonzero;stroke:none"
         id="path1325" />
    </g>
    <g
       id="g1327"
       transform="matrix(0.32949796,0,0,-0.33513888,53.337537,131.39033)">
      <path
         d="m 0,0 c -0.742,0 -1.162,-0.987 -1.162,-1.968 0,-0.498 0.231,-0.7 0.623,-0.7 0.757,0 1.156,0.994 1.156,1.974 C 0.617,-0.183 0.344,0 0,0 Z m -0.658,-3.18 c -0.77,0 -1.204,0.463 -1.204,1.261 0,1.373 0.833,2.431 1.975,2.431 0.805,0 1.211,-0.492 1.211,-1.254 0,-1.331 -0.77,-2.438 -1.982,-2.438"
         style="fill:#231f20;fill-opacity:1;fill-rule:nonzero;stroke:none"
         id="path1329" />
    </g>
    <g
       id="g1331"
       transform="matrix(0.32949796,0,0,-0.33513888,54.442345,131.10613)">
      <path
         d="M 0,0 -0.644,-2.999 C -0.686,-3.181 -0.7,-3.292 -0.7,-3.362 c 0,-0.12 0.056,-0.176 0.161,-0.176 0.035,0 0.091,0 0.126,0.015 l 0.035,-0.414 C -0.532,-4 -0.686,-4.021 -0.847,-4.021 c -0.344,0 -0.532,0.175 -0.532,0.477 0,0.097 0.021,0.238 0.056,0.392 l 0.651,3.096 c 0.098,0.469 0.112,0.819 0.042,1.043 L 0.056,1.232 C 0.133,0.98 0.091,0.426 0,0"
         style="fill:#231f20;fill-opacity:1;fill-rule:nonzero;stroke:none"
         id="path1333" />
    </g>
    <g
       id="g1335"
       transform="matrix(0.32949796,0,0,-0.33513888,55.499045,132.08038)">
      <path
         d="m 0,0 c -0.084,-0.407 -0.07,-0.616 0.084,-0.834 l -0.525,-0.343 c -0.168,0.175 -0.26,0.378 -0.239,0.694 -0.392,-0.449 -0.826,-0.666 -1.253,-0.666 -0.484,0 -0.771,0.224 -0.771,0.708 0,0.16 0.021,0.357 0.056,0.525 l 0.505,2.353 0.658,0.119 -0.49,-2.332 c -0.042,-0.19 -0.063,-0.351 -0.063,-0.462 0,-0.273 0.098,-0.378 0.315,-0.378 0.329,0 0.805,0.287 1.128,0.798 l 0.476,2.241 0.658,0.119"
         style="fill:#231f20;fill-opacity:1;fill-rule:nonzero;stroke:none"
         id="path1337" />
    </g>
    <g
       id="g1339"
       transform="matrix(0.32949796,0,0,-0.33513888,56.54586,131.45602)">
      <path
         d="m 0,0 c -0.07,0.028 -0.133,0.042 -0.238,0.042 -0.287,0 -0.609,-0.238 -0.931,-0.715 L -1.638,-2.9 h -0.638 l 0.505,2.367 c 0.105,0.504 0.112,0.743 0.034,0.988 l 0.603,0.266 C -1.057,0.532 -1.029,0.273 -1.092,-0.049 -0.763,0.413 -0.329,0.7 0,0.7 0.133,0.7 0.196,0.686 0.28,0.659"
         style="fill:#231f20;fill-opacity:1;fill-rule:nonzero;stroke:none"
         id="path1341" />
    </g>
    <g
       id="g1343"
       transform="matrix(0.32949796,0,0,-0.33513888,57.177837,131.38563)">
      <path
         d="m 0,0 c -0.42,0 -0.826,-0.393 -1.001,-1.085 0.077,-0.008 0.224,-0.015 0.336,-0.015 0.539,0 0.819,0.077 0.994,0.253 0.105,0.104 0.168,0.23 0.168,0.391 C 0.497,-0.204 0.364,0 0,0 Z m 0.826,-1.163 c -0.294,-0.28 -0.756,-0.42 -1.498,-0.42 -0.161,0 -0.322,0.021 -0.434,0.021 -0.029,-0.119 -0.05,-0.287 -0.05,-0.406 0,-0.47 0.295,-0.708 0.673,-0.708 0.406,0 0.686,0.112 1.015,0.392 l 0.231,-0.398 c -0.378,-0.351 -0.77,-0.512 -1.421,-0.512 -0.701,0 -1.198,0.463 -1.198,1.275 0,0.693 0.287,1.45 0.778,1.925 0.35,0.337 0.735,0.492 1.169,0.492 0.672,0 1.058,-0.337 1.058,-0.925 0,-0.287 -0.12,-0.546 -0.323,-0.736"
         style="fill:#231f20;fill-opacity:1;fill-rule:nonzero;stroke:none"
         id="path1345" />
    </g>
    <g
       id="g1347"
       transform="matrix(0.32949796,0,0,-0.33513888,58.741634,131.8974)">
      <path
         d="m 0,0 h -1.429 l 0.133,0.596 h 1.422"
         style="fill:#231f20;fill-opacity:1;fill-rule:nonzero;stroke:none"
         id="path1349" />
    </g>
    <g
       id="g1351"
       transform="matrix(0.32949796,0,0,-0.33513888,59.980215,132.43027)">
      <path
         d="m 0,0 h -0.651 l -0.596,4.826 h 0.707 l 0.337,-2.942 c 0.042,-0.371 0.056,-0.819 0.049,-1.016 0.077,0.168 0.259,0.54 0.504,0.995 l 1.604,2.963 h 0.728"
         style="fill:#231f20;fill-opacity:1;fill-rule:nonzero;stroke:none"
         id="path1353" />
    </g>
    <g
       id="g1355"
       transform="matrix(0.32949796,0,0,-0.33513888,61.557852,132.08038)">
      <path
         d="m 0,0 c -0.084,-0.407 -0.07,-0.616 0.084,-0.834 l -0.525,-0.343 c -0.168,0.175 -0.259,0.378 -0.238,0.694 -0.393,-0.449 -0.827,-0.666 -1.254,-0.666 -0.483,0 -0.77,0.224 -0.77,0.708 0,0.16 0.021,0.357 0.056,0.525 l 0.504,2.353 0.658,0.119 -0.49,-2.332 c -0.042,-0.19 -0.063,-0.351 -0.063,-0.462 0,-0.273 0.098,-0.378 0.315,-0.378 0.33,0 0.806,0.287 1.128,0.798 l 0.476,2.241 0.659,0.119"
         style="fill:#231f20;fill-opacity:1;fill-rule:nonzero;stroke:none"
         id="path1357" />
    </g>
    <g
       id="g1359"
       transform="matrix(0.32949796,0,0,-0.33513888,62.491979,131.38563)">
      <path
         d="m 0,0 c -0.421,0 -0.827,-0.393 -1.002,-1.085 0.077,-0.008 0.224,-0.015 0.336,-0.015 0.54,0 0.82,0.077 0.995,0.253 0.105,0.104 0.168,0.23 0.168,0.391 C 0.497,-0.204 0.364,0 0,0 Z m 0.826,-1.163 c -0.294,-0.28 -0.757,-0.42 -1.499,-0.42 -0.161,0 -0.322,0.021 -0.434,0.021 -0.028,-0.119 -0.049,-0.287 -0.049,-0.406 0,-0.47 0.294,-0.708 0.672,-0.708 0.406,0 0.687,0.112 1.016,0.392 l 0.231,-0.398 c -0.378,-0.351 -0.77,-0.512 -1.422,-0.512 -0.7,0 -1.197,0.463 -1.197,1.275 0,0.693 0.287,1.45 0.777,1.925 0.35,0.337 0.735,0.492 1.169,0.492 0.673,0 1.058,-0.337 1.058,-0.925 0,-0.287 -0.119,-0.546 -0.322,-0.736"
         style="fill:#231f20;fill-opacity:1;fill-rule:nonzero;stroke:none"
         id="path1361" />
    </g>
    <g
       id="g1363"
       transform="matrix(0.32949796,0,0,-0.33513888,63.776362,132.42792)">
      <path
         d="M 0,0 H -0.672 L 0.35,4.819 h 0.679"
         style="fill:#231f20;fill-opacity:1;fill-rule:nonzero;stroke:none"
         id="path1365" />
    </g>
    <g
       id="g1367"
       transform="matrix(0.32949796,0,0,-0.33513888,65.227471,131.55689)">
      <path
         d="m 0,0 -0.553,-2.599 h -0.644 l 0.497,2.354 c 0.035,0.168 0.056,0.279 0.056,0.363 0,0.218 -0.105,0.316 -0.316,0.316 -0.266,0 -0.679,-0.204 -1.106,-0.743 l -0.483,-2.29 h -0.638 l 0.533,2.472 c 0.091,0.434 0.091,0.624 0.021,0.883 l 0.602,0.266 c 0.07,-0.196 0.119,-0.413 0.049,-0.721 0.357,0.455 0.848,0.693 1.317,0.693 0.434,0 0.7,-0.273 0.7,-0.7 C 0.035,0.203 0.021,0.097 0,0"
         style="fill:#231f20;fill-opacity:1;fill-rule:nonzero;stroke:none"
         id="path1369" />
    </g>
    <g
       id="g1371"
       transform="matrix(0.32949796,0,0,-0.33513888,66.281536,130.93253)">
      <path
         d="m 0,0 c -0.147,0.098 -0.309,0.147 -0.483,0.147 -0.288,0 -0.512,-0.204 -0.575,-0.56 l -0.098,-0.532 h 0.952 L -0.483,-1.423 H -1.24 l -0.616,-3.109 c -0.126,-0.651 -0.336,-1.086 -0.631,-1.414 l -0.476,0.314 c 0.21,0.274 0.378,0.631 0.476,1.135 l 0.603,3.074 h -0.358 l 0.092,0.478 h 0.35 c 0.007,0.034 0.084,0.427 0.091,0.468 0.091,0.469 0.28,0.763 0.567,0.946 0.189,0.119 0.42,0.168 0.68,0.168 0.308,0 0.539,-0.064 0.714,-0.182"
         style="fill:#231f20;fill-opacity:1;fill-rule:nonzero;stroke:none"
         id="path1373" />
    </g>
    <g
       id="g1375"
       transform="matrix(0.32949796,0,0,-0.33513888,66.740196,131.38563)">
      <path
         d="m 0,0 c -0.42,0 -0.826,-0.393 -1.001,-1.085 0.077,-0.008 0.224,-0.015 0.336,-0.015 0.539,0 0.819,0.077 0.995,0.253 0.105,0.104 0.168,0.23 0.168,0.391 C 0.498,-0.204 0.364,0 0,0 Z m 0.827,-1.163 c -0.294,-0.28 -0.757,-0.42 -1.499,-0.42 -0.161,0 -0.322,0.021 -0.434,0.021 -0.028,-0.119 -0.049,-0.287 -0.049,-0.406 0,-0.47 0.294,-0.708 0.672,-0.708 0.407,0 0.686,0.112 1.016,0.392 l 0.231,-0.398 c -0.379,-0.351 -0.771,-0.512 -1.422,-0.512 -0.7,0 -1.198,0.463 -1.198,1.275 0,0.693 0.287,1.45 0.778,1.925 0.35,0.337 0.735,0.492 1.169,0.492 0.673,0 1.058,-0.337 1.058,-0.925 0,-0.287 -0.119,-0.546 -0.322,-0.736"
         style="fill:#231f20;fill-opacity:1;fill-rule:nonzero;stroke:none"
         id="path1377" />
    </g>
    <g
       id="g1379"
       transform="matrix(0.32949796,0,0,-0.33513888,68.013378,131.45602)">
      <path
         d="m 0,0 c -0.069,0.028 -0.132,0.042 -0.238,0.042 -0.287,0 -0.609,-0.238 -0.931,-0.715 L -1.638,-2.9 h -0.638 l 0.504,2.367 c 0.105,0.504 0.113,0.743 0.036,0.988 l 0.602,0.266 C -1.057,0.532 -1.029,0.273 -1.092,-0.049 -0.763,0.413 -0.329,0.7 0,0.7 0.134,0.7 0.197,0.686 0.281,0.659"
         style="fill:#231f20;fill-opacity:1;fill-rule:nonzero;stroke:none"
         id="path1381" />
    </g>
    <g
       id="g1383"
       transform="matrix(0.32949796,0,0,-0.33513888,68.458527,131.05217)">
      <path
         d="M 0,0 C -0.259,0 -0.469,0.203 -0.469,0.462 -0.469,0.72 -0.259,0.93 0,0.93 0.259,0.93 0.462,0.72 0.462,0.462 0.462,0.203 0.259,0 0,0 Z m -0.645,-4.105 h -0.672 l 0.743,3.487 0.693,0.106"
         style="fill:#231f20;fill-opacity:1;fill-rule:nonzero;stroke:none"
         id="path1385" />
    </g>
    <g
       id="g1387"
       transform="matrix(0.32949796,0,0,-0.33513888,69.256574,131.38563)">
      <path
         d="m 0,0 c -0.42,0 -0.826,-0.393 -1.002,-1.085 0.078,-0.008 0.225,-0.015 0.337,-0.015 0.539,0 0.819,0.077 0.994,0.253 0.105,0.104 0.168,0.23 0.168,0.391 C 0.497,-0.204 0.364,0 0,0 Z m 0.827,-1.163 c -0.294,-0.28 -0.757,-0.42 -1.499,-0.42 -0.161,0 -0.322,0.021 -0.435,0.021 -0.027,-0.119 -0.048,-0.287 -0.048,-0.406 0,-0.47 0.294,-0.708 0.672,-0.708 0.406,0 0.686,0.112 1.016,0.392 l 0.231,-0.398 c -0.379,-0.351 -0.771,-0.512 -1.422,-0.512 -0.701,0 -1.198,0.463 -1.198,1.275 0,0.693 0.288,1.45 0.778,1.925 0.35,0.337 0.735,0.492 1.169,0.492 0.673,0 1.058,-0.337 1.058,-0.925 0,-0.287 -0.119,-0.546 -0.322,-0.736"
         style="fill:#231f20;fill-opacity:1;fill-rule:nonzero;stroke:none"
         id="path1389" />
    </g>
    <g
       id="g1391"
       transform="matrix(0.32949796,0,0,-0.33513888,70.716908,132.08038)">
      <path
         d="m 0,0 c -0.084,-0.407 -0.07,-0.616 0.084,-0.834 l -0.526,-0.343 c -0.168,0.175 -0.259,0.378 -0.238,0.694 -0.392,-0.449 -0.826,-0.666 -1.254,-0.666 -0.482,0 -0.77,0.224 -0.77,0.708 0,0.16 0.021,0.357 0.056,0.525 l 0.504,2.353 0.659,0.119 -0.491,-2.332 c -0.042,-0.19 -0.063,-0.351 -0.063,-0.462 0,-0.273 0.099,-0.378 0.316,-0.378 0.329,0 0.805,0.287 1.127,0.798 l 0.476,2.241 0.659,0.119"
         style="fill:#231f20;fill-opacity:1;fill-rule:nonzero;stroke:none"
         id="path1393" />
    </g>
    <g
       id="g1547"
       transform="matrix(0.32949796,0,0,-0.33513888,67.946488,127.55064)">
      <path
         d="m 0,0 c 3.5,8.5 0.5,21.5 -0.5,24.5 -1,3 2.235,7.661 -1.772,14.34 -7.421,12.367 -9.795,9.349 -9.228,26.16 0.216,6.392 -1.592,15.057 -3.779,21.084 0,0 4.754,7.343 4.262,12.439 -0.471,4.875 -5.409,12.003 -5.688,14.883 -0.278,2.881 -0.407,15.527 -5.972,15.527 -1.386,0 -5.838,-0.824 -5.838,-5.499 0,-4.674 -0.223,-12.021 -0.891,-13.58 -0.668,-1.558 -3.339,-9.573 -3.339,-13.134 0,-3.562 2.053,-7.396 5.12,-10.686 -1.508,-0.717 -3.154,-14.642 -2.938,-21.034 0.567,-16.811 -1.808,-13.793 -9.228,-26.16 -4.008,-6.679 -0.772,-11.34 -1.772,-14.34 -1,-3 -4,-16 -0.5,-24.5"
         style="fill:#ffffff;fill-opacity:1;fill-rule:nonzero;stroke:none"
         id="path1549" />
    </g>
    <g
       id="g1551"
       transform="matrix(0.32949796,0,0,-0.33513888,67.946488,127.55064)">
      <path
         d="m 0,0 c 3.5,8.5 0.5,21.5 -0.5,24.5 -1,3 2.235,7.661 -1.772,14.34 -7.421,12.367 -9.795,9.349 -9.228,26.16 0.216,6.392 -1.592,15.057 -3.779,21.084 0,0 4.754,7.343 4.262,12.439 -0.471,4.875 -5.409,12.003 -5.688,14.883 -0.278,2.881 -0.407,15.527 -5.972,15.527 -1.386,0 -5.838,-0.824 -5.838,-5.499 0,-4.674 -0.223,-12.021 -0.891,-13.58 -0.668,-1.558 -3.339,-9.573 -3.339,-13.134 0,-3.562 2.053,-7.396 5.12,-10.686 -1.508,-0.717 -3.154,-14.642 -2.938,-21.034 0.567,-16.811 -1.808,-13.793 -9.228,-26.16 -4.008,-6.679 -0.772,-11.34 -1.772,-14.34 -1,-3 -4,-16 -0.5,-24.5"
         style="fill:none;stroke:#231f20;stroke-width:1;stroke-linecap:butt;stroke-linejoin:miter;stroke-miterlimit:4;stroke-dasharray:none;stroke-opacity:1"
         id="path1553" />
    </g>
    <g
       id="g1555"
       transform="matrix(0.32949796,0,0,-0.33513888,57.329405,127.44105)">
      <path
         d="m 0,0 c -0.223,4.23 2.893,4.897 4.452,9.795 0,0 3.785,-1.336 5.565,-1.336 h 2.346 c 1.781,0 5.566,1.336 5.566,1.336 C 19.487,4.897 22.604,4.23 22.381,0"
         style="fill:none;stroke:#231f20;stroke-width:1;stroke-linecap:butt;stroke-linejoin:miter;stroke-miterlimit:4;stroke-dasharray:none;stroke-opacity:1"
         id="path1557" />
    </g>
    <g
       id="g1559"
       transform="matrix(0.32949796,0,0,-0.33513888,54.835763,115.73733)">
      <path
         d="M 0,0 C -2.013,-15.358 9.736,-13.932 11.918,-23.835"
         style="fill:none;stroke:#231f20;stroke-width:0.5;stroke-linecap:butt;stroke-linejoin:miter;stroke-miterlimit:4;stroke-dasharray:none;stroke-opacity:1"
         id="path1561" />
    </g>
    <g
       id="g1563"
       transform="matrix(0.32949796,0,0,-0.33513888,56.937631,120.63137)">
      <path
         d="M 0,0 C 0.335,1.175 1.678,8.225 7.721,12.924"
         style="fill:none;stroke:#231f20;stroke-width:0.5;stroke-linecap:butt;stroke-linejoin:miter;stroke-miterlimit:4;stroke-dasharray:none;stroke-opacity:1"
         id="path1565" />
    </g>
    <g
       id="g1567"
       transform="matrix(0.32949796,0,0,-0.33513888,67.197209,115.73733)">
      <path
         d="M 0,0 C 2.014,-15.358 -9.735,-13.932 -11.918,-23.835"
         style="fill:none;stroke:#231f20;stroke-width:0.5;stroke-linecap:butt;stroke-linejoin:miter;stroke-miterlimit:4;stroke-dasharray:none;stroke-opacity:1"
         id="path1569" />
    </g>
    <g
       id="g1571"
       transform="matrix(0.32949796,0,0,-0.33513888,65.095341,120.63137)">
      <path
         d="M 0,0 C -0.335,1.175 -1.678,8.225 -7.721,12.924"
         style="fill:none;stroke:#231f20;stroke-width:0.5;stroke-linecap:butt;stroke-linejoin:miter;stroke-miterlimit:4;stroke-dasharray:none;stroke-opacity:1"
         id="path1573" />
    </g>
    <g
       id="g1575"
       transform="matrix(0.32949796,0,0,-0.33513888,61.016486,119.11252)">
      <path
         d="M 0,0 V -16.198"
         style="fill:none;stroke:#231f20;stroke-width:0.5;stroke-linecap:butt;stroke-linejoin:miter;stroke-miterlimit:4;stroke-dasharray:none;stroke-opacity:1"
         id="path1577" />
    </g>
    <g
       id="g1579"
       transform="matrix(0.32949796,0,0,-0.33513888,59.123191,99.072552)">
      <path
         d="m 0,0 c 0.441,-0.882 1.678,-7.031 1.543,-8.82 -0.33,-4.41 -2.977,-19.072 0.662,-28.663"
         style="fill:none;stroke:#231f20;stroke-width:0.5;stroke-linecap:butt;stroke-linejoin:miter;stroke-miterlimit:4;stroke-dasharray:none;stroke-opacity:1"
         id="path1581" />
    </g>
    <g
       id="g1583"
       transform="matrix(0.32949796,0,0,-0.33513888,62.574353,99.072552)">
      <path
         d="m 0,0 c -0.442,-0.882 -1.678,-7.031 -1.544,-8.82 0.331,-4.41 2.976,-19.072 -0.661,-28.663"
         style="fill:none;stroke:#231f20;stroke-width:0.5;stroke-linecap:butt;stroke-linejoin:miter;stroke-miterlimit:4;stroke-dasharray:none;stroke-opacity:1"
         id="path1585" />
    </g>
    <g
       id="g1587"
       transform="matrix(0.32949796,0,0,-0.33513888,59.086947,96.782213)">
      <path
         d="M 0,0 C -0.772,3.198 -2.095,8.82 0.11,14.883 2.315,20.947 1.763,31.75 3.748,31.75 5.732,31.75 6.606,18.078 7.937,14.883 9.59,10.915 10.914,6.395 8.598,0.111"
         style="fill:none;stroke:#231f20;stroke-width:0.5;stroke-linecap:butt;stroke-linejoin:miter;stroke-miterlimit:4;stroke-dasharray:none;stroke-opacity:1"
         id="path1589" />
    </g>
    <g
       id="g2755"
       transform="matrix(0.32949796,0,0,-0.33513888,60.852067,100.9614)">
      <path
         d="M 0,0 V -17.695"
         style="fill:#ffffff;fill-opacity:1;fill-rule:nonzero;stroke:none"
         id="path2757" />
    </g>
    <g
       id="g2759"
       transform="matrix(0.32949796,0,0,-0.33513888,60.852067,100.9614)">
      <path
         d="M 0,0 V -17.695"
         style="fill:none;stroke:#231f20;stroke-width:0.5;stroke-linecap:butt;stroke-linejoin:miter;stroke-miterlimit:4;stroke-dasharray:none;stroke-opacity:1"
         id="path2761" />
    </g>
  </g>
</svg>
