<?xml version="1.0" encoding="UTF-8" standalone="no"?>
<svg
   xmlns:dc="http://purl.org/dc/elements/1.1/"
   xmlns:cc="http://creativecommons.org/ns#"
   xmlns:rdf="http://www.w3.org/1999/02/22-rdf-syntax-ns#"
   xmlns:svg="http://www.w3.org/2000/svg"
   xmlns="http://www.w3.org/2000/svg"
   width="62.244862mm"
   height="46.658104mm"
   viewBox="0 0 62.244862 46.658104"
   version="1.1"
   id="svg5299">
  <defs
     id="defs5293">
    <clipPath
       clipPathUnits="userSpaceOnUse"
       id="clipPath981">
      <path
         d="M 42.396,382.682 H 418.09 V 164.033 H 42.396"
         id="path979" />
    </clipPath>
  </defs>
  <metadata
     id="metadata5296">
    <rdf:RDF>
      <cc:Work
         rdf:about="">
        <dc:format>image/svg+xml</dc:format>
        <dc:type
           rdf:resource="http://purl.org/dc/dcmitype/StillImage" />
        <dc:title></dc:title>
      </cc:Work>
    </rdf:RDF>
  </metadata>
  <g
     id="layer1"
     transform="translate(-22.641,-11.797048)">
    <g
       id="g10709"
       transform="translate(14.350199,-43.993658)">
      <g
         id="g1407"
         transform="matrix(0.32949796,0,0,-0.33513888,43.208441,82.558281)">
        <path
           d="m 0,0 c 0.167,-2 -1.333,-15.75 -1.167,-17.5 0,0 -0.66,-1.67 -0.66,-3.253 0,-0.921 0.364,-2.16 0.327,-2.997 -0.417,-9.334 -2.083,-9 -2.917,-13.333 -0.141,-0.736 4.167,-3.834 4.167,-6.084 0,-2.25 -1.084,-4.5 -0.5,-5.25 0.583,-0.75 7.834,-2.25 8.417,-0.5 0.583,1.75 -5.75,9.417 -5.334,13.167 0.417,3.75 3.833,12.334 5.167,13.667 1.333,1.333 3.083,20.833 3.083,20.833 l -1.75,4.583"
           style="fill:#ffffff;fill-opacity:1;fill-rule:nonzero;stroke:none"
           id="path1409" />
      </g>
      <g
         id="g1411"
         transform="matrix(0.32949796,0,0,-0.33513888,43.208441,82.558281)">
        <path
           d="m 0,0 c 0.167,-2 -1.333,-15.75 -1.167,-17.5 0,0 -0.66,-1.67 -0.66,-3.253 0,-0.921 0.364,-2.16 0.327,-2.997 -0.417,-9.334 -2.083,-9 -2.917,-13.333 -0.141,-0.736 4.167,-3.834 4.167,-6.084 0,-2.25 -1.084,-4.5 -0.5,-5.25 0.583,-0.75 7.834,-2.25 8.417,-0.5 0.583,1.75 -5.75,9.417 -5.334,13.167 0.417,3.75 3.833,12.334 5.167,13.667 1.333,1.333 3.083,20.833 3.083,20.833 l -1.75,4.583 z"
           style="fill:none;stroke:#231f20;stroke-width:1;stroke-linecap:butt;stroke-linejoin:miter;stroke-miterlimit:4;stroke-dasharray:none;stroke-opacity:1"
           id="path1413" />
      </g>
      <g
         id="g1415"
         transform="matrix(0.32949796,0,0,-0.33513888,15.72083,69.578182)">
        <path
           d="m 0,0 c -6.322,1.998 -20.631,0.334 -20.631,-8.65 0,-8.986 -0.333,-43.592 -1.331,-47.585 0,0 5.324,-2.329 10.315,-1.331 l 8.985,16.637"
           style="fill:#ffffff;fill-opacity:1;fill-rule:nonzero;stroke:none"
           id="path1417" />
      </g>
      <g
         id="g1419"
         transform="matrix(0.32949796,0,0,-0.33513888,15.72083,69.578182)">
        <path
           d="m 0,0 c -6.322,1.998 -20.631,0.334 -20.631,-8.65 0,-8.986 -0.333,-43.592 -1.331,-47.585 0,0 5.324,-2.329 10.315,-1.331 l 8.985,16.637 z"
           style="fill:none;stroke:#231f20;stroke-width:1;stroke-linecap:butt;stroke-linejoin:miter;stroke-miterlimit:4;stroke-dasharray:none;stroke-opacity:1"
           id="path1421" />
      </g>
      <g
         id="g1423"
         transform="matrix(0.32949796,0,0,-0.33513888,11.99981,70.337173)">
        <path
           d="M 0,0 C -2.347,-0.782 -7.824,-1.409 -7.98,-10.953"
           style="fill:none;stroke:#918f90;stroke-width:1;stroke-linecap:butt;stroke-linejoin:miter;stroke-miterlimit:4;stroke-dasharray:none;stroke-opacity:1"
           id="path1425" />
      </g>
      <g
         id="g1427"
         transform="matrix(0.32949796,0,0,-0.33513888,9.3187838,75.476193)">
        <path
           d="M 0,0 C 0,-1.096 0.001,-23.158 -0.469,-26.444"
           style="fill:none;stroke:#918f90;stroke-width:1;stroke-linecap:butt;stroke-linejoin:miter;stroke-miterlimit:4;stroke-dasharray:none;stroke-opacity:1"
           id="path1429" />
      </g>
      <g
         id="g1431"
         transform="matrix(0.32949796,0,0,-0.33513888,9.0610507,85.806916)">
        <path
           d="M 0,0 C 0,-1.565 -0.143,-5.664 -0.613,-7.542"
           style="fill:none;stroke:#918f90;stroke-width:1;stroke-linecap:butt;stroke-linejoin:miter;stroke-miterlimit:4;stroke-dasharray:none;stroke-opacity:1"
           id="path1433" />
      </g>
      <g
         id="g1435"
         transform="matrix(0.32949796,0,0,-0.33513888,12.05131,70.914184)">
        <path
           d="M 0,0 C -1.564,-0.626 -5.633,-5.633 -5.633,-10.953"
           style="fill:none;stroke:#918f90;stroke-width:1;stroke-linecap:butt;stroke-linejoin:miter;stroke-miterlimit:4;stroke-dasharray:none;stroke-opacity:1"
           id="path1437" />
      </g>
      <g
         id="g1439"
         transform="matrix(0.32949796,0,0,-0.33513888,10.092346,75.791022)">
        <path
           d="M 0,0 C 0,-1.565 -0.783,-24.409 -0.94,-26.443"
           style="fill:none;stroke:#918f90;stroke-width:1;stroke-linecap:butt;stroke-linejoin:miter;stroke-miterlimit:4;stroke-dasharray:none;stroke-opacity:1"
           id="path1441" />
      </g>
      <g
         id="g1443"
         transform="matrix(0.32949796,0,0,-0.33513888,9.7313154,85.334973)">
        <path
           d="M 0,0 C -0.312,-2.034 -1,-7.566 -1.312,-9.287"
           style="fill:none;stroke:#918f90;stroke-width:1;stroke-linecap:butt;stroke-linejoin:miter;stroke-miterlimit:4;stroke-dasharray:none;stroke-opacity:1"
           id="path1445" />
      </g>
      <g
         id="g1447"
         transform="matrix(0.32949796,0,0,-0.33513888,12.412341,71.858065)">
        <path
           d="M 0,0 C -2.034,-1.877 -4.381,-7.979 -4.381,-12.048"
           style="fill:none;stroke:#918f90;stroke-width:1;stroke-linecap:butt;stroke-linejoin:miter;stroke-miterlimit:4;stroke-dasharray:none;stroke-opacity:1"
           id="path1449" />
      </g>
      <g
         id="g1451"
         transform="matrix(0.32949796,0,0,-0.33513888,10.968844,77.469031)">
        <path
           d="M 0,0 C -0.157,-2.348 -0.626,-8.293 -0.626,-10.327"
           style="fill:none;stroke:#918f90;stroke-width:1;stroke-linecap:butt;stroke-linejoin:miter;stroke-miterlimit:4;stroke-dasharray:none;stroke-opacity:1"
           id="path1453" />
      </g>
      <g
         id="g1455"
         transform="matrix(0.32949796,0,0,-0.33513888,10.659314,82.34587)">
        <path
           d="M 0,0 C 0,-1.566 -1.521,-16.277 -1.99,-18.625"
           style="fill:none;stroke:#918f90;stroke-width:1;stroke-linecap:butt;stroke-linejoin:miter;stroke-miterlimit:4;stroke-dasharray:none;stroke-opacity:1"
           id="path1457" />
      </g>
      <g
         id="g1459"
         transform="matrix(0.32949796,0,0,-0.33513888,12.103108,78.570329)">
        <path
           d="M 0,0 C -0.313,-2.504 -0.626,-10.015 -1.252,-13.926"
           style="fill:none;stroke:#918f90;stroke-width:1;stroke-linecap:butt;stroke-linejoin:miter;stroke-miterlimit:4;stroke-dasharray:none;stroke-opacity:1"
           id="path1461" />
      </g>
      <g
         id="g1463"
         transform="matrix(0.32949796,0,0,-0.33513888,11.484343,84.548505)">
        <path
           d="M 0,0 C -0.47,-1.878 -1.56,-10.533 -1.873,-12.567"
           style="fill:none;stroke:#918f90;stroke-width:1;stroke-linecap:butt;stroke-linejoin:miter;stroke-miterlimit:4;stroke-dasharray:none;stroke-opacity:1"
           id="path1465" />
      </g>
      <g
         id="g1467"
         transform="matrix(0.32949796,0,0,-0.33513888,12.95776,81.034439)">
        <path
           d="M 0,0 C -0.232,-1.4 -1.866,-14.463 -2.1,-15.396"
           style="fill:none;stroke:#918f90;stroke-width:1;stroke-linecap:butt;stroke-linejoin:miter;stroke-miterlimit:4;stroke-dasharray:none;stroke-opacity:1"
           id="path1469" />
      </g>
      <g
         id="g1471"
         transform="matrix(0.32949796,0,0,-0.33513888,19.44877,99.625196)">
        <path
           d="M 0,0 C -0.099,0.218 -0.202,0.442 -0.311,0.677 -2.236,4.802 -7.262,4.119 -6.86,7.537 -6.084,14.129 -9.899,29.76 -15.889,36.248 -21.879,42.737 8.07,61.954 8.07,61.954 8.32,59.459 4.826,51.473 4.076,49.476 3.328,47.479 3.827,45.483 1.582,41.489 -0.665,37.496 -7.654,17.281 4.076,4.304 L 6.572,1.558"
           style="fill:#ffffff;fill-opacity:1;fill-rule:nonzero;stroke:none"
           id="path1473" />
      </g>
      <g
         id="g1475"
         transform="matrix(0.32949796,0,0,-0.33513888,19.44877,99.625196)">
        <path
           d="M 0,0 C -0.099,0.218 -0.202,0.442 -0.311,0.677 -2.236,4.802 -7.262,4.119 -6.86,7.537 -6.084,14.129 -9.899,29.76 -15.889,36.248 -21.879,42.737 8.07,61.954 8.07,61.954 8.32,59.459 4.826,51.473 4.076,49.476 3.328,47.479 3.827,45.483 1.582,41.489 -0.665,37.496 -7.654,17.281 4.076,4.304 L 6.572,1.558"
           style="fill:none;stroke:#231f20;stroke-width:1;stroke-linecap:butt;stroke-linejoin:miter;stroke-miterlimit:4;stroke-dasharray:none;stroke-opacity:1"
           id="path1477" />
      </g>
      <g
         id="g1479"
         transform="matrix(0.32949796,0,0,-0.33513888,63.451806,65.620362)">
        <path
           d="M 0,0 C 0,0 -1.207,-0.604 -2.412,-1.085"
           style="fill:#ffffff;fill-opacity:1;fill-rule:nonzero;stroke:none"
           id="path1481" />
      </g>
      <g
         id="g1483"
         transform="matrix(0.32949796,0,0,-0.33513888,63.451806,65.620362)">
        <path
           d="M 0,0 C 0,0 -1.207,-0.604 -2.412,-1.085"
           style="fill:none;stroke:#231f20;stroke-width:1;stroke-linecap:butt;stroke-linejoin:miter;stroke-miterlimit:4;stroke-dasharray:none;stroke-opacity:1"
           id="path1485" />
      </g>
      <g
         id="g1487"
         transform="matrix(0.32949796,0,0,-0.33513888,44.595958,82.920601)">
        <path
           d="M 0,0 C 1.09,-3.172 2.584,-8.833 2.379,-11.1 2.128,-13.845 1.38,-22.829 1.38,-22.829 l 2.995,-1.997 c 0,0 2.059,-5.251 1.164,-11.427 -0.917,-6.333 2.809,-7.586 4.326,-8.538 3.257,-2.045 1.247,-6.739 5.741,-6.739 4.491,0 6.24,0.249 4.991,1.997 -1.247,1.747 -5.49,4.492 -6.24,5.989 -0.737,1.474 -7.276,7.334 0.877,47.105 1.951,1.22 3.519,2.819 4.47,4.912 5.863,12.897 4.456,13.131 4.456,18.76 0,0 8.207,18.995 20.402,24.857 1.247,-1.031 4.314,-3.076 9.38,-1.876 0,0 10.083,-2.111 13.132,-7.738 0,0 3.048,-1.409 6.097,-0.47 l -4.221,4.456 c 0,0 4.456,-3.752 5.394,-3.986 0.937,-0.236 5.159,2.111 3.517,5.627 -1.641,3.518 -10.787,11.256 -11.725,13.602 -0.938,2.345 -3.633,7.09 -6.593,9.29 -1.017,0.757 -3.994,2.935 -5.989,2.935 0,0 -0.587,-0.462 -2.17,-2.666 1.067,3.788 6.653,7.481 6.653,7.481 l -0.748,0.999 C 53.892,79.544 49.215,76.016 46.77,72.09 l 0.352,1.411 -1.211,-0.187 c -11.772,-2.19 -33.515,-9.592 -66.775,-29.432 -6.8,-3.048 -34.238,4.456 -45.494,4.456 -8.443,0 -33.299,-2.815 -33.299,-24.389 0,-7.504 6.097,-24.153 6.097,-27.202 0,-6.098 -8.208,-8.207 -8.208,-11.021 0,0 1.876,-21.34 -1.173,-28.14 0,0 -0.703,-2.815 2.814,-5.16 0,0 1.876,-0.23 1.876,-4.925 0,-2.276 -0.985,-5.27 9.786,-5.27 1.341,0 1.057,1.331 0.748,1.747 -0.308,0.416 -5.375,8.448 -5.375,8.448 -1.173,2.813 -4.925,18.995 3.752,30.486 0,0 7.505,9.38 8.443,13.601 0,0 7.504,5.862 8.207,9.381 1.562,1.437 4.173,4.46 7.035,3.282 0,0 15.713,-12.663 50.419,-7.973 0,0 10.192,-1.372 12.358,-1.289"
           style="fill:#ffffff;fill-opacity:1;fill-rule:nonzero;stroke:none"
           id="path1489" />
      </g>
      <g
         id="g1491"
         transform="matrix(0.32949796,0,0,-0.33513888,44.595958,82.920601)">
        <path
           d="M 0,0 C 1.09,-3.172 2.584,-8.833 2.379,-11.1 2.128,-13.845 1.38,-22.829 1.38,-22.829 l 2.995,-1.997 c 0,0 2.059,-5.251 1.164,-11.427 -0.917,-6.333 2.809,-7.586 4.326,-8.538 3.257,-2.045 1.247,-6.739 5.741,-6.739 4.491,0 6.24,0.249 4.991,1.997 -1.247,1.747 -5.49,4.492 -6.24,5.989 -0.737,1.474 -7.276,7.334 0.877,47.105 1.951,1.22 3.519,2.819 4.47,4.912 5.863,12.897 4.456,13.131 4.456,18.76 0,0 8.207,18.995 20.402,24.857 1.247,-1.031 4.314,-3.076 9.38,-1.876 0,0 10.083,-2.111 13.132,-7.738 0,0 3.048,-1.409 6.097,-0.47 l -4.221,4.456 c 0,0 4.456,-3.752 5.394,-3.986 0.937,-0.236 5.159,2.111 3.517,5.627 -1.641,3.518 -10.787,11.256 -11.725,13.602 -0.938,2.345 -3.633,7.09 -6.593,9.29 -1.017,0.757 -3.994,2.935 -5.989,2.935 0,0 -0.587,-0.462 -2.17,-2.666 1.067,3.788 6.653,7.481 6.653,7.481 l -0.748,0.999 C 53.892,79.544 49.215,76.016 46.77,72.09 l 0.352,1.411 -1.211,-0.187 c -11.772,-2.19 -33.515,-9.592 -66.775,-29.432 -6.8,-3.048 -34.238,4.456 -45.494,4.456 -8.443,0 -33.299,-2.815 -33.299,-24.389 0,-7.504 6.097,-24.153 6.097,-27.202 0,-6.098 -8.208,-8.207 -8.208,-11.021 0,0 1.876,-21.34 -1.173,-28.14 0,0 -0.703,-2.815 2.814,-5.16 0,0 1.876,-0.23 1.876,-4.925 0,-2.276 -0.985,-5.27 9.786,-5.27 1.341,0 1.057,1.331 0.748,1.747 -0.308,0.416 -5.375,8.448 -5.375,8.448 -1.173,2.813 -4.925,18.995 3.752,30.486 0,0 7.505,9.38 8.443,13.601 0,0 7.504,5.862 8.207,9.381 1.562,1.437 4.173,4.46 7.035,3.282 0,0 15.713,-12.663 50.419,-7.973 0,0 10.192,-1.372 12.358,-1.289 z"
           style="fill:none;stroke:#231f20;stroke-width:1;stroke-linecap:butt;stroke-linejoin:miter;stroke-miterlimit:4;stroke-dasharray:none;stroke-opacity:1"
           id="path1493" />
      </g>
      <g
         id="g1495"
         transform="matrix(0.32949796,0,0,-0.33513888,27.288351,70.079585)">
        <path
           d="M 0,0 C -1.497,-2.496 -4.992,-5.49 -6.989,-6.988"
           style="fill:#ffffff;fill-opacity:1;fill-rule:nonzero;stroke:none"
           id="path1497" />
      </g>
      <g
         id="g1499"
         transform="matrix(0.32949796,0,0,-0.33513888,27.288351,70.079585)">
        <path
           d="M 0,0 C -1.497,-2.496 -4.992,-5.49 -6.989,-6.988"
           style="fill:none;stroke:#231f20;stroke-width:0.5;stroke-linecap:butt;stroke-linejoin:miter;stroke-miterlimit:4;stroke-dasharray:none;stroke-opacity:1"
           id="path1501" />
      </g>
      <g
         id="g1503"
         transform="matrix(0.32949796,0,0,-0.33513888,56.727414,64.224812)">
        <path
           d="M 0,0 C -0.499,-1.497 -1.996,-6.488 -3.494,-7.986"
           style="fill:#ffffff;fill-opacity:1;fill-rule:nonzero;stroke:none"
           id="path1505" />
      </g>
      <g
         id="g1507"
         transform="matrix(0.32949796,0,0,-0.33513888,56.727414,64.224812)">
        <path
           d="M 0,0 C -0.499,-1.497 -1.996,-6.488 -3.494,-7.986"
           style="fill:none;stroke:#231f20;stroke-width:0.5;stroke-linecap:butt;stroke-linejoin:miter;stroke-miterlimit:4;stroke-dasharray:none;stroke-opacity:1"
           id="path1509" />
      </g>
      <g
         id="g1511"
         transform="matrix(0.32949796,0,0,-0.33513888,69.71128,66.651954)">
        <path
           d="m 0,0 c 0.719,-1.078 0.773,-2.309 0.117,-2.747 -0.654,-0.438 -1.771,0.083 -2.492,1.163 -0.721,1.08 -0.775,2.311 -0.119,2.747 C -1.839,1.602 -0.723,1.081 0,0"
           style="fill:#ffffff;fill-opacity:1;fill-rule:nonzero;stroke:none"
           id="path1513" />
      </g>
      <g
         id="g1515"
         transform="matrix(0.32949796,0,0,-0.33513888,69.71128,66.651954)">
        <path
           d="m 0,0 c 0.719,-1.078 0.773,-2.309 0.117,-2.747 -0.654,-0.438 -1.771,0.083 -2.492,1.163 -0.721,1.08 -0.775,2.311 -0.119,2.747 C -1.839,1.602 -0.723,1.081 0,0 Z"
           style="fill:none;stroke:#231f20;stroke-width:0.5;stroke-linecap:butt;stroke-linejoin:miter;stroke-miterlimit:4;stroke-dasharray:none;stroke-opacity:1"
           id="path1517" />
      </g>
      <g
         id="g1519"
         transform="matrix(0.32949796,0,0,-0.33513888,63.456089,62.774295)">
        <path
           d="M 0,0 C 0.785,-1.176 1.961,-3.331 3.626,-4.114"
           style="fill:#ffffff;fill-opacity:1;fill-rule:nonzero;stroke:none"
           id="path1521" />
      </g>
      <g
         id="g1523"
         transform="matrix(0.32949796,0,0,-0.33513888,63.456089,62.774295)">
        <path
           d="M 0,0 C 0.785,-1.176 1.961,-3.331 3.626,-4.114"
           style="fill:none;stroke:#231f20;stroke-width:0.5;stroke-linecap:butt;stroke-linejoin:miter;stroke-miterlimit:4;stroke-dasharray:none;stroke-opacity:1"
           id="path1525" />
      </g>
      <g
         id="g1527"
         transform="matrix(0.32949796,0,0,-0.33513888,58.104383,62.821081)">
        <path
           d="M 0,0 C -0.541,-1.893 -0.399,-3.555 2.464,-6.809"
           style="fill:#ffffff;fill-opacity:1;fill-rule:nonzero;stroke:none"
           id="path1529" />
      </g>
      <g
         id="g1531"
         transform="matrix(0.32949796,0,0,-0.33513888,58.104383,62.821081)">
        <path
           d="M 0,0 C -0.541,-1.893 -0.399,-3.555 2.464,-6.809"
           style="fill:none;stroke:#231f20;stroke-width:0.5;stroke-linecap:butt;stroke-linejoin:miter;stroke-miterlimit:4;stroke-dasharray:none;stroke-opacity:1"
           id="path1533" />
      </g>
      <g
         id="g1535"
         transform="matrix(0.32949796,0,0,-0.33513888,12.337842,101.12394)">
        <path
           d="M 0,0 C 0.842,1.604 5.339,1.269 8.234,1.084"
           style="fill:none;stroke:#231f20;stroke-width:1;stroke-linecap:butt;stroke-linejoin:miter;stroke-miterlimit:4;stroke-dasharray:none;stroke-opacity:1"
           id="path1537" />
      </g>
      <g
         id="g1539"
         transform="matrix(0.32949796,0,0,-0.33513888,43.04369,98.030606)">
        <path
           d="M 0,0 C 0.667,0.333 5.25,2.167 6.583,1.083"
           style="fill:none;stroke:#231f20;stroke-width:1;stroke-linecap:butt;stroke-linejoin:miter;stroke-miterlimit:4;stroke-dasharray:none;stroke-opacity:1"
           id="path1541" />
      </g>
      <g
         id="g1543"
         transform="matrix(0.32949796,0,0,-0.33513888,50.484743,98.7287)">
        <path
           d="M 0,0 C -1.416,0.416 -4.602,0.069 -5.185,-1.515"
           style="fill:none;stroke:#231f20;stroke-width:1;stroke-linecap:butt;stroke-linejoin:miter;stroke-miterlimit:4;stroke-dasharray:none;stroke-opacity:1"
           id="path1545" />
      </g>
      <g
         id="g1671"
         transform="matrix(0.32949796,0,0,-0.33513888,59.89158,55.790706)">
        <path
           d="M 0,0 V -11.588"
           style="fill:none;stroke:#918f90;stroke-width:0.5;stroke-linecap:butt;stroke-linejoin:miter;stroke-miterlimit:4;stroke-dasharray:none;stroke-opacity:1"
           id="path1673" />
      </g>
      <g
         id="g1675"
         transform="matrix(0.32949796,0,0,-0.33513888,51.624476,57.794668)">
        <path
           d="M 0,0 4.272,-10.772"
           style="fill:none;stroke:#918f90;stroke-width:0.5;stroke-linecap:butt;stroke-linejoin:miter;stroke-miterlimit:4;stroke-dasharray:none;stroke-opacity:1"
           id="path1677" />
      </g>
      <g
         id="g1679"
         transform="matrix(0.32949796,0,0,-0.33513888,44.477996,61.048531)">
        <path
           d="M 0,0 4.862,-10.52"
           style="fill:none;stroke:#918f90;stroke-width:0.5;stroke-linecap:butt;stroke-linejoin:miter;stroke-miterlimit:4;stroke-dasharray:none;stroke-opacity:1"
           id="path1681" />
      </g>
      <g
         id="g1683"
         transform="matrix(0.32949796,0,0,-0.33513888,37.760522,64.704293)">
        <path
           d="M 0,0 6.412,-9.652"
           style="fill:none;stroke:#918f90;stroke-width:0.5;stroke-linecap:butt;stroke-linejoin:miter;stroke-miterlimit:4;stroke-dasharray:none;stroke-opacity:1"
           id="path1685" />
      </g>
      <g
         id="g1687"
         transform="matrix(0.32949796,0,0,-0.33513888,23.658404,79.123107)">
        <path
           d="M 0,0 C 2,1 6,1.75 8,1"
           style="fill:none;stroke:#231f20;stroke-width:0.5;stroke-linecap:butt;stroke-linejoin:miter;stroke-miterlimit:4;stroke-dasharray:none;stroke-opacity:1"
           id="path1689" />
      </g>
      <g
         id="g1691"
         transform="matrix(0.32949796,0,0,-0.33513888,44.416708,82.390711)">
        <path
           d="M 0,0 C -0.5,1.25 0,4 0.25,5.5"
           style="fill:none;stroke:#231f20;stroke-width:0.5;stroke-linecap:butt;stroke-linejoin:miter;stroke-miterlimit:4;stroke-dasharray:none;stroke-opacity:1"
           id="path1693" />
      </g>
      <g
         id="g1695"
         transform="matrix(0.32949796,0,0,-0.33513888,16.192573,60.876372)">
        <path
           d="m 0,0 c -0.16,0.064 -0.384,0.104 -0.671,0.104 h -0.576 v -1.919 h 0.535 c 0.488,0 0.76,0.08 0.952,0.264 0.168,0.16 0.272,0.424 0.272,0.743 C 0.512,-0.424 0.304,-0.12 0,0 Z m 0.656,-4.773 c -0.16,0.312 -0.232,0.44 -0.456,0.815 -0.424,0.704 -0.56,0.936 -0.952,1.375 -0.144,0.16 -0.263,0.24 -0.495,0.248 v -2.438 h -0.768 v 5.508 h 1.543 c 0.656,0 1.04,-0.152 1.303,-0.399 0.248,-0.232 0.488,-0.6 0.488,-1.136 0,-0.855 -0.552,-1.543 -1.471,-1.511 0.256,-0.208 0.384,-0.383 0.48,-0.511 0.112,-0.153 0.28,-0.392 0.463,-0.68 0.241,-0.376 0.688,-1.096 0.8,-1.271"
           style="fill:#231f20;fill-opacity:1;fill-rule:nonzero;stroke:none"
           id="path1697" />
      </g>
      <g
         id="g1699"
         transform="matrix(0.32949796,0,0,-0.33513888,17.025972,62.476124)">
        <path
           d="m 0,0 v 3.982 l 0.76,0.12 V 0 Z m 0.376,4.709 c -0.288,0 -0.512,0.24 -0.512,0.528 0,0.296 0.232,0.536 0.52,0.536 0.287,0 0.528,-0.232 0.528,-0.536 0,-0.288 -0.241,-0.528 -0.536,-0.528"
           style="fill:#231f20;fill-opacity:1;fill-rule:nonzero;stroke:none"
           id="path1701" />
      </g>
      <g
         id="g1703"
         transform="matrix(0.32949796,0,0,-0.33513888,18.143332,61.289094)">
        <path
           d="m 0,0 c -0.472,0 -0.728,-0.256 -0.728,-0.767 0,-0.496 0.264,-0.744 0.736,-0.744 0.48,0 0.728,0.264 0.728,0.76 C 0.736,-0.24 0.504,0 0,0 Z m 1.607,-0.104 c -0.12,0 -0.152,0.008 -0.344,0.064 0.208,-0.264 0.288,-0.48 0.288,-0.735 0,-0.576 -0.392,-1.24 -1.439,-1.24 -0.248,-0.08 -0.632,-0.264 -0.632,-0.439 0,-0.121 0.096,-0.2 0.288,-0.2 h 0.616 c 1.023,0 1.447,-0.48 1.447,-1.104 0,-0.863 -0.711,-1.295 -1.687,-1.295 -1.12,0 -1.759,0.392 -1.759,1.056 0,0.167 0.032,0.287 0.072,0.407 l 0.719,0.04 c -0.031,-0.064 -0.072,-0.192 -0.072,-0.304 0,-0.416 0.344,-0.64 0.968,-0.64 0.656,0 0.983,0.265 0.983,0.688 0,0.384 -0.311,0.608 -1.103,0.608 -0.28,0 -0.599,0.024 -0.751,0.04 -0.352,0.04 -0.56,0.24 -0.56,0.536 0,0.376 0.328,0.535 0.783,0.703 -0.615,0.184 -0.943,0.6 -0.943,1.152 0,0.807 0.616,1.343 1.535,1.343 C 0.232,0.576 0.4,0.56 0.64,0.488 0.848,0.424 1.063,0.36 1.239,0.36 c 0.24,0 0.44,0.08 0.656,0.232 L 2.271,0.136 C 2.047,-0.04 1.855,-0.104 1.607,-0.104"
           style="fill:#231f20;fill-opacity:1;fill-rule:nonzero;stroke:none"
           id="path1705" />
      </g>
      <g
         id="g1707"
         transform="matrix(0.32949796,0,0,-0.33513888,19.872373,62.476124)">
        <path
           d="m 0,0 v 2.75 c 0,0.28 -0.056,0.472 -0.136,0.56 -0.072,0.08 -0.248,0.152 -0.44,0.152 -0.344,0 -0.752,-0.224 -1.063,-0.584 V 0 h -0.744 v 4.869 c 0,0.344 -0.032,0.608 -0.088,0.84 l 0.744,0.152 c 0.056,-0.24 0.088,-0.536 0.088,-0.928 V 4.038 c 0,-0.144 -0.008,-0.328 -0.024,-0.536 0.176,0.16 0.264,0.224 0.424,0.328 0.295,0.192 0.575,0.272 0.871,0.272 0.471,0 0.888,-0.24 1.008,-0.6 C 0.704,3.318 0.719,3.214 0.719,2.854 V 0"
           style="fill:#231f20;fill-opacity:1;fill-rule:nonzero;stroke:none"
           id="path1709" />
      </g>
      <g
         id="g1711"
         transform="matrix(0.32949796,0,0,-0.33513888,21.029636,61.307727)">
        <path
           d="m 0,0 h -0.792 v -2.415 c 0,-0.496 0.121,-0.648 0.52,-0.648 0.136,0 0.248,0.024 0.376,0.081 L 0.192,-3.43 c -0.224,-0.113 -0.464,-0.168 -0.728,-0.168 -0.263,0 -0.551,0.079 -0.679,0.2 -0.168,0.151 -0.296,0.231 -0.296,0.815 V 0 h -0.48 v 0.52 h 0.48 c 0,0.311 0.008,0.719 0.048,1.023 l 0.759,0.176 C -0.736,1.431 -0.775,0.927 -0.775,0.52 H 0.2"
           style="fill:#231f20;fill-opacity:1;fill-rule:nonzero;stroke:none"
           id="path1713" />
      </g>
      <g
         id="g1715"
         transform="matrix(0.32949796,0,0,-0.33513888,22.337183,62.513624)">
        <path
           d="m 0,0 c -0.488,0 -1.032,0.152 -1.495,0.424 l 0.263,0.527 c 0.384,-0.216 0.84,-0.399 1.288,-0.399 0.44,0 0.743,0.256 0.743,0.647 0,0.344 -0.207,0.544 -0.671,0.632 L -0.36,1.927 c -0.632,0.12 -0.976,0.52 -0.976,1.111 0,0.736 0.584,1.248 1.448,1.248 0.488,0 0.935,-0.136 1.263,-0.328 L 1.127,3.438 C 0.759,3.622 0.464,3.726 0.143,3.726 c -0.423,0 -0.695,-0.24 -0.695,-0.6 0,-0.288 0.144,-0.448 0.568,-0.543 L 0.536,2.462 C 1.271,2.294 1.575,1.871 1.575,1.343 1.575,0.544 0.935,0 0,0"
           style="fill:#231f20;fill-opacity:1;fill-rule:nonzero;stroke:none"
           id="path1717" />
      </g>
      <g
         id="g1719"
         transform="matrix(0.32949796,0,0,-0.33513888,23.178127,62.476124)">
        <path
           d="m 0,0 v 3.982 l 0.76,0.12 V 0 Z m 0.376,4.709 c -0.288,0 -0.512,0.24 -0.512,0.528 0,0.296 0.232,0.536 0.52,0.536 0.288,0 0.528,-0.232 0.528,-0.536 0,-0.288 -0.24,-0.528 -0.536,-0.528"
           style="fill:#231f20;fill-opacity:1;fill-rule:nonzero;stroke:none"
           id="path1721" />
      </g>
      <g
         id="g1723"
         transform="matrix(0.32949796,0,0,-0.33513888,24.609071,61.43374)">
        <path
           d="m 0,0 c -0.208,0.248 -0.472,0.376 -0.848,0.376 -0.303,0 -0.543,-0.152 -0.695,-0.408 -0.152,-0.264 -0.208,-0.584 -0.208,-1.103 0,-0.776 0.096,-0.992 0.312,-1.216 0.136,-0.144 0.32,-0.208 0.591,-0.208 0.424,0 0.712,0.224 0.848,0.464 z m 0.152,-3.11 c -0.04,0.12 -0.048,0.175 -0.072,0.376 -0.28,-0.296 -0.608,-0.44 -1.032,-0.44 -1.023,0 -1.623,0.767 -1.623,2.031 0,0.863 0.296,1.527 0.84,1.878 0.248,0.161 0.496,0.232 0.783,0.232 0.384,0 0.705,-0.135 0.976,-0.463 0,0.112 -0.016,0.432 -0.016,0.703 v 1.56 l 0.736,-0.12 v -4.414 c 0,-0.647 0.024,-1.095 0.111,-1.343"
           style="fill:#231f20;fill-opacity:1;fill-rule:nonzero;stroke:none"
           id="path1725" />
      </g>
      <g
         id="g1727"
         transform="matrix(0.32949796,0,0,-0.33513888,25.943011,61.372208)">
        <path
           d="m 0,0 c -0.128,0.16 -0.32,0.28 -0.576,0.28 -0.56,0 -0.84,-0.456 -0.84,-1.183 H 0.247 C 0.247,-0.52 0.16,-0.2 0,0 Z m -1.423,-1.447 v -0.096 c 0,-0.344 0.047,-0.607 0.168,-0.799 0.208,-0.32 0.535,-0.473 0.919,-0.473 0.376,0 0.696,0.128 0.983,0.384 l 0.28,-0.439 c -0.391,-0.344 -0.863,-0.512 -1.383,-0.512 -1.111,0 -1.791,0.808 -1.791,2.119 0,0.696 0.136,1.143 0.48,1.551 0.32,0.376 0.711,0.552 1.207,0.552 0.448,0 0.807,-0.144 1.087,-0.432 0.352,-0.36 0.48,-0.807 0.488,-1.727 0,-0.024 0,-0.08 0,-0.128"
           style="fill:#231f20;fill-opacity:1;fill-rule:nonzero;stroke:none"
           id="path1729" />
      </g>
      <g
         id="g1731"
         transform="matrix(0.32949796,0,0,-0.33513888,15.958464,63.795901)">
        <path
           d="m 0,0 c -0.266,-0.406 -0.469,-1.001 -0.644,-1.779 -0.112,-0.504 -0.19,-1.043 -0.19,-1.464 0,-0.735 0.19,-1.225 0.722,-1.575 L -0.35,-5.176 c -0.679,0.322 -1.121,1.002 -1.121,1.962 0,0.448 0.071,0.966 0.161,1.4 0.246,1.17 0.624,1.898 1.198,2.438 0.343,0.322 0.763,0.588 1.149,0.728 L 1.149,0.967 C 0.567,0.651 0.252,0.392 0,0"
           style="fill:#231f20;fill-opacity:1;fill-rule:nonzero;stroke:none"
           id="path1733" />
      </g>
      <g
         id="g1735"
         transform="matrix(0.32949796,0,0,-0.33513888,17.331153,63.793452)">
        <path
           d="m 0,0 c -0.231,0.203 -0.483,0.28 -0.812,0.28 -0.498,0 -0.939,-0.259 -1.261,-0.721 -0.371,-0.533 -0.595,-1.401 -0.595,-2.003 0,-0.736 0.371,-1.149 1.071,-1.149 0.336,0 0.623,0.091 0.973,0.315 l 0.253,-0.462 c -0.441,-0.266 -0.939,-0.407 -1.436,-0.407 -0.994,0 -1.583,0.666 -1.583,1.73 0,0.792 0.308,1.716 0.841,2.354 0.476,0.567 1.162,0.889 1.82,0.889 0.456,0 0.855,-0.147 1.114,-0.399"
           style="fill:#231f20;fill-opacity:1;fill-rule:nonzero;stroke:none"
           id="path1737" />
      </g>
      <g
         id="g1739"
         transform="matrix(0.32949796,0,0,-0.33513888,18.031995,64.119744)">
        <path
           d="m 0,0 c -0.742,0 -1.163,-0.988 -1.163,-1.968 0,-0.497 0.231,-0.7 0.624,-0.7 0.756,0 1.155,0.994 1.155,1.975 C 0.616,-0.182 0.343,0 0,0 Z m -0.658,-3.18 c -0.771,0 -1.205,0.463 -1.205,1.261 0,1.373 0.834,2.43 1.975,2.43 0.806,0 1.212,-0.49 1.212,-1.253 0,-1.331 -0.771,-2.438 -1.982,-2.438"
           style="fill:#231f20;fill-opacity:1;fill-rule:nonzero;stroke:none"
           id="path1741" />
      </g>
      <g
         id="g1743"
         transform="matrix(0.32949796,0,0,-0.33513888,19.316675,64.138579)">
        <path
           d="m 0,0 h -0.721 l -0.421,-1.982 c -0.027,-0.147 -0.048,-0.266 -0.048,-0.364 0,-0.239 0.105,-0.322 0.343,-0.322 0.14,0 0.252,0.028 0.364,0.07 v -0.4 c -0.217,-0.098 -0.441,-0.147 -0.686,-0.147 -0.442,0 -0.673,0.218 -0.673,0.582 0,0.168 0.014,0.308 0.049,0.497 L -1.358,0 h -0.428 l 0.091,0.477 h 0.435 c 0.07,0.294 0.154,0.602 0.237,0.868 l 0.701,0.154 C -0.42,1.226 -0.546,0.792 -0.609,0.477 h 0.854"
           style="fill:#231f20;fill-opacity:1;fill-rule:nonzero;stroke:none"
           id="path1745" />
      </g>
      <g
         id="g1747"
         transform="matrix(0.32949796,0,0,-0.33513888,20.036331,64.11502)">
        <path
           d="m 0,0 c -0.42,0 -0.826,-0.393 -1.002,-1.086 0.078,-0.007 0.225,-0.014 0.337,-0.014 0.539,0 0.819,0.077 0.994,0.252 0.105,0.105 0.168,0.231 0.168,0.392 C 0.497,-0.203 0.364,0 0,0 Z m 0.827,-1.163 c -0.295,-0.28 -0.757,-0.42 -1.499,-0.42 -0.162,0 -0.323,0.021 -0.434,0.021 -0.029,-0.119 -0.05,-0.287 -0.05,-0.406 0,-0.47 0.295,-0.708 0.673,-0.708 0.406,0 0.686,0.112 1.015,0.393 l 0.232,-0.4 c -0.379,-0.35 -0.771,-0.511 -1.422,-0.511 -0.701,0 -1.198,0.463 -1.198,1.275 0,0.693 0.287,1.45 0.777,1.926 0.35,0.336 0.736,0.49 1.17,0.49 0.673,0 1.057,-0.336 1.057,-0.924 0,-0.287 -0.118,-0.547 -0.321,-0.736"
           style="fill:#231f20;fill-opacity:1;fill-rule:nonzero;stroke:none"
           id="path1749" />
      </g>
      <g
         id="g1751"
         transform="matrix(0.32949796,0,0,-0.33513888,22.109994,63.856963)">
        <path
           d="m 0,0 c -0.203,0.322 -0.469,0.393 -0.932,0.393 h -0.545 l -0.785,-3.712 h 0.504 c 0.589,0 1.009,0.168 1.261,0.497 0.469,0.609 0.672,1.506 0.672,1.968 C 0.175,-0.469 0.126,-0.203 0,0 Z M -0.07,-3.264 C -0.539,-3.704 -1.022,-3.88 -1.835,-3.88 h -1.232 l 1.022,4.819 h 1.058 c 0.735,0 1.099,-0.084 1.443,-0.399 0.3,-0.273 0.448,-0.701 0.448,-1.345 0,-0.819 -0.421,-1.933 -0.974,-2.459"
           style="fill:#231f20;fill-opacity:1;fill-rule:nonzero;stroke:none"
           id="path1753" />
      </g>
      <g
         id="g1755"
         transform="matrix(0.32949796,0,0,-0.33513888,23.276911,64.185533)">
        <path
           d="m 0,0 c -0.07,0.028 -0.133,0.042 -0.238,0.042 -0.287,0 -0.609,-0.238 -0.931,-0.714 l -0.47,-2.227 h -0.637 l 0.504,2.367 c 0.105,0.504 0.112,0.742 0.035,0.987 l 0.602,0.267 c 0.077,-0.19 0.106,-0.449 0.043,-0.771 0.329,0.462 0.763,0.75 1.092,0.75 0.133,0 0.196,-0.015 0.28,-0.042"
           style="fill:#231f20;fill-opacity:1;fill-rule:nonzero;stroke:none"
           id="path1757" />
      </g>
      <g
         id="g1759"
         transform="matrix(0.32949796,0,0,-0.33513888,23.906483,64.119744)">
        <path
           d="m 0,0 c -0.742,0 -1.163,-0.988 -1.163,-1.968 0,-0.497 0.232,-0.7 0.624,-0.7 0.756,0 1.155,0.994 1.155,1.975 C 0.616,-0.182 0.343,0 0,0 Z m -0.658,-3.18 c -0.771,0 -1.205,0.463 -1.205,1.261 0,1.373 0.834,2.43 1.975,2.43 0.806,0 1.212,-0.49 1.212,-1.253 0,-1.331 -0.771,-2.438 -1.982,-2.438"
           style="fill:#231f20;fill-opacity:1;fill-rule:nonzero;stroke:none"
           id="path1761" />
      </g>
      <g
         id="g1763"
         transform="matrix(0.32949796,0,0,-0.33513888,24.951288,63.781825)">
        <path
           d="m 0,0 c -0.259,0 -0.469,0.203 -0.469,0.462 0,0.26 0.21,0.47 0.469,0.47 0.259,0 0.462,-0.21 0.462,-0.47 C 0.462,0.203 0.259,0 0,0 Z m -0.644,-4.104 h -0.673 l 0.743,3.488 0.693,0.105"
           style="fill:#231f20;fill-opacity:1;fill-rule:nonzero;stroke:none"
           id="path1765" />
      </g>
      <g
         id="g1767"
         transform="matrix(0.32949796,0,0,-0.33513888,25.779382,64.138579)">
        <path
           d="m 0,0 h -0.721 l -0.421,-1.982 c -0.028,-0.147 -0.049,-0.266 -0.049,-0.364 0,-0.239 0.105,-0.322 0.343,-0.322 0.14,0 0.253,0.028 0.365,0.07 v -0.4 C -0.7,-3.096 -0.924,-3.145 -1.17,-3.145 c -0.441,0 -0.672,0.218 -0.672,0.582 0,0.168 0.014,0.308 0.049,0.497 L -1.359,0 h -0.427 l 0.091,0.477 h 0.434 c 0.07,0.294 0.154,0.602 0.238,0.868 l 0.701,0.154 C -0.42,1.226 -0.546,0.792 -0.609,0.477 h 0.854"
           style="fill:#231f20;fill-opacity:1;fill-rule:nonzero;stroke:none"
           id="path1769" />
      </g>
      <g
         id="g1771"
         transform="matrix(0.32949796,0,0,-0.33513888,26.381243,64.46487)">
        <path
           d="m 0,0 c -0.245,-1.163 -0.63,-1.891 -1.198,-2.437 -0.343,-0.329 -0.763,-0.588 -1.155,-0.729 l -0.105,0.407 c 0.574,0.315 0.889,0.574 1.148,0.966 0.267,0.406 0.484,1.002 0.645,1.779 0.105,0.504 0.189,1.044 0.189,1.471 0,0.714 -0.182,1.219 -0.722,1.569 l 0.239,0.336 C -0.28,3.04 0.154,2.368 0.154,1.401 0.154,0.953 0.084,0.414 0,0"
           style="fill:#231f20;fill-opacity:1;fill-rule:nonzero;stroke:none"
           id="path1773" />
      </g>
      <g
         id="g1775"
         transform="matrix(0.32949796,0,0,-0.33513888,53.878903,57.811192)">
        <path
           d="m 0,0 c -0.279,-0.344 -0.735,-0.647 -1.583,-0.647 -0.832,0 -1.383,0.263 -1.663,0.767 -0.144,0.256 -0.176,0.408 -0.176,0.983 v 3.846 h 0.775 V 1.391 c 0,-0.399 0.041,-0.887 0.201,-1.071 0.152,-0.176 0.431,-0.312 0.871,-0.312 0.416,0 0.719,0.128 0.896,0.36 0.136,0.176 0.199,0.472 0.199,0.911 v 3.67 H 0.288 V 1.168 C 0.288,0.472 0.248,0.304 0,0"
           style="fill:#231f20;fill-opacity:1;fill-rule:nonzero;stroke:none"
           id="path1777" />
      </g>
      <g
         id="g1779"
         transform="matrix(0.32949796,0,0,-0.33513888,54.973166,56.830473)">
        <path
           d="m 0,0 c -0.36,0 -0.687,-0.176 -0.959,-0.496 v -2.038 c 0.247,-0.264 0.559,-0.44 0.855,-0.44 0.648,0 0.944,0.495 0.944,1.471 C 0.84,-0.551 0.632,0 0,0 Z m 0.064,-3.566 c -0.367,0 -0.727,0.136 -1.039,0.416 0.016,-0.128 0.016,-0.304 0.016,-0.448 v -1.407 l -0.72,-0.168 v 4.71 c 0,0.471 -0.032,0.727 -0.088,0.983 l 0.712,0.12 c 0.032,-0.12 0.047,-0.24 0.047,-0.576 0.312,0.376 0.712,0.56 1.136,0.56 0.816,0 1.503,-0.664 1.503,-2.039 0,-1.247 -0.543,-2.151 -1.567,-2.151"
           style="fill:#231f20;fill-opacity:1;fill-rule:nonzero;stroke:none"
           id="path1781" />
      </g>
      <g
         id="g1783"
         transform="matrix(0.32949796,0,0,-0.33513888,56.409776,56.830473)">
        <path
           d="m 0,0 c -0.36,0 -0.687,-0.176 -0.959,-0.496 v -2.038 c 0.248,-0.264 0.559,-0.44 0.855,-0.44 0.648,0 0.943,0.495 0.943,1.471 C 0.839,-0.551 0.632,0 0,0 Z m 0.064,-3.566 c -0.368,0 -0.727,0.136 -1.039,0.416 0.016,-0.128 0.016,-0.304 0.016,-0.448 v -1.407 l -0.72,-0.168 v 4.71 c 0,0.471 -0.032,0.727 -0.088,0.983 l 0.712,0.12 c 0.032,-0.12 0.048,-0.24 0.048,-0.576 0.311,0.376 0.711,0.56 1.135,0.56 0.815,0 1.503,-0.664 1.503,-2.039 0,-1.247 -0.543,-2.151 -1.567,-2.151"
           style="fill:#231f20;fill-opacity:1;fill-rule:nonzero;stroke:none"
           id="path1785" />
      </g>
      <g
         id="g1787"
         transform="matrix(0.32949796,0,0,-0.33513888,57.938648,56.894619)">
        <path
           d="m 0,0 c -0.128,0.16 -0.32,0.28 -0.576,0.28 -0.559,0 -0.839,-0.456 -0.839,-1.184 H 0.248 C 0.248,-0.52 0.16,-0.2 0,0 Z m -1.423,-1.447 v -0.096 c 0,-0.344 0.048,-0.608 0.167,-0.8 0.208,-0.32 0.537,-0.471 0.92,-0.471 0.376,0 0.696,0.127 0.984,0.383 l 0.279,-0.44 c -0.392,-0.343 -0.863,-0.511 -1.383,-0.511 -1.111,0 -1.791,0.807 -1.791,2.118 0,0.696 0.136,1.144 0.48,1.552 0.32,0.376 0.712,0.551 1.207,0.551 0.448,0 0.808,-0.144 1.088,-0.431 0.352,-0.36 0.48,-0.808 0.487,-1.727 0,-0.025 0,-0.081 0,-0.128"
           style="fill:#231f20;fill-opacity:1;fill-rule:nonzero;stroke:none"
           id="path1789" />
      </g>
      <g
         id="g1791"
         transform="matrix(0.32949796,0,0,-0.33513888,59.217101,56.873371)">
        <path
           d="m 0,0 c -0.072,0.024 -0.128,0.04 -0.208,0.04 -0.448,0 -0.831,-0.375 -0.831,-0.815 v -2.583 h -0.736 v 2.943 c 0,0.487 -0.056,0.751 -0.152,0.999 l 0.712,0.184 C -1.143,0.616 -1.079,0.352 -1.079,0.152 V 0.08 c 0.319,0.464 0.663,0.696 1.087,0.696 0.096,0 0.184,-0.016 0.248,-0.04"
           style="fill:#231f20;fill-opacity:1;fill-rule:nonzero;stroke:none"
           id="path1793" />
      </g>
      <g
         id="g1795"
         transform="matrix(0.32949796,0,0,-0.33513888,47.992749,60.995981)">
        <path
           d="M 0,0 -0.288,3.75 C -0.312,4.046 -0.32,4.461 -0.328,4.621 H -0.344 C -0.376,4.461 -0.456,4.118 -0.544,3.822 L -1.639,0 H -2.303 L -3.31,3.646 C -3.43,4.07 -3.526,4.485 -3.558,4.629 H -3.574 C -3.582,4.437 -3.606,3.934 -3.63,3.646 L -3.91,0 h -0.751 l 0.495,5.509 h 1.08 l 0.927,-3.382 c 0.12,-0.448 0.184,-0.784 0.2,-0.904 h 0.016 c 0.024,0.136 0.088,0.496 0.192,0.864 l 0.96,3.422 H 0.296 L 0.768,0"
           style="fill:#231f20;fill-opacity:1;fill-rule:nonzero;stroke:none"
           id="path1797" />
      </g>
      <g
         id="g1799"
         transform="matrix(0.32949796,0,0,-0.33513888,48.628681,60.995981)">
        <path
           d="m 0,0 v 3.982 l 0.76,0.12 V 0 Z m 0.376,4.709 c -0.288,0 -0.511,0.24 -0.511,0.528 0,0.296 0.232,0.536 0.519,0.536 0.288,0 0.528,-0.232 0.528,-0.536 0,-0.288 -0.24,-0.528 -0.536,-0.528"
           style="fill:#231f20;fill-opacity:1;fill-rule:nonzero;stroke:none"
           id="path1801" />
      </g>
      <g
         id="g1803"
         transform="matrix(0.32949796,0,0,-0.33513888,50.059692,59.953601)">
        <path
           d="m 0,0 c -0.208,0.248 -0.472,0.376 -0.848,0.376 -0.303,0 -0.543,-0.152 -0.695,-0.408 -0.152,-0.264 -0.208,-0.584 -0.208,-1.103 0,-0.776 0.096,-0.992 0.312,-1.216 0.136,-0.144 0.32,-0.208 0.591,-0.208 0.424,0 0.712,0.224 0.848,0.464 z m 0.152,-3.11 c -0.04,0.12 -0.048,0.175 -0.072,0.376 -0.28,-0.296 -0.608,-0.44 -1.032,-0.44 -1.023,0 -1.623,0.767 -1.623,2.031 0,0.863 0.296,1.527 0.84,1.878 0.248,0.161 0.496,0.232 0.783,0.232 0.384,0 0.704,-0.135 0.976,-0.464 0,0.113 -0.016,0.433 -0.016,0.705 v 1.559 l 0.736,-0.12 v -4.414 c 0,-0.647 0.024,-1.095 0.112,-1.343"
           style="fill:#231f20;fill-opacity:1;fill-rule:nonzero;stroke:none"
           id="path1805" />
      </g>
      <g
         id="g1807"
         transform="matrix(0.32949796,0,0,-0.33513888,39.096999,63.993597)">
        <path
           d="m 0,0 h -2.75 v 5.509 h 0.783 V 0.64 h 2.095"
           style="fill:#231f20;fill-opacity:1;fill-rule:nonzero;stroke:none"
           id="path1809" />
      </g>
      <g
         id="g1811"
         transform="matrix(0.32949796,0,0,-0.33513888,39.814083,62.803756)">
        <path
           d="m 0,0 c -0.64,0 -0.903,-0.456 -0.903,-1.463 0,-1.223 0.311,-1.632 0.935,-1.632 0.56,0 0.904,0.432 0.904,1.48 C 0.936,-0.376 0.576,0 0,0 Z m 0.016,-3.662 c -1.072,0 -1.735,0.815 -1.735,2.119 0,1.295 0.663,2.11 1.719,2.11 1.183,0 1.759,-0.943 1.759,-2.15 0,-1.271 -0.68,-2.079 -1.743,-2.079"
           style="fill:#231f20;fill-opacity:1;fill-rule:nonzero;stroke:none"
           id="path1813" />
      </g>
      <g
         id="g1815"
         transform="matrix(0.32949796,0,0,-0.33513888,41.93559,64.004223)">
        <path
           d="m 0,0 h -0.711 l -0.584,2.183 c -0.072,0.279 -0.248,0.943 -0.248,0.943 h -0.024 c 0,0 -0.16,-0.68 -0.216,-0.896 L -2.382,0 h -0.704 l -1.095,4.005 0.743,0.12 0.512,-2.246 c 0.088,-0.4 0.208,-0.983 0.208,-0.983 h 0.024 c 0,0 0.088,0.567 0.184,0.911 l 0.608,2.231 h 0.759 l 0.56,-2.167 c 0.112,-0.432 0.224,-0.936 0.224,-0.975 h 0.032 c 0,0.039 0.128,0.687 0.183,0.951 L 0.352,4.038 H 1.12"
           style="fill:#231f20;fill-opacity:1;fill-rule:nonzero;stroke:none"
           id="path1817" />
      </g>
      <g
         id="g1819"
         transform="matrix(0.32949796,0,0,-0.33513888,43.198228,62.889484)">
        <path
           d="m 0,0 c -0.128,0.16 -0.319,0.28 -0.575,0.28 -0.56,0 -0.84,-0.456 -0.84,-1.184 H 0.248 C 0.248,-0.52 0.16,-0.2 0,0 Z m -1.423,-1.447 v -0.096 c 0,-0.344 0.048,-0.608 0.168,-0.8 0.208,-0.32 0.536,-0.472 0.919,-0.472 0.376,0 0.696,0.128 0.984,0.384 l 0.28,-0.44 c -0.392,-0.343 -0.864,-0.511 -1.383,-0.511 -1.112,0 -1.791,0.807 -1.791,2.118 0,0.696 0.136,1.144 0.479,1.552 0.32,0.376 0.712,0.551 1.208,0.551 0.448,0 0.807,-0.144 1.087,-0.431 0.352,-0.36 0.48,-0.808 0.488,-1.727 0,-0.025 0,-0.081 0,-0.128"
           style="fill:#231f20;fill-opacity:1;fill-rule:nonzero;stroke:none"
           id="path1821" />
      </g>
      <g
         id="g1823"
         transform="matrix(0.32949796,0,0,-0.33513888,44.476677,62.868236)">
        <path
           d="m 0,0 c -0.071,0.024 -0.128,0.04 -0.207,0.04 -0.448,0 -0.832,-0.375 -0.832,-0.815 v -2.583 h -0.736 v 2.943 c 0,0.487 -0.056,0.751 -0.151,0.999 l 0.711,0.184 C -1.143,0.616 -1.079,0.352 -1.079,0.152 V 0.08 c 0.32,0.464 0.664,0.696 1.088,0.696 0.095,0 0.183,-0.016 0.247,-0.04"
           style="fill:#231f20;fill-opacity:1;fill-rule:nonzero;stroke:none"
           id="path1825" />
      </g>
      <g
         id="g2739"
         transform="matrix(0.32949796,0,0,-0.33513888,62.953275,60.912697)">
        <path
           d="m 0,0 3.096,-3.07 0.248,-0.241 c 0.264,-0.24 0.608,-0.394 0.992,-0.418 0.893,-0.053 1.662,0.627 1.715,1.521 0.054,0.894 -0.626,1.662 -1.521,1.716 -0.118,0.007 -0.235,0.001 -0.347,-0.016 0,0 -2.602,-0.612 -3.852,0.199"
           style="fill:none;stroke:#918f90;stroke-width:0.5;stroke-linecap:butt;stroke-linejoin:round;stroke-miterlimit:4;stroke-dasharray:none;stroke-opacity:1"
           id="path2741" />
      </g>
      <g
         id="g2751"
         transform="matrix(0.32949796,0,0,-0.33513888,19.436052,99.546104)">
        <path
           d="M 0,0 C 0.559,1.485 3.946,1.54 6.329,1.591 L 6.476,1.475 c 0.857,-1.198 1.397,-1.692 1.585,-1.95 0.35,-0.484 1.779,-1.745 0.433,-1.981 -1.167,-0.205 -7.149,-2.166 -8.522,2.4 z"
           style="fill:none;stroke:#231f20;stroke-width:1;stroke-linecap:butt;stroke-linejoin:miter;stroke-miterlimit:4;stroke-dasharray:none;stroke-opacity:1"
           id="path2753" />
      </g>
    </g>
  </g>
</svg>
